<svg width="148" height="145" viewBox="0 0 148 145" fill="none" xmlns="http://www.w3.org/2000/svg">
<path d="M63.7172 27.0823C64.0897 27.047 64.8432 27.0421 64.9533 26.5442C65.0931 25.9127 63.9969 26.4355 63.0198 26.1114C62.7262 26.0145 61.5615 26.1073 61.1155 26.3323C60.6682 26.5567 59.3331 26.4064 59.1288 26.3933C58.9252 26.3808 58.6357 28.8135 58.6357 28.8135C58.6357 28.8135 60.6931 29.0815 61.1467 29.2982C61.601 29.5157 63.2698 30.3411 64.2996 30.4588C65.4747 30.5932 65.5966 29.4679 66.6429 29.3557C66.789 29.3398 67.2017 29.3515 67.1083 28.9984C67.0148 28.6445 63.7705 27.9022 63.3543 27.2859C63.202 27.0622 63.5711 27.0954 63.7172 27.0823Z" fill="#FDABAB"/>
<path d="M46.734 20.2363C42.487 17.0419 37.1314 13.1515 36.4285 12.7035C33.0817 10.5699 32.444 12.216 31.8893 14.1037C30.9496 17.3029 33.4328 19.854 38.9664 23.0914C44.4987 26.3294 46.3933 26.2131 47.8046 25.7685C49.2166 25.3246 50.9824 23.43 46.734 20.2363Z" fill="#5B5C70"/>
<path d="M46.7339 20.2359C43.82 18.6473 38.9442 22.3632 43.3436 25.3C47.7443 28.2368 58.466 29.7485 58.466 29.7485C60.8627 27.561 59.2118 25.3976 59.2118 25.3976C59.2118 25.3976 52.4559 23.3562 46.7339 20.2359Z" fill="#5B5C70"/>
<path d="M40.1602 76.2092C39.6173 75.9959 39.6609 74.6733 39.6609 74.6733L35.6064 74.0161C35.6064 74.0161 35.6639 77.4688 35.711 78.0671C35.7533 78.5913 36.0517 79.8323 37.5274 79.5477C39.3493 79.1966 40.9919 79.4895 41.5431 79.6598C42.0957 79.8302 43.2424 79.9777 44.581 79.7187C45.8815 79.468 46.7492 78.8531 45.6717 77.9238C44.5935 76.9938 41.46 76.7196 40.1602 76.2092Z" fill="#023248"/>
<path d="M32.0781 55.9408C32.0761 57.0329 33.2969 67.0496 34.7857 75.3635C35.2213 77.7955 40.4121 75.8261 40.4433 74.7306C40.5042 72.6622 39.219 58.2759 38.4753 54.1217C38.0072 51.5089 32.0837 52.6114 32.0781 55.9408Z" fill="#005478"/>
<path d="M25.347 81.0952C25.3726 80.875 25.2528 80.3902 25.2528 80.3902L21.717 79.7061C21.717 79.7061 21.4137 80.2794 21.3209 81.0135C21.2295 81.7482 21.0903 83.3395 21.0412 83.8056C20.9906 84.2709 20.9608 85.4093 21.9178 86.491C22.8748 87.5727 23.3713 87.9978 24.6635 87.5581C25.9557 87.1177 25.946 85.2909 25.7286 84.354C25.5104 83.4157 25.3214 81.3154 25.347 81.0952Z" fill="#023248"/>
<path d="M21.503 59.7014C21.3091 60.772 20.7461 70.8594 20.7461 79.3312C20.7461 81.8096 26.1862 80.9654 26.4099 79.8969C26.8323 77.8804 28.1003 63.492 28.1003 59.2596C28.1003 56.5963 22.0944 56.4357 21.503 59.7014Z" fill="#005478"/>
<path d="M28.8326 40.4506C28.7731 42.519 29.5971 45.4344 30.057 47.3941C30.5168 49.3538 31.6628 56.1132 32.2667 58.05C33.0526 60.5721 38.8051 59.7154 38.812 56.386C38.8134 55.2939 39.1028 41.9325 37.614 33.6186C37.1777 31.1859 28.8652 39.3551 28.8326 40.4506Z" fill="#005478"/>
<path d="M20.7455 42.6718C20.0143 45.4265 21.0641 59.7831 21.3161 61.8113C21.6451 64.4504 27.4404 64.8174 28.0318 61.551C28.2257 60.4811 30.398 47.3793 30.398 38.9075C30.398 36.4291 21.0253 41.6172 20.7455 42.6718Z" fill="#005478"/>
<path d="M30.9688 11.4485L25.9497 10.1279C25.9497 10.1279 24.9968 10.2533 24.7475 10.5109C24.3189 10.9548 24.028 11.5628 23.8438 12.0593C23.6146 12.6763 23.2504 13.2289 22.7636 13.6547C22.7636 13.6547 19.4715 16.291 18.6558 17.2757C15.5583 21.0214 19.8254 40.3582 19.8254 49.0191C19.8254 49.0191 27.5936 48.8695 31.8025 47.7352L32.6619 44.4778L33.9686 46.709C35.4277 46.2727 38.8735 43.6468 39.023 43.4481C39.1719 43.2493 37.627 14.4975 34.5295 11.9845C33.8239 11.4125 30.9688 11.4485 30.9688 11.4485Z" fill="#5B5C70"/>
<path d="M19.3824 26.7505C20.169 24.9092 21.4723 22.1067 23.1917 21.4385C22.9992 22.0299 19.1296 38.2443 19.1296 38.2443C19.1296 38.2443 17.1581 31.9552 19.3824 26.7505Z" fill="#023248"/>
<path d="M32.1317 13.2397C31.9475 12.7424 31.6414 12.2965 31.2246 11.9676C30.7966 11.631 30.2225 11.3291 29.6533 11.4953C29.6533 11.4953 30.9697 11.9828 30.7557 13.9169C30.6685 14.6786 30.7869 15.9355 30.674 17.353C30.5439 18.9789 31.415 24.1248 31.415 24.1248L33.6386 17.7892L32.561 16.7242L33.7362 15.896L32.1317 13.2397Z" fill="#023248"/>
<path d="M25.0395 10.1335C24.4412 10.6016 23.96 11.6625 25.417 13.5004C26.1226 14.3909 26.8386 15.8174 27.4902 16.9628C27.9646 17.7972 30.9284 21.9493 31.3114 23.1272C31.3114 23.1272 31.3494 22.0546 31.3958 20.3165C31.4076 19.9238 31.3965 14.9788 31.0718 13.7836C30.2969 10.9354 26.9044 8.68206 25.0395 10.1335Z" fill="white"/>
<path d="M25.652 8.59717C25.652 8.59717 25.5849 9.42953 25.0641 10.8657C24.9893 11.0721 25.0219 11.302 25.159 11.4731C25.7019 12.1448 27.1803 13.7839 28.7003 13.7839C28.7003 13.7839 29.8083 12.9134 29.8083 11.8851C29.8083 10.8567 25.652 8.59717 25.652 8.59717Z" fill="#FDABAB"/>
<path d="M28.1511 0.779676C23.3515 0.909863 24.6804 6.22813 24.6804 6.22813C24.6804 6.22813 24.3252 6.3867 24.5156 7.07087C24.7067 7.75573 24.7524 7.82706 24.8501 8.16638C24.9477 8.50638 25.1894 9.13517 25.6714 9.03614C25.6714 9.03614 26.3964 10.883 29.5312 11.9508C30.0769 12.1378 30.7992 11.9383 30.9474 11.3864C31.0963 10.8345 32.144 9.23002 32.1821 7.98979C32.2105 7.05148 31.8559 7.12351 32.0983 6.59515C32.342 6.06678 32.9507 0.648797 28.1511 0.779676Z" fill="#FDABAB"/>
<path d="M28.3868 0.422194C25.1197 0.280236 22.8054 3.06055 24.4224 6.68777C25.0123 5.79932 25.6792 6.84773 25.7782 7.19674C25.8315 7.38925 26.0109 8.19531 26.3087 8.19531C26.524 8.19531 26.5919 7.41348 26.5919 7.41348C26.5919 5.18507 26.0455 4.9261 27.1528 4.39496C28.0967 3.94277 30.1845 5.63104 32.0369 5.63312C33.6947 5.6345 32.8748 0.618167 28.3868 0.422194Z" fill="#023248"/>
<path d="M30.6275 15.0504L29.3797 14.7983L28.5674 15.8135C28.5674 15.8135 28.8042 16.344 29.4496 17.0482C29.2848 17.3522 29.1705 18.0655 29.2786 19.3715C29.6587 20.172 31.4149 24.1261 31.4149 24.1261L31.4398 18.9096C31.2521 17.6818 31.0852 17.3896 30.6227 16.7345L30.6275 15.0504Z" fill="#576DFC"/>
<path d="M25.4823 13.3142C24.015 11.4846 25.0357 10.1343 25.0357 10.1343C24.3501 10.3337 23.9623 11.0137 23.7456 11.6342C23.5358 12.2387 23.5129 12.8917 23.6479 13.5177L24.4928 17.4427L25.465 17.343L25.1866 18.379L31.4148 24.1328C31.4148 24.1328 28.971 18.3298 27.7883 16.7599C26.7565 15.3888 26.0647 14.033 25.4823 13.3142Z" fill="#023248"/>
<path d="M25.5469 6.97585C25.3392 6.658 24.8683 6.67531 24.6903 7.01186L24.6862 7.01879C24.486 7.39481 24.5387 7.86153 24.8295 8.17315C25.7097 9.11285 26.8315 9.50202 27.3093 9.63221C27.4457 9.6696 27.5891 9.61352 27.668 9.49579C27.7677 9.34414 27.7269 9.1364 27.5731 9.04015C26.632 8.45846 25.9513 7.59493 25.5469 6.97585Z" fill="#023248"/>
<path d="M24.5816 6.26039C24.3295 6.51038 24.2451 6.99372 24.5823 7.39675C24.61 7.42999 24.6592 7.43345 24.6917 7.40575C24.7243 7.37805 24.7291 7.32957 24.7014 7.29702C24.4223 6.96463 24.4874 6.572 24.691 6.3698C24.8524 6.21053 25.1418 6.13851 25.4735 6.42104C26.2803 7.10729 26.0289 8.20488 26.0261 8.21527C26.0164 8.25682 26.0421 8.29906 26.0836 8.30806C26.0891 8.31014 26.0961 8.31083 26.1016 8.31083C26.1362 8.31083 26.1688 8.2866 26.1771 8.25197C26.1882 8.20212 26.4513 7.0505 25.5732 6.30331C25.1619 5.95292 24.7824 6.06165 24.5816 6.26039Z" fill="#576DFC"/>
<path d="M14.13 44.1659C14.13 44.1659 16.544 43.749 16.5897 43.9477C16.6361 44.1479 16.873 45.4705 17.2171 45.8347C17.5599 46.1983 17.9816 47.289 17.9719 47.5971C17.9415 48.6261 18.7551 49.5285 18.1097 49.5742C17.6015 49.6109 17.3806 48.8893 17.2414 48.5423C17.1867 48.4066 17.1133 48.0445 16.9415 48.2529C16.4692 48.827 16.6839 52.1488 16.3716 52.3392C16.06 52.5297 15.9534 52.1308 15.8966 51.9951C15.4901 51.0242 14.3773 51.2285 14.1702 50.0644C13.9888 49.0444 14.3039 47.2086 14.3821 46.7114C14.4604 46.2142 14.13 44.1659 14.13 44.1659Z" fill="#FDABAB"/>
<path d="M20.4316 15.9572C21.9647 15.3963 24.6529 17.5361 23.5636 21.353C23.3351 22.1542 20.6192 26.9026 18.7717 31.8857C16.9241 36.8681 14.6036 35.7172 13.7754 34.4915C12.9465 33.2658 13.4409 31.8552 14.9644 25.6284C16.4872 19.4016 18.0612 16.8242 20.4316 15.9572Z" fill="#5B5C70"/>
<path d="M18.4586 32.794C17.2461 38.4931 17.4275 44.9457 17.4275 44.9457C17.4275 44.9457 15.9941 46.9123 13.5088 45.4173C13.5088 45.4173 12.2491 36.1235 13.6417 31.6036C15.0343 27.0831 19.0756 29.8911 18.4586 32.794Z" fill="#5B5C70"/>
<path d="M0.989507 106.877C0.988122 107.695 1.52895 108.515 2.61061 109.138L57.737 140.892C59.8865 142.13 63.3607 142.126 65.4935 140.884L146.051 94.2565C147.111 93.6395 147.641 92.8321 147.643 92.0239L147.638 94.8555C147.637 95.6636 147.107 96.4703 146.047 97.088L65.4894 143.716C63.3558 144.958 59.8823 144.962 57.7329 143.723L2.60645 111.969C1.52479 111.346 0.983969 110.527 0.985354 109.709L0.989507 106.877Z" fill="#C8CDE2"/>
<path d="M2.61468 109.141L57.7383 140.897C59.885 142.133 63.3613 142.133 65.4969 140.885L146.053 94.2545C148.188 93.0177 148.176 90.9998 146.018 89.763L90.8944 58.0072C88.7477 56.7704 85.2714 56.7704 83.1365 58.0189L2.58006 104.649C0.444449 105.885 0.45691 107.903 2.61468 109.141Z" fill="#F2F7FA"/>
<path d="M7.86772 104.531L66.7356 138.444C67.0348 138.617 67.4032 138.617 67.7023 138.443L144.602 93.8549C145.245 93.4816 145.244 92.553 144.6 92.1818L85.7325 58.2676C85.4333 58.0951 85.0642 58.0958 84.7658 58.269L7.86633 102.857C7.22301 103.231 7.22371 104.16 7.86772 104.531Z" fill="white"/>
<path d="M77.485 93.6049L94.5941 103.485C94.9577 103.692 95.5414 103.692 95.9029 103.485C96.2637 103.277 96.2637 102.937 95.9029 102.733L78.791 92.8501C78.4275 92.6431 77.8458 92.6431 77.4857 92.8501C77.1214 93.0592 77.1214 93.3986 77.485 93.6049Z" fill="#C8CDE2"/>
<path d="M60.2692 87.2768L77.3776 97.1571C77.7412 97.3642 78.3249 97.3642 78.6871 97.1571C79.0472 96.9487 79.0472 96.6094 78.6871 96.4044L61.5752 86.522C61.2116 86.3149 60.6299 86.3149 60.2699 86.522C59.9056 86.7311 59.9056 87.0698 60.2692 87.2768Z" fill="#C8CDE2"/>
<path d="M103.27 106.676L98.2783 103.797C97.9161 103.589 97.3309 103.589 96.9708 103.797C96.6087 104.005 96.6087 104.343 96.9708 104.552L101.964 107.433C102.327 107.64 102.909 107.64 103.269 107.433C103.63 107.225 103.63 106.888 103.27 106.676Z" fill="#C8CDE2"/>
<path d="M59.6388 85.356L54.6474 82.4766C54.2859 82.2682 53.7007 82.2682 53.34 82.4766C52.9785 82.6851 52.9785 83.023 53.34 83.2314L58.3328 86.1122C58.6963 86.3192 59.278 86.3192 59.6381 86.1122C59.9989 85.9037 59.9989 85.5665 59.6388 85.356Z" fill="#C8CDE2"/>
<path d="M76.2886 91.5421L57.5701 80.7324C57.208 80.526 56.6249 80.526 56.2627 80.7324C55.9027 80.9429 55.9027 81.2808 56.2627 81.4872L74.9833 92.2968C75.3448 92.5039 75.9265 92.5039 76.2886 92.2968C76.6508 92.087 76.6508 91.7477 76.2886 91.5421Z" fill="#C8CDE2"/>
<path d="M99.2525 108.223L80.534 97.4136C80.1725 97.2065 79.5888 97.2065 79.2266 97.4136C78.8665 97.6241 78.8665 97.9613 79.2266 98.1677L97.9472 108.977C98.3093 109.184 98.8903 109.184 99.2525 108.977C99.6147 108.767 99.6147 108.428 99.2525 108.223Z" fill="#C8CDE2"/>
<path d="M81.8069 83.0163L73.9036 78.4528C72.8226 77.8261 72.8191 76.8109 73.9056 76.1849C74.9921 75.5589 76.7538 75.5562 77.8424 76.1808L85.7436 80.7422C86.8287 81.3689 86.8287 82.3861 85.7402 83.0163C84.6571 83.6409 82.8975 83.6388 81.8069 83.0163Z" fill="#73CA74"/>
<path d="M65.9568 105.22L60.9508 102.327C60.2646 101.931 60.2625 101.29 60.9522 100.89C61.6392 100.494 62.7548 100.492 63.4452 100.886L68.4511 103.781C69.1374 104.175 69.1374 104.823 68.4497 105.22C67.7628 105.614 66.6437 105.612 65.9568 105.22Z" fill="#F85976"/>
<path d="M16.5811 102.134L70.2768 133.139L70.4665 133.033L16.7687 102.024L16.5811 102.134Z" fill="#C8CDE2"/>
<path d="M69.5242 103.163L64.5141 100.27C63.8258 99.8741 63.8258 99.2301 64.5155 98.8333C65.2059 98.4344 66.316 98.4344 67.0084 98.8298L72.013 101.726C72.6979 102.118 72.7013 102.767 72.0109 103.165C71.3268 103.561 70.207 103.555 69.5242 103.163Z" fill="#73CA74"/>
<path d="M61.7266 127.99L67.909 131.558L94.4747 115.966L88.2929 112.393L61.7266 127.99Z" fill="#73CA74"/>
<path d="M52.9414 122.937L59.1211 126.506L80.0216 114.576L73.8377 111.004L52.9414 122.937Z" fill="#F85976"/>
<path d="M44.2778 118.048L50.4582 121.618L63.7837 114.046L57.5998 110.475L44.2778 118.048Z" fill="#FFDE95"/>
<path d="M38.3124 93.5857C37.0902 93.0074 35.2904 93.1154 34.2884 93.8155C33.2926 94.5219 33.4747 95.5599 34.6942 96.1416C35.9164 96.7164 37.7169 96.6159 38.7147 95.9075C39.7168 95.2005 39.5312 94.1618 38.3124 93.5857Z" fill="#FFDE95"/>
<path d="M40.0532 92.323C37.6164 91.1686 34.0141 91.377 32.019 92.7904C30.0212 94.1961 30.3834 96.2749 32.8251 97.4258C35.2599 98.5823 38.8642 98.369 40.8614 96.964C42.8564 95.5499 42.4894 93.4711 40.0532 92.323ZM33.8077 96.7334C32.0377 95.8961 31.7753 94.3782 33.2254 93.3534C34.6719 92.3361 37.2958 92.1796 39.0685 93.0168C40.8399 93.852 41.1044 95.372 39.6544 96.3927C38.2064 97.4162 35.5826 97.5671 33.8077 96.7334Z" fill="#005478"/>
<path d="M32.0195 92.7904C30.94 93.5542 30.5556 94.5098 30.807 95.4128L32.3346 95.2328C32.1684 94.5811 32.4565 93.9025 33.2265 93.3534C34.6731 92.3361 37.2969 92.1796 39.0697 93.0168L40.0537 92.323C37.6169 91.1686 34.0146 91.377 32.0195 92.7904Z" fill="#F85976"/>
<path d="M40.0534 92.3232L39.0693 93.0171C40.4349 93.6653 40.9086 94.7088 40.3823 95.6257L41.8614 95.9096C42.5823 94.6514 41.9383 93.211 40.0534 92.3232Z" fill="#73CA74"/>
<path d="M48.5203 100.181C46.9795 99.9957 45.4671 100.57 45.1479 101.465C44.8286 102.356 45.8265 103.23 47.3714 103.412C48.9046 103.598 50.4225 103.018 50.7438 102.132C51.0575 101.235 50.0638 100.361 48.5203 100.181Z" fill="#005478"/>
<path d="M49.1415 98.5394C46.0538 98.1738 43.029 99.3247 42.3988 101.105C41.7631 102.888 43.7582 104.634 46.8425 105.001C49.9268 105.365 52.953 104.212 53.5852 102.433C54.2195 100.649 52.2196 98.9009 49.1415 98.5394ZM47.1514 104.117C44.9146 103.854 43.4563 102.587 43.9188 101.289C44.387 99.9937 46.5835 99.1544 48.8306 99.421C51.0715 99.6841 52.5236 100.958 52.0631 102.254C51.5971 103.546 49.3964 104.381 47.1514 104.117Z" fill="#F85976"/>
<path d="M52.5428 99.7866L51.3379 100.353C52.0068 100.887 52.3067 101.558 52.0629 102.254C51.5969 103.546 49.3962 104.381 47.1511 104.116L46.8423 105.001C49.9266 105.365 52.9527 104.212 53.585 102.433C53.9271 101.469 53.4998 100.512 52.5428 99.7866Z" fill="#FFDE95"/>
<path d="M43.8994 102.161L42.3545 102.308C42.7277 103.611 44.4617 104.721 46.8425 105.001L47.1513 104.116C45.4229 103.913 44.1716 103.109 43.8994 102.161Z" fill="#023248"/>
<path d="M37.6242 106.472C36.0849 106.286 34.5711 106.862 34.2539 107.758C33.9326 108.649 34.9326 109.521 36.4754 109.703C38.0086 109.886 39.5265 109.308 39.8499 108.421C40.1677 107.522 39.1657 106.651 37.6242 106.472Z" fill="#023248"/>
<path d="M38.2453 104.83C35.1575 104.462 32.1307 105.614 31.5068 107.395C30.8711 109.176 32.8661 110.926 35.9504 111.29C39.0326 111.655 42.0546 110.504 42.6931 108.723C43.3212 106.939 41.3255 105.191 38.2453 104.83ZM36.2551 110.408C34.0184 110.144 32.5635 108.873 33.0295 107.577C33.4879 106.286 35.6886 105.447 37.9337 105.711C40.1745 105.974 41.6322 107.248 41.1683 108.542C40.7029 109.834 38.5043 110.671 36.2551 110.408Z" fill="#73CA74"/>
<path d="M41.6544 106.075L40.446 106.642C41.1128 107.174 41.4113 107.849 41.1689 108.543C40.7029 109.835 38.5043 110.672 36.2551 110.409L35.9497 111.29C39.0319 111.656 42.0539 110.505 42.6924 108.724C43.0331 107.759 42.6079 106.804 41.6544 106.075Z" fill="#F85976"/>
<path d="M33.0013 108.451L31.457 108.598C31.8324 109.903 33.5663 111.013 35.9505 111.29L36.2559 110.408C34.5289 110.203 33.2776 109.398 33.0013 108.451Z" fill="#005478"/>
<path d="M26.1053 99.7811C24.5839 99.5471 23.0189 100.075 22.6117 100.955C22.2114 101.835 23.1103 102.74 24.64 102.972C26.1634 103.208 27.7298 102.68 28.1335 101.798C28.5442 100.922 27.6384 100.013 26.1053 99.7811Z" fill="#FFDE95"/>
<path d="M26.7999 98.163C23.7523 97.6928 20.6181 98.7433 19.8079 100.506C18.9956 102.263 20.821 104.07 23.8589 104.539C26.9024 105.002 30.0386 103.951 30.8488 102.195C31.657 100.443 29.8454 98.627 26.7999 98.163ZM24.2606 103.668C22.0446 103.326 20.7275 102.009 21.3175 100.735C21.9075 99.4566 24.1872 98.6969 26.3989 99.0327C28.6073 99.3651 29.932 100.686 29.3399 101.966C28.7506 103.242 26.473 104.005 24.2606 103.668Z" fill="#005478"/>
<path d="M26.8002 98.1627C25.1528 97.9113 23.4805 98.1011 22.1558 98.6094L23.0705 99.3406C24.0199 98.9847 25.2207 98.8497 26.4007 99.0332C28.609 99.3656 29.9337 100.687 29.3416 101.966L30.8499 102.195C31.6573 100.442 29.8458 98.6267 26.8002 98.1627Z" fill="#FF2456"/>
<path d="M29.3409 101.966C28.8922 102.948 27.4283 103.628 25.7656 103.734L25.9339 104.625C28.2156 104.48 30.219 103.551 30.8491 102.194L29.3409 101.966Z" fill="#023248"/>
<path d="M48.8765 90.7434L42.7931 87.2277C42.4911 87.0552 42.4953 86.7789 42.7945 86.6051C43.0943 86.4292 43.5777 86.4272 43.8789 86.6031L49.9623 90.1146C50.2601 90.2884 50.2622 90.5689 49.9623 90.7434C49.6639 90.9151 49.1743 90.9131 48.8765 90.7434Z" fill="#73CA74"/>
<path d="M47.2276 91.6927L41.142 88.1812C40.8443 88.0053 40.8463 87.729 41.1455 87.5566C41.4474 87.3807 41.9329 87.3786 42.232 87.5524L48.3134 91.0681C48.6132 91.2385 48.6153 91.5203 48.3134 91.6927C48.0121 91.8666 47.5288 91.8645 47.2276 91.6927Z" fill="#F85976"/>
<path d="M45.5598 92.6555L39.4764 89.1439C39.1745 88.9701 39.1807 88.6917 39.4778 88.5172C39.7797 88.3448 40.261 88.3434 40.565 88.5159L46.6463 92.0274C46.9462 92.2012 46.9483 92.4838 46.6463 92.6555C46.3451 92.8293 45.8597 92.8272 45.5598 92.6555Z" fill="#FFDE95"/>
<path d="M61.49 98.0096L55.4052 94.4959C55.1095 94.3256 55.1095 94.0472 55.4066 93.8734C55.7085 93.6975 56.1932 93.6975 56.4951 93.8713L62.5765 97.3829C62.8743 97.5567 62.8778 97.8392 62.5765 98.013C62.2753 98.1855 61.7899 98.1834 61.49 98.0096Z" fill="#023248"/>
<path d="M59.8385 98.9607L53.7572 95.4492C53.4573 95.2767 53.4573 94.9949 53.7606 94.8224C54.0605 94.65 54.5438 94.65 54.8437 94.8204L60.9271 98.334C61.2249 98.5064 61.2284 98.7904 60.9271 98.9642C60.6301 99.1366 60.1384 99.1345 59.8385 98.9607Z" fill="#005478"/>
<path d="M58.1738 99.9236L52.0911 96.412C51.7933 96.2382 51.7933 95.9592 52.0945 95.7853C52.3923 95.6129 52.8777 95.6129 53.1789 95.7833L59.2582 99.2948C59.5581 99.4686 59.5616 99.7512 59.2582 99.927C58.9626 100.1 58.4737 100.098 58.1738 99.9236Z" fill="#73CA74"/>
<path d="M76.6327 87.7383L71.6385 84.8555C71.2784 84.6471 70.6933 84.6471 70.3311 84.8555C69.971 85.064 69.971 85.4019 70.3311 85.6103L75.3274 88.4918C75.6861 88.7002 76.2684 88.7002 76.6327 88.4918C76.9928 88.284 76.9907 87.9454 76.6327 87.7383Z" fill="#C8CDE2"/>
<path d="M91.4766 96.0855L87.6922 93.9C87.3321 93.6909 86.747 93.6909 86.3848 93.9C86.0247 94.1084 86.0247 94.4457 86.3848 94.6548L90.1713 96.8389C90.53 97.0474 91.1124 97.0474 91.4766 96.8389C91.8367 96.6319 91.8353 96.2918 91.4766 96.0855Z" fill="#C8CDE2"/>
<path d="M84.5757 92.2409L79.5829 89.3595C79.2194 89.149 78.6377 89.149 78.2755 89.3595C77.914 89.5666 77.914 89.9038 78.2755 90.1143L83.2683 92.9958C83.6291 93.2042 84.2135 93.2042 84.5757 92.9958C84.9323 92.7852 84.9323 92.4459 84.5757 92.2409Z" fill="#C8CDE2"/>
<path d="M69.0722 83.5644L64.0801 80.6816C63.7173 80.4753 63.1321 80.4753 62.772 80.6816C62.4119 80.8901 62.4119 81.2301 62.772 81.4344L67.7648 84.3179C68.1263 84.5284 68.71 84.5284 69.0722 84.3179C69.4323 84.1108 69.4323 83.7736 69.0722 83.5644Z" fill="#C8CDE2"/>
<path d="M28.7025 121.108L30.3181 120.174C31.1241 119.707 32.4758 119.756 33.3941 120.286L36.351 121.939C36.6577 122.117 36.8939 122.337 37.0324 122.577C37.3467 123.119 37.1528 123.717 36.5518 124.065L34.9362 125C34.1295 125.467 32.7784 125.418 31.8602 124.888L28.9033 123.234C28.5965 123.058 28.3604 122.837 28.2219 122.597C27.9082 122.054 28.1014 121.456 28.7025 121.108Z" fill="#B4BED8"/>
<path d="M28.7023 121.655L30.3179 120.72C31.1239 120.253 32.4757 120.302 33.3939 120.832L36.3508 122.486C36.6576 122.662 36.8937 122.883 37.0322 123.124C37.0855 123.216 37.1042 123.311 37.1291 123.404C37.0426 123.66 36.848 123.894 36.5523 124.065L34.9368 124.999C34.13 125.466 32.779 125.417 31.8607 124.887L28.9038 123.234C28.5971 123.057 28.3609 122.836 28.2224 122.596C28.1684 122.504 28.1504 122.409 28.1255 122.315C28.2114 122.059 28.4059 121.826 28.7023 121.655Z" fill="#C8CDE2"/>
<path d="M112.302 71.606L119.517 75.7726C119.74 75.9014 119.764 76.0953 119.571 76.2061C119.379 76.3176 119.042 76.3031 118.82 76.175L111.604 72.0083C111.382 71.8795 111.358 71.6856 111.55 71.5748C111.743 71.4633 112.079 71.4772 112.302 71.606Z" fill="#023248"/>
<path d="M121.137 76.5371C120.596 76.5371 120.219 76.8203 120.219 77.0745C120.219 77.3286 120.596 77.6118 121.137 77.6118C121.678 77.6118 122.055 77.3286 122.055 77.0745C122.055 76.8203 121.678 76.5371 121.137 76.5371Z" fill="#023248"/>
<path d="M122.874 77.668C122.642 77.668 122.479 77.7892 122.479 77.8986C122.479 78.008 122.641 78.1292 122.874 78.1292C123.106 78.1292 123.268 78.0073 123.268 77.8986C123.268 77.7899 123.106 77.668 122.874 77.668Z" fill="#023248"/>
<path d="M87.7636 59.5489L84.7395 61.5398L83.9272 54.277L86.9513 52.2861L87.7636 59.5489Z" fill="#B4BED8"/>
<path d="M84.7397 61.8857C84.6898 61.8857 84.6392 61.8747 84.5929 61.8532C84.4841 61.8019 84.4094 61.6981 84.3955 61.5783L83.5832 54.3155C83.5687 54.186 83.6282 54.0593 83.737 53.988L86.761 51.9971C86.8621 51.9306 86.9895 51.9216 87.0983 51.9728C87.207 52.0241 87.2818 52.128 87.2956 52.2478L88.1079 59.5105C88.1224 59.64 88.0629 59.7667 87.9542 59.8381L84.9301 61.8289C84.8726 61.8663 84.8061 61.8857 84.7397 61.8857ZM84.2951 54.4492L85.0208 60.9398L87.396 59.3762L86.6703 52.8855L84.2951 54.4492Z" fill="white"/>
<path d="M75.668 26.4388C75.569 26.4042 75.4693 26.3765 75.371 26.3523C75.2512 26.3232 75.1321 26.2996 75.0129 26.2844C74.9326 26.274 74.8537 26.2692 74.7741 26.265C74.6452 26.2588 74.5178 26.2622 74.3925 26.2726C74.3655 26.2747 74.3392 26.2775 74.3129 26.2803C74.1868 26.2934 74.0622 26.3128 73.9403 26.3426C73.9306 26.3447 73.9223 26.3481 73.9126 26.3502C73.7561 26.3897 73.6031 26.4402 73.4556 26.5046C73.4507 26.5067 73.4466 26.5088 73.4417 26.5108C73.2907 26.5773 73.1453 26.6556 73.0068 26.747L76.0309 24.7561C76.1694 24.6654 76.3148 24.5864 76.4658 24.5199C76.4706 24.5179 76.4748 24.5158 76.4796 24.5137C76.6271 24.4493 76.7802 24.3988 76.9367 24.3593C76.9429 24.3579 76.9491 24.3551 76.9554 24.3531C76.9581 24.3524 76.9609 24.3524 76.9644 24.3517C77.0862 24.3226 77.2109 24.3025 77.3369 24.2894C77.3632 24.2866 77.3902 24.2838 77.4166 24.2817C77.5419 24.272 77.6693 24.2686 77.7981 24.2741C77.8043 24.2741 77.8099 24.2734 77.8161 24.2741C77.8895 24.2783 77.9629 24.2845 78.037 24.2942C78.1554 24.3087 78.2752 24.333 78.395 24.3621C78.4033 24.3641 78.4123 24.3648 78.4207 24.3669C78.5107 24.3898 78.6014 24.4168 78.6928 24.4486C78.6983 24.4507 78.7046 24.4535 78.7101 24.4556C78.7939 24.4846 78.877 24.5172 78.9601 24.5539C78.9691 24.558 78.9788 24.5643 78.9878 24.5684C79.109 24.6231 79.2309 24.6841 79.3507 24.7554L118.27 47.6122C118.32 47.6412 118.369 47.6717 118.418 47.7036C118.521 47.7707 118.62 47.8435 118.717 47.9203C118.729 47.93 118.74 47.9411 118.753 47.9508C118.827 48.011 118.9 48.0727 118.97 48.1384C119.004 48.171 119.034 48.2077 119.067 48.2409C119.11 48.2832 119.15 48.3261 119.191 48.3704C119.271 48.4591 119.347 48.5518 119.42 48.6467C119.452 48.6883 119.486 48.7284 119.516 48.7714C119.615 48.9106 119.708 49.0553 119.791 49.2056C119.795 49.2132 119.799 49.2222 119.803 49.2298C119.88 49.3738 119.949 49.522 120.011 49.6751C120.032 49.7256 120.049 49.7775 120.068 49.8295C120.109 49.943 120.147 50.0573 120.179 50.1743C120.195 50.2332 120.211 50.2921 120.224 50.3516C120.252 50.47 120.274 50.5898 120.292 50.711C120.3 50.7657 120.31 50.819 120.316 50.8744C120.335 51.0489 120.346 51.2241 120.344 51.4014L119.954 65.9082C119.937 67.2212 119.339 68.2571 118.473 68.8277L115.449 70.8186C116.315 70.248 116.912 69.212 116.93 67.8991L117.32 53.3923C117.323 53.2157 117.311 53.0398 117.292 52.8653C117.286 52.8106 117.276 52.7566 117.268 52.7019C117.25 52.5814 117.228 52.4616 117.2 52.3432C117.186 52.2836 117.171 52.2241 117.155 52.1652C117.123 52.0489 117.085 51.9339 117.044 51.8211C117.025 51.7691 117.008 51.7172 116.987 51.6659C116.925 51.5136 116.856 51.364 116.778 51.22C116.774 51.2124 116.771 51.2048 116.767 51.1971C116.684 51.0462 116.591 50.9015 116.492 50.7623C116.462 50.72 116.428 50.6798 116.396 50.6383C116.324 50.5427 116.247 50.4499 116.166 50.3613C116.126 50.317 116.085 50.2741 116.043 50.2318C115.941 50.1307 115.838 50.0317 115.727 49.9424C115.715 49.9327 115.704 49.9216 115.692 49.9119C115.55 49.799 115.401 49.6951 115.245 49.6037L76.3259 26.747C76.2054 26.6756 76.0842 26.6154 75.963 26.56C75.8702 26.5185 75.7775 26.4804 75.6854 26.4471C75.6791 26.4437 75.6743 26.4409 75.668 26.4388Z" fill="#B4BED8"/>
<path d="M115.45 71.1628C115.337 71.1628 115.227 71.1081 115.16 71.007C115.055 70.8477 115.099 70.6324 115.259 70.5278C116.086 69.9828 116.569 69.023 116.585 67.8929L116.974 53.382C116.976 53.2234 116.965 53.062 116.948 52.9021L116.934 52.8106C116.909 52.6403 116.889 52.5302 116.864 52.4215C116.85 52.3654 116.837 52.3107 116.821 52.2567C116.792 52.15 116.757 52.0434 116.719 51.9395L116.667 51.7976C116.609 51.6563 116.546 51.5185 116.474 51.3855C116.387 51.2249 116.301 51.0912 116.209 50.9631L116.16 50.8987C116.054 50.7609 115.984 50.6764 115.91 50.5954C115.873 50.5538 115.835 50.5151 115.797 50.4763C115.705 50.3835 115.61 50.2935 115.509 50.2111C115.348 50.0802 115.211 49.986 115.069 49.9022L76.1505 27.0455C76.0411 26.9804 75.931 26.9257 75.8202 26.8758C75.7364 26.8384 75.6526 26.8038 75.5689 26.774L75.6672 26.4409L75.5529 26.7678C75.465 26.7373 75.3763 26.7124 75.2877 26.6909C75.1804 26.6646 75.0737 26.6438 74.9678 26.63C74.8972 26.621 74.8265 26.6161 74.7566 26.6134C74.6437 26.6085 74.5294 26.6113 74.4186 26.6203C74.4186 26.6203 74.3494 26.6272 74.348 26.6272C74.2372 26.639 74.1271 26.6563 74.0198 26.6819C73.8577 26.7235 73.722 26.7685 73.5918 26.8253C73.4485 26.889 73.3211 26.9568 73.2006 27.0365L73.1957 27.0399C73.0365 27.1452 72.8211 27.1009 72.7165 26.9416C72.612 26.7823 72.6556 26.567 72.8149 26.4617C72.8162 26.461 72.8176 26.4596 72.819 26.4589L75.8382 24.4708C75.9927 24.369 76.1554 24.2818 76.3237 24.207C76.5037 24.128 76.6741 24.0713 76.8499 24.027C76.8659 24.0228 76.9019 24.0138 76.9185 24.0124C77.0168 23.9861 77.156 23.9646 77.2966 23.9487L77.3832 23.9404C77.5279 23.9286 77.6692 23.9245 77.8125 23.9321C77.915 23.9362 77.9974 23.9439 78.0791 23.9542C78.2093 23.9709 78.3422 23.9972 78.4745 24.029C78.6026 24.0595 78.703 24.09 78.8034 24.1246C78.9142 24.1648 79.0056 24.1994 79.0971 24.2402C79.2598 24.3157 79.3927 24.3822 79.5243 24.4598L118.443 47.3165C118.498 47.3484 118.552 47.3816 118.605 47.4169C118.717 47.4896 118.825 47.5692 118.931 47.6523C119.05 47.7521 119.129 47.8185 119.205 47.8892C119.231 47.9134 119.255 47.9397 119.28 47.9667C119.356 48.0457 119.4 48.0914 119.444 48.1392C119.532 48.2361 119.614 48.3358 119.693 48.439L119.796 48.5741C119.903 48.7243 120.003 48.8794 120.093 49.0422C120.189 49.2236 120.264 49.3835 120.33 49.5477L120.374 49.6654C120.435 49.8351 120.476 49.959 120.511 50.0844C120.528 50.1474 120.545 50.2111 120.56 50.2755C120.59 50.4029 120.613 50.5317 120.632 50.6619L120.658 50.8378C120.678 51.0261 120.69 51.2159 120.688 51.407L120.298 65.9186C120.28 67.2773 119.683 68.4448 118.661 69.1179L115.637 71.1088C115.581 71.1441 115.515 71.1628 115.45 71.1628ZM75.7814 26.112C75.7898 26.1148 75.8022 26.1196 75.8085 26.1224C75.9026 26.1556 76.0037 26.1972 76.1048 26.2429C76.2378 26.3031 76.3707 26.3696 76.5023 26.4472L115.421 49.3039C115.592 49.4043 115.754 49.5172 115.909 49.6398C116.067 49.7707 116.18 49.8773 116.289 49.9867C116.335 50.0331 116.38 50.0802 116.424 50.1287C116.51 50.2228 116.593 50.3233 116.672 50.4271L116.774 50.5601C116.881 50.711 116.981 50.8669 117.071 51.0296C117.167 51.2089 117.241 51.3696 117.308 51.5337L117.352 51.6535C117.413 51.8225 117.453 51.945 117.488 52.0711C117.506 52.1355 117.522 52.1992 117.537 52.2636C117.567 52.391 117.591 52.5198 117.609 52.6507L117.636 52.8259C117.657 53.0149 117.669 53.2047 117.666 53.3965L117.276 67.9068C117.268 68.4317 117.175 68.9282 117.004 69.3783L118.282 68.5376C119.109 67.9926 119.592 67.0328 119.607 65.9027L119.997 51.3911C119.999 51.2332 119.988 51.0718 119.971 50.9112L119.957 50.8156C119.932 50.6494 119.912 50.5393 119.886 50.4299C119.873 50.3738 119.859 50.3198 119.844 50.2658C119.814 50.1584 119.78 50.0525 119.742 49.9486L119.689 49.8053C119.631 49.664 119.568 49.5269 119.496 49.3946C119.409 49.2333 119.323 49.1003 119.232 48.9715L119.181 48.9051C119.076 48.7693 119.006 48.6841 118.932 48.6017L118.819 48.484C118.816 48.4813 118.773 48.4348 118.769 48.4314C118.666 48.3296 118.598 48.2735 118.531 48.2181C118.411 48.1205 118.321 48.0547 118.227 47.993C118.184 47.964 118.139 47.937 118.093 47.91L79.1732 25.0525C79.0638 24.9874 78.9537 24.9327 78.8429 24.8829C78.7425 24.8372 78.6677 24.8081 78.5922 24.7818C78.4953 24.7478 78.4143 24.7229 78.3339 24.7028C78.2038 24.6723 78.0978 24.6509 77.9918 24.6377C77.9254 24.6294 77.8603 24.6232 77.7945 24.6197C77.6643 24.6142 77.5521 24.6183 77.4406 24.6273L77.3693 24.6343C77.2606 24.646 77.1505 24.6633 77.0432 24.689C76.8804 24.7305 76.7454 24.7755 76.6152 24.8323C76.4698 24.8967 76.341 24.966 76.2191 25.047L74.8833 25.9264C74.9401 25.9306 74.9969 25.9354 75.0537 25.9424C75.1852 25.959 75.3175 25.9853 75.4504 26.0178C75.5619 26.0428 75.672 26.0732 75.7814 26.112Z" fill="white"/>
<path d="M75.0128 26.2844C73.1978 26.0552 71.5553 27.4762 71.5255 29.6665L71.1356 44.1726C71.1149 45.7162 71.9355 47.2085 73.2103 47.9612L84.7388 61.5387L83.9265 54.2759L112.129 70.8179C112.563 71.0742 113.008 71.2231 113.443 71.2785C115.258 71.5077 116.9 70.0867 116.93 67.8964L117.32 53.3896C117.341 51.846 116.521 50.3503 115.245 49.601L76.3265 26.7442C75.8923 26.4887 75.447 26.3391 75.0128 26.2844Z" fill="#C8CDE2"/>
<path d="M113.83 71.6501C113.687 71.6501 113.544 71.6411 113.4 71.6231C112.903 71.5607 112.416 71.3904 111.954 71.1175L84.3483 54.9252L85.0837 61.5011C85.1003 61.6527 85.0165 61.7974 84.8766 61.8577C84.7375 61.9186 84.5747 61.8798 84.475 61.7642L72.9833 48.2303C71.6267 47.4035 70.7673 45.8163 70.7895 44.1696L71.1794 29.6587C71.1953 28.4759 71.6489 27.4351 72.4563 26.7329C73.1799 26.1028 74.1072 25.8223 75.0559 25.9421C75.5524 26.0044 76.0385 26.1748 76.5018 26.4476L115.421 49.3044C116.807 50.1194 117.689 51.7253 117.666 53.3962L117.276 67.9072C117.26 69.09 116.806 70.1308 115.999 70.8329C115.385 71.3668 114.628 71.6501 113.83 71.6501ZM83.9272 53.9308C83.9875 53.9308 84.0484 53.9468 84.1025 53.9786L112.305 70.5206C112.687 70.7457 113.084 70.8849 113.487 70.9361C114.244 71.0324 114.973 70.8094 115.546 70.3101C116.202 69.7388 116.572 68.8808 116.585 67.8927L116.975 53.3817C116.994 51.9593 116.247 50.5917 115.071 49.9006L76.1521 27.0438C75.7705 26.8188 75.373 26.6796 74.9707 26.6284C74.2152 26.5335 73.4853 26.7558 72.9119 27.2543C72.2555 27.8256 71.8864 28.6843 71.8732 29.6718L71.4833 44.1828C71.4647 45.601 72.2118 46.9693 73.3877 47.6639C73.4209 47.6833 73.4507 47.7082 73.4756 47.738L84.27 60.4506L83.5838 54.3152C83.5692 54.185 83.6295 54.0576 83.7396 53.9862C83.7964 53.9495 83.8615 53.9308 83.9272 53.9308Z" fill="white"/>
<path d="M87.0889 47.1566V41.168L87.6422 41.5211V47.509L87.0889 47.1566Z" fill="#005478"/>
<path d="M88.4229 47.6475V42.375L88.9768 42.7275V48.0007L88.4229 47.6475Z" fill="#005478"/>
<path d="M89.7563 47.8271V43.8945L90.3103 44.2477V48.1803L89.7563 47.8271Z" fill="#005478"/>
<path d="M91.0903 49.346V44.0728L91.6443 44.4259V49.6992L91.0903 49.346Z" fill="#005478"/>
<path d="M92.4243 49.5254V45.5928L92.9783 45.9459V49.8779L92.4243 49.5254Z" fill="#005478"/>
<path d="M93.7583 51.0447V45.7715L94.3123 46.1253V51.3979L93.7583 51.0447Z" fill="#005478"/>
<path d="M95.0928 51.2234V47.2915L95.6461 47.644V51.5766L95.0928 51.2234Z" fill="#005478"/>
<path d="M103.097 57.3479V51.3594L103.651 51.7125V57.7004L103.097 57.3479Z" fill="#005478"/>
<path d="M104.43 57.839V52.5664L104.984 52.9189V58.1921L104.43 57.839Z" fill="#005478"/>
<path d="M105.764 58.0181V54.0854L106.319 54.4386V58.3712L105.764 58.0181Z" fill="#005478"/>
<path d="M107.098 59.5374V54.2642L107.652 54.6173V59.8906L107.098 59.5374Z" fill="#005478"/>
<path d="M108.432 59.7161V55.7842L108.986 56.1374V60.0693L108.432 59.7161Z" fill="#005478"/>
<path d="M109.766 61.2362V55.9629L110.319 56.3161V61.5893L109.766 61.2362Z" fill="#005478"/>
<path d="M111.1 61.4145V57.4819L111.654 57.8351V61.7677L111.1 61.4145Z" fill="#005478"/>
<path d="M112.435 62.2643V58.3311L112.988 58.6849V62.6168L112.435 62.2643Z" fill="#005478"/>
<path d="M96.4268 52.7017V47.5122L96.9807 47.8654V53.0542L96.4268 52.7017Z" fill="#005478"/>
<path d="M99.0942 53.5653V50.0454L99.6489 50.3986V53.9178L99.0942 53.5653Z" fill="#005478"/>
<path d="M97.7603 54.3946V47.5176L98.3142 47.8707V54.7485L97.7603 54.3946Z" fill="#005478"/>
<path d="M83.0864 44.2088V39.02L83.6404 39.3725V44.5619L83.0864 44.2088Z" fill="#005478"/>
<path d="M84.4199 45.9024V39.0254L84.9739 39.3779V46.2556L84.4199 45.9024Z" fill="#005478"/>
<path d="M85.7549 47.9769V38.6484L86.3089 39.0016V48.33L85.7549 47.9769Z" fill="#005478"/>
<path d="M100.428 57.3187V47.9902L100.982 48.3434V57.6718L100.428 57.3187Z" fill="#005478"/>
<path d="M101.762 58.9302V48.0776L102.316 48.4308V59.2834L101.762 58.9302Z" fill="#005478"/>
<path d="M79.1665 40.4922C79.4012 39.1606 78.8209 37.4529 77.8812 36.6718C76.9374 35.8976 75.9838 36.3477 75.7456 37.678C75.5143 39.0083 76.087 40.7187 77.0329 41.4936C77.9802 42.2726 78.9324 41.819 79.1665 40.4922Z" fill="#FFDE95"/>
<path d="M80.8436 41.8371C81.3131 39.1822 80.1601 35.7634 78.2697 34.2115C76.3861 32.6569 74.4763 33.5544 74.0123 36.2142C73.54 38.8678 74.6978 42.288 76.5814 43.8433C78.4719 45.3937 80.3804 44.49 80.8436 41.8371ZM74.9395 36.9787C75.2795 35.0508 76.6742 34.3964 78.0453 35.5238C79.4088 36.6498 80.2529 39.1399 79.9143 41.0713C79.5764 43.0005 78.1803 43.657 76.8127 42.5282C75.4437 41.4016 74.6051 38.9107 74.9395 36.9787Z" fill="#005478"/>
<path d="M78.27 34.2117C77.2479 33.3731 76.2251 33.2539 75.4204 33.7352L75.9972 35.161C76.5817 34.8286 77.3123 34.927 78.0456 35.5239C79.4091 36.6499 80.2532 39.14 79.9146 41.0714L80.8439 41.8373C81.3141 39.1823 80.1604 35.7628 78.27 34.2117Z" fill="#F85976"/>
<path d="M80.8438 41.8367L79.9145 41.0708C79.6499 42.5583 78.7684 43.2916 77.7456 43.0264L77.8626 44.5284C79.267 44.8905 80.4858 43.8892 80.8438 41.8367Z" fill="#73CA74"/>
<path d="M99.1084 68.4566C99.0087 68.4219 98.9097 68.3942 98.8106 68.37C98.6908 68.3409 98.5717 68.3174 98.4526 68.3022C98.373 68.2918 98.2933 68.2862 98.2137 68.2828C98.0849 68.2765 97.9575 68.28 97.8315 68.2904C97.8051 68.2925 97.7788 68.2952 97.7518 68.298C97.6258 68.3118 97.5011 68.3312 97.3793 68.3603C97.3703 68.3624 97.3613 68.3659 97.3523 68.3679C97.1951 68.4074 97.042 68.458 96.8945 68.5224C96.8904 68.5244 96.8855 68.5265 96.8807 68.5286C96.7297 68.5951 96.5843 68.6733 96.4458 68.7647L99.4699 66.7738C99.6084 66.6824 99.7538 66.6042 99.9047 66.5377C99.9096 66.5356 99.9138 66.5329 99.9186 66.5308C100.066 66.4671 100.219 66.4158 100.376 66.3764C100.382 66.375 100.388 66.3715 100.394 66.3701C100.397 66.3694 100.401 66.3694 100.403 66.3687C100.525 66.3397 100.649 66.3203 100.776 66.3064C100.803 66.3037 100.829 66.3009 100.856 66.2988C100.982 66.2884 101.108 66.285 101.237 66.2912C101.243 66.2912 101.249 66.2905 101.255 66.2912C101.328 66.2947 101.402 66.3016 101.476 66.3106C101.594 66.3258 101.714 66.3493 101.833 66.3784C101.842 66.3805 101.851 66.3812 101.86 66.3833C101.95 66.4061 102.04 66.4331 102.131 66.465C102.137 66.4671 102.143 66.4698 102.148 66.4719C102.232 66.501 102.315 66.5329 102.398 66.5703C102.408 66.5744 102.417 66.5806 102.426 66.5848C102.548 66.6402 102.669 66.7004 102.79 66.7718L134.294 85.3019C134.345 85.331 134.394 85.3614 134.442 85.3933C134.545 85.4605 134.644 85.5332 134.741 85.6101C134.754 85.6198 134.765 85.6308 134.777 85.6405C134.852 85.7008 134.925 85.7624 134.994 85.8282C135.028 85.86 135.059 85.8974 135.092 85.9306C135.134 85.9729 135.175 86.0158 135.215 86.0602C135.296 86.1488 135.372 86.2416 135.445 86.3372C135.477 86.3787 135.51 86.4189 135.541 86.4611C135.64 86.601 135.733 86.745 135.815 86.896C135.82 86.9036 135.823 86.9119 135.827 86.9202C135.905 87.0643 135.974 87.2125 136.036 87.3648C136.056 87.4154 136.074 87.4673 136.092 87.5192C136.134 87.6328 136.171 87.747 136.204 87.8634C136.221 87.9222 136.235 87.9811 136.249 88.0414C136.277 88.1598 136.298 88.2796 136.316 88.4007C136.324 88.4554 136.334 88.5088 136.34 88.5635C136.36 88.738 136.371 88.9139 136.369 89.0905L135.979 103.597C135.962 104.91 135.364 105.947 134.498 106.517L131.473 108.508C132.339 107.937 132.937 106.901 132.954 105.588L133.344 91.0814C133.346 90.9048 133.335 90.7289 133.316 90.5544C133.309 90.4996 133.3 90.4456 133.291 90.3916C133.273 90.2711 133.252 90.1507 133.224 90.0322C133.21 89.9727 133.195 89.9131 133.179 89.8543C133.147 89.7379 133.109 89.6237 133.068 89.5101C133.05 89.4582 133.032 89.4062 133.012 89.355C132.949 89.2026 132.881 89.0531 132.802 88.909C132.798 88.9014 132.796 88.8938 132.791 88.8862C132.708 88.7352 132.616 88.5912 132.516 88.4513C132.486 88.4084 132.452 88.3689 132.42 88.3273C132.348 88.2318 132.271 88.139 132.19 88.0504C132.15 88.0067 132.109 87.9638 132.067 87.9209C131.966 87.8191 131.863 87.7208 131.752 87.6314C131.74 87.621 131.728 87.6106 131.717 87.6009C131.575 87.4881 131.426 87.3842 131.269 87.2928L99.7649 68.7633C99.6444 68.692 99.5232 68.6318 99.4013 68.5764C99.3092 68.5348 99.2157 68.4967 99.1236 68.4642C99.1202 68.4614 99.1139 68.458 99.1084 68.4566Z" fill="#5B5C70"/>
<path d="M131.475 108.854C131.362 108.854 131.252 108.799 131.186 108.698C131.08 108.539 131.125 108.323 131.285 108.219C132.112 107.674 132.595 106.714 132.61 105.584L133 91.072C133.002 90.9142 132.992 90.7528 132.974 90.5922L132.96 90.4966C132.935 90.3311 132.915 90.2203 132.889 90.1116L132.847 89.9461C132.818 89.8387 132.782 89.7328 132.744 89.6289L132.692 89.4863C132.635 89.3457 132.572 89.2072 132.5 89.0742C132.413 88.915 132.328 88.782 132.236 88.6532L132.183 88.5847C132.08 88.451 132.01 88.3658 131.936 88.2834L131.823 88.1657C131.731 88.0722 131.636 87.9829 131.535 87.9005C131.374 87.7703 131.238 87.6754 131.096 87.5916L99.5911 69.0622C99.4817 68.9978 99.3716 68.9424 99.2608 68.8925C99.177 68.8545 99.0932 68.8205 99.0101 68.7907L99.1078 68.457L98.9949 68.7845C98.9056 68.754 98.8162 68.7291 98.7276 68.707C98.621 68.6806 98.515 68.6599 98.4097 68.6467C98.3384 68.6377 98.2678 68.6329 98.1978 68.6294C98.085 68.6252 97.9714 68.6273 97.8599 68.6363L97.7588 68.3171L97.7553 68.3192L97.79 68.6426C97.6785 68.6543 97.5684 68.6717 97.461 68.6973C97.2997 68.7388 97.164 68.7838 97.0345 68.8406C96.8891 68.905 96.7603 68.9743 96.6384 69.0553C96.4791 69.1605 96.2637 69.1162 96.1592 68.9563C96.0539 68.797 96.0982 68.5816 96.2582 68.4771L99.2823 66.4862C99.4374 66.3844 99.5994 66.2971 99.7677 66.2223C99.9484 66.1434 100.119 66.0859 100.294 66.0423C100.462 66.0007 100.6 65.9793 100.741 65.964L100.831 65.955C100.971 65.9433 101.112 65.9391 101.256 65.9467C101.357 65.9509 101.439 65.9585 101.521 65.9682C101.654 65.9848 101.786 66.0111 101.919 66.0437C102.047 66.0742 102.146 66.1039 102.246 66.1385C102.358 66.1787 102.45 66.214 102.542 66.2549C102.705 66.3304 102.836 66.3968 102.968 66.473L134.473 85.0031C134.529 85.0364 134.582 85.0696 134.635 85.1042C134.747 85.177 134.855 85.2566 134.96 85.3397C135.08 85.4387 135.16 85.5052 135.235 85.5765C135.26 85.6001 135.284 85.6257 135.308 85.652C135.386 85.733 135.431 85.7794 135.474 85.8272C135.561 85.9228 135.643 86.0232 135.723 86.1264L135.825 86.26C135.933 86.4117 136.033 86.5668 136.122 86.7295C136.219 86.9102 136.293 87.0702 136.36 87.2343L136.403 87.3513C136.466 87.5224 136.506 87.6457 136.541 87.771C136.558 87.834 136.575 87.8977 136.59 87.9628C136.619 88.0895 136.643 88.219 136.662 88.3492C136.676 88.4399 136.683 88.4829 136.687 88.5265C136.708 88.7135 136.72 88.9032 136.718 89.0943L136.328 103.605C136.31 104.964 135.713 106.131 134.691 106.805L131.666 108.795C131.607 108.836 131.54 108.854 131.475 108.854ZM98.3266 67.9431C98.3834 67.9466 98.4402 67.9522 98.497 67.9591C98.6279 67.9757 98.7608 68.0013 98.8938 68.0339C99.0032 68.0609 99.1119 68.0913 99.2213 68.1287C99.222 68.1287 99.2227 68.1287 99.2241 68.1294C99.2324 68.1322 99.249 68.1391 99.2573 68.1433C99.3432 68.1724 99.445 68.2146 99.5468 68.261C99.6784 68.3199 99.8106 68.387 99.9429 68.4639L131.447 86.9934C131.618 87.0931 131.78 87.2059 131.934 87.3292C132.093 87.4601 132.206 87.5667 132.315 87.6768C132.36 87.7218 132.404 87.7682 132.447 87.816C132.535 87.9137 132.618 88.0134 132.697 88.1172L132.8 88.2509C132.906 88.4005 133.007 88.5562 133.096 88.719C133.192 88.899 133.267 89.0597 133.334 89.2238L133.378 89.3429C133.439 89.5126 133.48 89.6358 133.514 89.7612C133.532 89.8256 133.548 89.8893 133.563 89.953C133.593 90.0804 133.616 90.2092 133.636 90.3394L133.661 90.5153C133.682 90.7037 133.694 90.8941 133.692 91.0852L133.302 105.597C133.295 106.121 133.201 106.618 133.03 107.068L134.308 106.227C135.135 105.683 135.618 104.722 135.633 103.592L136.023 89.0812C136.025 88.9233 136.015 88.7619 135.997 88.6013L135.983 88.5078C135.957 88.3395 135.938 88.2294 135.912 88.1207C135.899 88.0646 135.886 88.0113 135.871 87.9573C135.841 87.8485 135.807 87.7433 135.768 87.6394L135.716 87.4961C135.659 87.3555 135.596 87.2184 135.524 87.0855C135.437 86.9234 135.351 86.7904 135.259 86.6623L135.21 86.5979C135.104 86.4601 135.035 86.3757 134.96 86.2939C134.923 86.2531 134.886 86.2136 134.847 86.1755C134.844 86.172 134.798 86.1243 134.796 86.1201C134.694 86.0211 134.627 85.965 134.559 85.9096C134.439 85.8113 134.348 85.7455 134.255 85.6838L134.119 85.5994L102.616 67.0706C102.506 67.0062 102.396 66.9508 102.285 66.901C102.185 66.8553 102.11 66.8262 102.036 66.7999C101.938 66.7652 101.857 66.741 101.775 66.7202C101.645 66.6898 101.539 66.669 101.433 66.6551C101.369 66.6468 101.304 66.6406 101.239 66.6378C101.108 66.6316 100.995 66.6357 100.884 66.6447C100.883 66.6447 100.814 66.6517 100.813 66.6517C100.702 66.6634 100.592 66.6808 100.484 66.7064C100.322 66.7479 100.187 66.7929 100.056 66.8497C99.9124 66.9141 99.7829 66.9834 99.6611 67.0637L98.3266 67.9431ZM97.826 68.2721L97.8322 68.2901L97.8308 68.2686L97.826 68.2721Z" fill="#F2F7FA"/>
<path d="M98.4531 68.3025C96.6381 68.0733 94.9955 69.4943 94.9664 71.6846L94.5766 86.1914C94.5558 87.7349 95.3757 89.2272 96.6512 89.98L117.366 102.172L112.702 106.102L128.156 108.509C128.59 108.766 129.035 108.914 129.469 108.97C131.284 109.199 132.927 107.778 132.957 105.588L133.347 91.081C133.367 89.5374 132.547 88.041 131.272 87.2924L99.7674 68.763C99.3318 68.5068 98.888 68.3572 98.4531 68.3025Z" fill="#B4BED8"/>
<path d="M129.855 109.341C129.713 109.341 129.569 109.332 129.425 109.314C128.95 109.254 128.483 109.095 128.038 108.842L112.648 106.445C112.514 106.424 112.404 106.327 112.368 106.197C112.331 106.066 112.374 105.926 112.478 105.839L116.768 102.225L96.475 90.2793C95.0886 89.4608 94.2071 87.8549 94.2299 86.1874L94.6198 71.6757C94.6357 70.493 95.0886 69.4529 95.896 68.75C96.6204 68.1198 97.5462 67.8394 98.4963 67.9592C98.9928 68.0215 99.4789 68.1919 99.9422 68.4647L131.447 86.9941C132.833 87.8085 133.714 89.4151 133.692 91.086L133.302 105.598C133.286 106.78 132.832 107.821 132.025 108.523C131.411 109.057 130.653 109.341 129.855 109.341ZM113.507 105.877L128.209 108.167C128.252 108.174 128.293 108.189 128.331 108.211C128.712 108.435 129.11 108.575 129.513 108.626C130.27 108.722 130.999 108.499 131.571 108C132.228 107.429 132.597 106.571 132.61 105.582L133 91.0708C133.019 89.6491 132.272 88.2808 131.096 87.5904L99.5918 69.0609C99.2096 68.8359 98.8128 68.6967 98.4097 68.6454C97.6563 68.5499 96.9244 68.7729 96.351 69.2714C95.6945 69.8427 95.3261 70.7007 95.3123 71.6889L94.9224 86.2006C94.903 87.6188 95.6502 88.9871 96.8267 89.6817L117.541 101.875C117.638 101.932 117.701 102.032 117.711 102.144C117.72 102.256 117.675 102.366 117.589 102.438L113.507 105.877Z" fill="white"/>
<path d="M128.813 95.3463V100.536L128.259 100.183V94.9932L128.813 95.3463Z" fill="#005478"/>
<path d="M126.145 94.4831V98.0029L125.591 97.6498V94.1299L126.145 94.4831Z" fill="#005478"/>
<path d="M124.811 93.8515V96.9358L124.256 96.5826V93.499L124.811 93.8515Z" fill="#005478"/>
<path d="M123.477 93.4107V95.678L122.923 95.3248V93.0576L123.477 93.4107Z" fill="#005478"/>
<path d="M118.141 88.1533V94.1419L117.587 93.7887V87.8008L118.141 88.1533Z" fill="#005478"/>
<path d="M116.807 87.6615V92.9348L116.253 92.5816V87.3091L116.807 87.6615Z" fill="#005478"/>
<path d="M115.473 87.4826V91.4152L114.919 91.0627V87.1294L115.473 87.4826Z" fill="#005478"/>
<path d="M114.139 85.9628V91.2368L113.585 90.8836V85.6104L114.139 85.9628Z" fill="#005478"/>
<path d="M112.805 85.7841V89.7167L112.251 89.3635V85.4316L112.805 85.7841Z" fill="#005478"/>
<path d="M111.471 84.2648V89.5373L110.917 89.1849V83.9116L111.471 84.2648Z" fill="#005478"/>
<path d="M110.136 84.0854V88.018L109.583 87.6648V83.7329L110.136 84.0854Z" fill="#005478"/>
<path d="M127.478 93.6535V100.531L126.924 100.178V93.3003L127.478 93.6535Z" fill="#005478"/>
<path d="M108.803 82.6081V87.7968L108.249 87.4437V82.2549L108.803 82.6081Z" fill="#005478"/>
<path d="M106.135 81.7441V85.264L105.581 84.9108V81.3916L106.135 81.7441Z" fill="#005478"/>
<path d="M107.469 80.9142V87.7919L106.915 87.4388V80.561L107.469 80.9142Z" fill="#005478"/>
<path d="M122.143 91.1002V96.2897L121.589 95.9372V90.7471L122.143 91.1002Z" fill="#005478"/>
<path d="M120.809 89.4074V96.2851L120.255 95.9319V89.0542L120.809 89.4074Z" fill="#005478"/>
<path d="M119.475 87.3325V96.6609L118.921 96.3077V86.98L119.475 87.3325Z" fill="#005478"/>
<path d="M102.625 81.7187C102.617 80.1661 101.859 78.7375 100.931 78.5326C100.007 78.3269 99.2642 79.4259 99.276 80.9819C99.2829 82.5261 100.047 83.9602 100.966 84.1687C101.895 84.3674 102.639 83.2726 102.625 81.7187Z" fill="#005478"/>
<path d="M104.331 82.1301C104.309 79.0209 102.791 76.1637 100.945 75.76C99.0969 75.3507 97.6129 77.5487 97.633 80.6544C97.6566 83.7595 99.1765 86.6188 101.021 87.0246C102.871 87.4311 104.356 85.2297 104.331 82.1301ZM98.5506 80.8504C98.5325 78.5978 99.608 76.9933 100.953 77.2904C102.297 77.5937 103.403 79.6683 103.418 81.9314C103.436 84.1875 102.353 85.7871 101.01 85.4921C99.6696 85.1909 98.5672 83.1114 98.5506 80.8504Z" fill="#F85976"/>
<path d="M103.518 85.6604L102.806 84.5359C102.36 85.2664 101.731 85.6466 101.01 85.4922C99.6701 85.1903 98.567 83.1114 98.5503 80.8505L97.6328 80.6538C97.6564 83.7589 99.1763 86.6181 101.02 87.0239C102.021 87.2441 102.917 86.7005 103.518 85.6604Z" fill="#FFDE95"/>
<path d="M100.085 77.3804L99.747 75.8652C98.5006 76.3984 97.6149 78.2571 97.6336 80.6545L98.5511 80.8511C98.5366 79.1102 99.1785 77.7689 100.085 77.3804Z" fill="#023248"/>
<path d="M140.691 113.626C140.037 112.589 138.636 111.707 137.33 112.507C137.33 112.507 97.069 135.415 96.864 135.79C96.6493 136.18 96.4056 136.687 96.7643 137.362C97.1327 138.035 97.6991 138.134 98.1513 138.134C99.6166 138.134 139.552 117.209 139.552 117.209C140.866 116.413 141.432 114.8 140.691 113.626Z" fill="#C8CDE2"/>
<path d="M98.1528 138.48C97.8641 138.48 96.984 138.48 96.4625 137.527C95.9972 136.651 96.3642 135.982 96.5622 135.623C96.6239 135.509 96.8136 135.163 137.16 112.205C138.583 111.334 140.196 112.189 140.984 113.441C141.347 114.017 141.456 114.72 141.29 115.421C141.091 116.265 140.524 117.025 139.732 117.505C133.032 121.016 99.6278 138.48 98.1528 138.48ZM97.1377 136.014C96.9438 136.376 96.8184 136.723 97.0712 137.199C97.3551 137.717 97.7775 137.788 98.1528 137.788C99.4776 137.622 123.544 125.207 139.393 116.902C140.007 116.529 140.46 115.927 140.617 115.262C140.741 114.736 140.666 114.234 140.399 113.811C139.911 113.037 138.696 112.079 137.512 112.802C124.022 120.478 98.4555 135.075 97.1377 136.014Z" fill="white"/>
<path d="M100.736 135.362L100.634 135.225C100.319 134.891 99.332 134.118 97.641 135.214C96.6023 135.887 93.8864 137.835 91.712 139.407C91.1988 139.778 91.6199 140.578 92.2168 140.366C94.7554 139.463 97.9173 138.321 99.0592 137.841C100.916 137.062 100.834 135.811 100.736 135.362Z" fill="#B4BED8"/>
<path d="M92.0206 140.747C91.6993 140.747 91.4022 140.572 91.2415 140.266C91.0289 139.863 91.1397 139.394 91.5088 139.127C93.6396 137.586 96.3998 135.606 97.4524 134.924C99.3941 133.664 100.571 134.654 100.886 134.987L101.014 135.157C101.043 135.196 101.063 135.24 101.073 135.288C101.172 135.735 101.328 137.265 99.1926 138.161C98.0362 138.647 94.8237 139.805 92.3322 140.692C92.2283 140.729 92.1231 140.747 92.0206 140.747ZM99.2875 134.995C98.9024 134.995 98.4184 135.123 97.8291 135.505C96.789 136.179 94.0385 138.152 91.9146 139.688C91.7872 139.78 91.8301 139.898 91.8544 139.944C91.8786 139.991 91.9485 140.093 92.1002 140.04C94.5834 139.156 97.7834 138.002 98.9246 137.523C100.436 136.888 100.485 135.947 100.411 135.506L100.355 135.431C100.202 135.271 99.8512 134.995 99.2875 134.995Z" fill="white"/>
</svg>
