<svg width="227" height="158" viewBox="0 0 227 158" fill="none" xmlns="http://www.w3.org/2000/svg">
<path d="M113.195 157.78C175.711 157.78 226.39 156.486 226.39 154.89C226.39 153.293 175.711 152 113.195 152C50.6791 152 0 153.293 0 154.89C0 156.486 50.6791 157.78 113.195 157.78Z" fill="#EDF1F4"/>
<path d="M56.2335 42.7559H89.7821C89.0016 40.3462 86.2495 39.0932 83.8852 40.0311C82.6516 38.2976 81.1007 36.4152 78.9558 35.8958C77.2834 35.4909 75.9836 36.1454 74.5406 34.6262C73.7444 33.7882 73.2229 32.9575 72.1374 32.418C67.9892 30.3579 63.8373 33.2574 62.7101 37.2762C61.7815 36.2411 60.2343 35.9297 58.8482 36.5166C56.596 37.4697 56.1551 40.1736 56.2968 42.3682C56.2148 42.4739 56.1968 42.6221 56.2335 42.7559Z" fill="#EDF1F4"/>
<path d="M107.332 54.8726C105.605 54.8942 103.9 55.2315 102.235 55.9811C101.513 56.3055 100.805 56.6917 100.12 57.1521C99.3206 57.6887 98.4488 58.8288 97.6281 59.192C96.6944 59.6049 95.7644 58.4986 94.9738 58.016C94.1351 57.5038 93.2575 57.1068 92.3541 56.827C90.6443 56.2983 88.8993 56.2307 87.1348 56.5119C86.7507 56.573 86.8514 57.3664 87.2348 57.306C89.4056 56.9607 91.5578 57.2147 93.5899 58.1577C94.5329 58.595 95.3493 59.2568 96.2333 59.8509C96.6397 60.1236 96.8641 60.335 97.3619 60.2041C97.8374 60.0797 98.292 59.5344 98.6963 59.1813C99.5177 58.4634 100.364 57.8347 101.261 57.3226C103.187 56.2235 105.22 55.7106 107.27 55.6847C107.655 55.6782 107.719 54.8675 107.332 54.8726Z" fill="#53607D"/>
<path d="M32.7861 78.9763C32.7861 78.9763 36.6452 89.3358 45.9164 92.3173C50.2769 93.7193 48.685 84.0963 48.1499 84.0114C46.7127 83.782 37.007 71.353 37.007 71.353C37.007 71.353 35.2951 75.6588 32.7861 78.9763Z" fill="#9ED1DE"/>
<path d="M38.4757 74.2373C38.4757 74.2373 42.3952 88.0869 46.5312 89.3457C49.5833 90.275 51.7462 92.9883 46.6506 92.4625C41.5558 91.9374 35.8013 84.0113 35.8013 84.0113L38.4757 74.2373Z" fill="#8ABBCB"/>
<path d="M26.5067 152.104C25.7327 152.464 25.1313 154.891 25.1313 154.891H32.3295C32.3295 154.891 30.6434 154.219 28.9869 153.48C27.0915 152.635 27.1138 151.821 26.5067 152.104Z" fill="#E8A148"/>
<path d="M32.3295 154.891H25.1313V155.536H32.3295V154.891Z" fill="#E38038"/>
<path d="M46.0479 152.104C45.2732 152.464 44.6719 154.891 44.6719 154.891H51.87C51.87 154.891 50.1839 154.219 48.5274 153.48C46.6327 152.635 46.6543 151.821 46.0479 152.104Z" fill="#E8A148"/>
<path d="M51.87 154.891H44.6719V155.536H51.87V154.891Z" fill="#E38038"/>
<path d="M42.2198 100.849L47.4305 152.598L45.2129 152.763L31.6424 117.12L30.708 100.52L42.2198 100.849Z" fill="#6F89CA"/>
<path d="M31.6421 117.12L45.2126 152.763L45.9621 152.708L34.4309 111.192L31.6421 117.12Z" fill="#5771AD"/>
<path d="M22.1748 100.52C22.1748 100.52 22.7848 131.977 25.6577 153.093H28.2688L34.6678 100.52H22.1748Z" fill="#6F89CA"/>
<path d="M42.6025 103.553C42.6025 103.553 26.0166 102.599 26.0166 107.458C26.0166 112.317 26.413 153.093 26.413 153.093H25.657C25.657 153.093 21.3843 117.501 22.1741 100.52L42.0759 100.192L42.6025 103.553Z" fill="#5771AD"/>
<path d="M29.9605 69.5618C34.0721 69.4071 37.0623 70.4962 38.0894 72.8325C39.1181 75.1681 41.4558 100.894 41.4558 100.894C41.4558 100.894 28.9326 103.666 21.2712 102.171C21.2712 102.171 18.5753 80.5234 20.0671 73.477C20.7943 70.0437 27.0128 69.6726 29.9605 69.5618Z" fill="#9ED1DE"/>
<path d="M30.708 109.092L34.5671 110.369L38.8621 108.157L34.7664 112.767L30.708 109.092Z" fill="#5771AD"/>
<path d="M35.225 64.8613C35.143 65.0699 35.0668 65.2663 35.01 65.4483C34.8524 65.9468 34.7323 66.4402 34.6568 66.9193C34.5683 67.3998 34.518 67.8544 34.4921 68.2773C34.4036 69.6411 34.5424 70.6201 34.5424 70.6201C30.7042 72.5141 26.543 69.9066 26.543 69.9066C26.7257 69.3699 26.871 68.7132 26.9846 68.0565C27.2184 66.7121 27.3126 65.3605 27.3313 64.9692C27.3378 64.944 27.3378 64.9246 27.3378 64.9059C27.345 64.8743 27.345 64.8613 27.345 64.8613H35.225Z" fill="#F5B379"/>
<path d="M35.2253 64.8611C35.1433 65.0697 35.067 65.266 35.0102 65.448C34.7886 66.0731 34.6887 66.5529 34.657 66.919C34.5685 67.3995 34.5182 67.8541 34.4923 68.2771C32.6681 69.0784 30.6095 69.4013 29.1126 69.0784C28.1465 68.877 27.4143 68.4037 26.9849 68.0555C27.2186 66.7111 27.3129 65.3595 27.3316 64.9682C27.338 64.9431 27.338 64.9237 27.338 64.905C27.3452 64.8733 27.3452 64.8604 27.3452 64.8604H35.2253V64.8611Z" fill="#F29866"/>
<path d="M25.6489 62.1263C25.6489 62.1263 26.2783 66.3184 27.768 67.1456C29.2577 67.9728 34.4835 68.0426 35.5926 66.714C36.7025 65.3854 36.4932 54.426 36.0767 53.5715C35.661 52.717 28.4348 49.5455 25.9812 53.0392C23.5276 56.5329 25.6489 62.1263 25.6489 62.1263Z" fill="#F5B379"/>
<path d="M28.5328 48.1604C25.4146 48.5373 23.3531 52.2864 23.3955 52.4533C22.6158 52.7079 22.0015 54.6464 22.2619 56.0124C23.2358 61.1325 25.8376 62.0287 26.3267 61.892C28.594 61.2562 28.7918 57.0302 27.5344 53.7898C29.5348 53.5955 31.2238 53.3078 33.4026 53.8185C34.3578 54.0429 32.3193 47.7022 28.5328 48.1604Z" fill="#6C3E45"/>
<path d="M28.8774 54.8285C29.0342 54.5185 32.0035 54.2675 32.2316 54.4854C32.4287 54.6739 32.4222 55.686 32.2409 55.9406C32.146 56.0751 29.0378 55.8205 29.0062 55.7147C28.9263 55.4529 28.8019 54.9781 28.8774 54.8285Z" fill="#61353C"/>
<path d="M37.2115 55.382C37.1065 55.0511 34.3566 54.2894 34.1135 54.4642C33.9042 54.6138 33.7689 55.6115 33.9128 55.8877C33.9876 56.0323 36.9296 56.3258 36.9742 56.2279C37.0828 55.9848 37.2626 55.5424 37.2115 55.382Z" fill="#61353C"/>
<path d="M30.6434 58.4893C30.7477 59.0993 31.1203 59.5006 31.498 59.3898C31.8943 59.2726 32.1525 58.6317 32.0525 57.9512C31.9511 57.2564 31.5246 56.8457 31.1239 57.0348C30.7456 57.2139 30.5384 57.8656 30.6434 58.4893Z" fill="#503D39"/>
<path d="M34.8617 58.352C34.889 58.9713 35.1516 59.4633 35.4645 59.4554C35.7867 59.4453 36.0363 58.8987 36.0083 58.2297C35.9809 57.56 35.686 57.0637 35.363 57.1241C35.0523 57.1809 34.8344 57.7312 34.8617 58.352Z" fill="#503D39"/>
<path d="M32.6216 64.2117C32.6216 64.2117 34.3601 64.7073 35.4355 64.0405C35.4355 64.0405 35.4355 65.5295 34.4982 65.7877C33.561 66.046 33.0093 64.9886 32.6216 64.2117Z" fill="#4C2E2D"/>
<path d="M35.4355 64.0405C35.4355 64.0405 35.3233 64.575 35.2097 64.7081C35.096 64.8418 33.7192 65.1159 32.9654 64.8534C32.9654 64.8534 32.7173 64.4635 32.6216 64.2117C32.6216 64.2117 34.3271 64.6483 35.4355 64.0405Z" fill="white"/>
<path d="M23.3955 52.4531C23.0639 54.8024 24.6924 58.5694 25.6585 61.0496C25.2146 61.1791 24.7593 61.2337 24.2932 61.2481C23.912 60.4396 23.4991 59.5844 23.0495 58.6888C20.6621 53.9442 23.3955 52.4531 23.3955 52.4531Z" fill="#61353C"/>
<path d="M25.897 59.8632C25.3985 59.3525 23.2859 58.7439 23.0219 59.5884C22.599 60.9393 24.2311 63.5439 26.1782 62.4872C26.8882 62.1031 26.3293 60.307 25.897 59.8632Z" fill="#F5B379"/>
<path d="M25.5249 60.7242C25.5249 60.7242 23.9777 59.7092 23.8317 60.1696C23.5468 61.0666 24.8208 61.8067 25.1862 61.9369C25.1862 61.9369 24.4748 61.1565 24.6582 60.8213C24.8416 60.4861 25.5249 60.7242 25.5249 60.7242Z" fill="#F29866"/>
<path d="M44.2236 91.3167C45.8411 93.0556 48.6084 93.1107 50.4046 91.4399C52.2008 89.7691 52.3456 87.005 50.7281 85.2662C49.1106 83.5273 46.3432 83.4721 44.5471 85.1429C42.7509 86.8138 42.6061 89.5778 44.2236 91.3167Z" fill="#F5DD98"/>
<path d="M50.3961 91.4382C48.5992 93.1084 45.832 93.053 44.215 91.3145C42.5973 89.5752 42.7419 86.8109 44.538 85.1406C42.9138 90.2815 47.1045 91.5281 50.3961 91.4382Z" fill="#E3C883"/>
<path d="M40.6408 80.1615C40.384 80.742 39.956 83.6372 42.2657 84.4997C47.9821 86.6353 61.5094 84.6378 61.5094 84.6378L62.5848 81.1671C62.5848 81.1671 46.3464 77.9453 44.315 77.8173C42.2801 77.6893 41.2752 78.7294 40.6408 80.1615Z" fill="#F5B379"/>
<path d="M56.5615 95.9859L56.5594 95.9851C56.5464 95.9808 56.5435 95.9794 56.5615 95.9859Z" fill="#F29866"/>
<path d="M34.0537 59.3965C34.0537 59.3965 35.0535 61.5839 34.8255 62.163C34.5989 62.7427 32.9668 62.4161 32.9668 62.4161L34.0537 59.3965Z" fill="#F5B379"/>
<path d="M34.0537 59.3965C34.5709 60.0633 34.942 60.7984 35.1075 61.6659C35.1197 61.7796 35.129 61.8954 35.1183 62.0284C35.1103 62.1608 35.055 62.3449 34.9269 62.4608C34.6752 62.6744 34.4263 62.6945 34.2047 62.7017C33.7588 62.7075 33.3502 62.5895 32.9668 62.4161C33.3826 62.3838 33.7933 62.3536 34.1594 62.2831C34.3349 62.2428 34.5126 62.1788 34.5594 62.1061C34.6018 62.0874 34.6025 61.9249 34.5737 61.7414C34.5212 61.3768 34.409 60.989 34.3155 60.5999C34.2119 60.2107 34.1249 59.8101 34.0537 59.3965Z" fill="#F29866"/>
<path d="M24.2946 70.3484C24.9563 69.9658 25.6627 69.7133 26.3841 69.5479C27.6552 70.9189 28.714 72.4783 30.0512 73.7911C30.9777 74.701 32.6752 76.2302 34.1297 75.9691C36.2991 75.5807 35.323 71.818 34.8267 70.0204C36.256 70.6707 37.2609 71.6655 37.7334 72.9056C42.4981 85.4 42.3385 99.7524 42.3385 99.7524C42.3385 99.7524 28.8248 103.291 21.1634 101.795C21.1634 101.795 20.5721 96.217 20.3232 89.8957C29.1679 88.7369 28.145 76.3856 24.2946 70.3484Z" fill="#6F89CA"/>
<path d="M25.1319 87.3076C25.257 87.5184 25.393 87.7327 25.5505 87.9521C28.1566 91.5868 33.3586 98.8569 42.3385 99.7531C42.3385 99.7531 28.6802 103.537 21.1634 101.796C21.1634 101.796 20.6362 95.748 20.3384 89.8943C22.4855 89.6094 24.05 88.6642 25.1319 87.3076Z" fill="#5771AD"/>
<path fill-rule="evenodd" clip-rule="evenodd" d="M38.462 51.718C38.462 51.718 36.1645 44.2099 29.0936 45.3723C22.0228 46.5347 21.9761 53.7537 21.9761 53.7537C21.9761 53.7537 30.1179 54.9298 35.2574 53.4645C36.5946 53.084 37.7283 52.5237 38.462 51.718Z" fill="#F0C960"/>
<path fill-rule="evenodd" clip-rule="evenodd" d="M33.0083 45.6616C33.0083 45.6616 35.2216 48.4921 35.2907 52.767L35.7669 52.6691C35.7669 52.6691 35.441 47.7649 33.5816 45.8918L33.0083 45.6616Z" fill="#E38038"/>
<path fill-rule="evenodd" clip-rule="evenodd" d="M35.2574 53.4642C35.2574 53.4642 35.7106 49.0569 33.3045 46.0128C32.7528 45.3144 31.9342 44.8842 31.0466 44.8216C29.3972 44.7065 26.5825 44.8101 25.6323 46.6983C25.6323 46.6983 30.7387 51.1034 30.7063 54.3446C30.7063 54.3446 34.3446 55.0711 35.2574 53.4642Z" fill="#E9A754"/>
<path fill-rule="evenodd" clip-rule="evenodd" d="M21.9761 53.7535C21.9761 53.7535 34.3921 54.8353 38.462 51.7178L38.2929 51.2524C38.2929 51.2524 35.9228 52.7709 22.007 53.2636L21.9761 53.7535Z" fill="#E9A754"/>
<path fill-rule="evenodd" clip-rule="evenodd" d="M21.9933 53.893C22.0307 54.1922 22.2537 54.4339 22.5501 54.4921C24.1649 54.8094 29.3094 55.7812 31.5997 55.7394C34.3353 55.6905 41.2989 54.8302 41.3097 53.7469C41.3205 52.6629 38.462 51.7178 38.462 51.7178C38.462 51.7178 36.6745 53.598 21.9761 53.7534L21.9933 53.893Z" fill="#F0C960"/>
<path d="M38.0275 80.5771C38.0275 80.5771 38.8965 83.6472 38.2239 85.4016C37.9038 86.2388 35.5768 87.307 35.5768 87.307C35.5768 87.307 32.7313 86.5618 32.2083 85.9734C32.2083 85.9734 31.8969 83.1947 31.502 80.9555C31.502 80.9555 35.9358 81.4921 38.0275 80.5771Z" fill="#5771AD"/>
<path d="M42.3391 98.645C42.3391 98.645 42.6398 100.219 42.4743 101.612C42.4743 101.612 31.9695 104.04 21.1799 103.546L20.7598 100.668C20.7598 100.668 38.3224 100.848 42.3391 98.645Z" fill="#53607D"/>
<path d="M37.0529 99.6952C37.15 100.214 37.3514 101.475 37.2759 102.633C37.2658 102.775 37.1421 102.89 36.9781 102.913C36.2422 103.009 34.2282 103.264 33.2326 103.295C33.0341 103.302 32.8723 103.162 32.873 102.991C32.8737 102.393 32.8464 101.048 32.5946 100.225C32.545 100.06 32.6666 99.8973 32.8593 99.8592C33.6124 99.7125 35.3596 99.4068 36.7213 99.4406C36.8903 99.4456 37.0263 99.5521 37.0529 99.6952Z" fill="#3D495F"/>
<path d="M36.4359 100.259C36.5064 100.65 36.6229 101.443 36.5841 102.192C36.5762 102.335 36.4496 102.452 36.2848 102.474C35.7396 102.545 34.5312 102.695 33.8342 102.729C33.6313 102.739 33.4615 102.604 33.4608 102.429C33.4587 101.995 33.4335 101.188 33.2875 100.64C33.2436 100.476 33.3616 100.317 33.5529 100.281C34.1111 100.176 35.2073 99.9943 36.1 100.002C36.2705 100.003 36.4107 100.114 36.4359 100.259Z" fill="#F0C960"/>
<path d="M22.4733 71.8978C15.2974 73.0767 14.5047 88.439 16.0937 97.0355C16.5929 99.7379 19.7212 99.7746 22.4826 98.0878C24.4341 96.8967 23.407 95.3257 23.6148 94.7812C24.1342 93.4209 26.0274 82.7212 26.0274 82.7212C26.0274 82.7212 27.2991 71.1044 22.4733 71.8978Z" fill="#9ED1DE"/>
<path d="M21.2591 92.5294C21.7583 95.2319 19.7205 99.775 22.482 98.089C24.4335 96.8978 23.4063 95.3268 23.6142 94.7823C24.1335 93.4221 26.0267 82.7223 26.0267 82.7223C26.0267 82.7223 26.482 78.5618 25.8138 75.3911C25.5254 80.5773 23.9853 84.0157 21.2591 92.5294Z" fill="#8ABBCB"/>
<path d="M15.82 98.0205C17.0014 100.719 19.9322 102.044 22.3662 100.978C24.8002 99.9128 25.8156 96.8612 24.6342 94.1623C23.4528 91.4633 20.522 90.1391 18.088 91.2045C15.654 92.2699 14.6386 95.3215 15.82 98.0205Z" fill="#F5DD98"/>
<path d="M22.3803 100.973C19.9469 102.038 17.0164 100.715 15.8339 98.0154C14.6521 95.3165 15.6677 92.2652 18.1012 91.1992C14.77 96.2567 18.8464 99.5741 22.3803 100.973Z" fill="#E3C883"/>
<path d="M35.9315 104.81C35.9315 104.81 35.1575 81.8347 41.0969 64.582C41.0969 64.582 51.5636 70.3998 63.5351 67.629C63.5351 67.629 57.0052 92.8552 57.8532 101.06C57.8532 101.06 42.0075 97.3869 35.9315 104.81Z" fill="#EDF1F4"/>
<path d="M59.7812 79.9139C59.6784 79.8298 59.5841 79.7413 59.5007 79.6456C59.3086 79.4255 59.5295 79.009 59.9229 79.0162C61.1673 79.0371 62.2492 79.2953 63.2318 79.8118C63.4058 79.9031 63.4253 80.3671 63.431 80.4671C63.4454 80.6843 63.2167 80.9447 62.9282 80.9332C62.8498 80.931 62.7678 80.9217 62.688 80.9159C62.7771 80.9655 62.8484 81.0065 62.8779 81.0317C63.2641 81.3576 63.3771 81.6561 63.2159 82.1567C63.1562 82.3416 62.9635 82.5387 62.7167 82.5272C62.6923 82.5257 62.6714 82.5193 62.6477 82.5178C62.8613 82.7538 62.9606 83.04 62.8196 83.4256C62.7743 83.5493 62.6067 83.6543 62.4693 83.6874C62.3621 83.7126 62.2434 83.7241 62.1197 83.7291C62.2262 83.8385 62.3348 83.9471 62.4218 84.0737C62.5837 84.3075 62.242 84.6146 61.9456 84.6297C60.5221 84.7024 59.2245 84.2758 59.177 82.9832C59.1691 82.7753 59.3468 82.6084 59.5561 82.5516C59.4 82.2747 59.3748 81.969 59.5582 81.6532C59.6179 81.5511 59.7222 81.4676 59.8395 81.4194C59.4654 81.1878 59.0785 80.8842 59.2605 80.4448C59.3806 80.1513 59.5633 79.9873 59.7812 79.9139Z" fill="#F5B379"/>
<path d="M17.6793 97.6321C17.8857 98.2313 19.5459 100.643 21.8239 99.7008C27.4633 97.3696 36.8244 89.1522 36.8244 89.1522L35.8404 85.4858C35.8404 85.4858 20.3458 92.1229 18.7712 93.4126C17.1945 94.7045 17.1678 96.151 17.6793 97.6321Z" fill="#F5B379"/>
<path d="M18.7144 99.0272C18.7144 99.0272 21.3585 98.6337 24.5436 96.7772C27.7288 94.9206 36.0375 89.8301 36.0375 89.8301C36.0375 89.8301 25.7413 98.9955 21.0931 99.8939C20.4752 100.013 19.479 99.9155 18.7144 99.0272Z" fill="#F29866"/>
<path d="M35.6357 88.2106C35.348 87.5841 35.3199 86.8655 35.4515 86.1577C35.3868 85.6125 35.3048 85.0694 35.1955 84.5314C35.0948 84.0365 34.7401 83.315 35.2408 82.9295C35.8616 82.4518 36.4521 82.918 36.7866 83.5286C37.2016 83.1194 38.2763 82.3972 39.0373 82.3885C39.4193 82.2655 39.7991 82.2627 40.04 82.7029C40.2019 82.9971 40.1522 83.351 40.0041 83.6703C40.1494 83.7322 40.2752 83.8451 40.3594 84.0444C40.5507 84.4968 40.304 84.8766 40.0134 85.2162C40.3421 85.4801 40.3206 86.0872 40.04 86.5605C40.2407 86.6994 40.3817 86.9116 40.422 87.2108C40.5205 87.9301 39.9249 88.3969 39.3905 88.7501C38.0993 89.5996 36.4025 89.8794 35.6357 88.2106Z" fill="#F5B379"/>
<path d="M130.03 74.5572L129.536 74.0347L101.067 100.971L101.561 101.494L130.03 74.5572Z" fill="#53607D"/>
<path d="M130.092 74.4308L129.446 74.1147L116.253 101.086L116.9 101.402L130.092 74.4308Z" fill="#53607D"/>
<path d="M158.143 101.004L129.693 74.0444L129.199 74.5666L157.648 101.526L158.143 101.004Z" fill="#53607D"/>
<path d="M142.991 101.049L129.771 74.0928L129.126 74.4095L142.346 101.366L142.991 101.049Z" fill="#53607D"/>
<path d="M181.885 3.69181L181.408 2.75098L129.66 28.9496L130.137 29.8905L181.885 3.69181Z" fill="#E9A754"/>
<path d="M117.777 28.6177L103.986 43.1154H130.332L130.403 43.1823V43.1154H173.236V142.318H174.336V130.896L181.806 138.396L177.898 142.318H180.045L182.878 139.473L185.712 142.318H187.858L183.951 138.396L191.409 130.909V142.318H192.508V43.1154H211.472V28.6177H117.777ZM116.348 42.0616H106.442L116.567 31.418L116.348 42.0616ZM117.401 42.0616L117.627 31.0777L129.219 42.0616H117.401ZM129.379 40.7618L117.965 29.9477L118.229 29.6708H129.518L129.379 40.7618ZM184.705 29.6708H196.731L184.558 41.4401L184.705 29.6708ZM183.651 29.6708L183.513 40.7618L171.809 29.6708H183.651ZM130.571 29.6708H142.596L130.424 41.4401L130.571 29.6708ZM143.414 42.0616H131.297L143.661 30.1067L143.414 42.0616ZM144.468 42.0616L144.694 31.0777L156.287 42.0616H144.468ZM156.446 40.7618L144.742 29.6708H156.585L156.446 40.7618ZM157.638 29.6708H169.664L157.492 41.4401L157.638 29.6708ZM170.482 42.0616H158.363L170.728 30.1067L170.482 42.0616ZM171.535 42.0616L171.762 31.0777L183.286 41.9976L171.535 42.0616ZM174.695 109.482H191.062L182.879 117.696L174.695 109.482ZM190.582 127.583H175.176L182.879 119.851L190.582 127.583ZM175.176 107.961L182.879 100.229L190.582 107.961H175.176ZM174.336 106.651V91.6516L181.806 99.1511L174.336 106.651ZM174.695 89.8598H191.062L182.879 98.075L174.695 89.8598ZM174.336 87.0286V72.0302L181.806 79.529L174.336 87.0286ZM175.176 88.3391L182.879 80.6066L190.582 88.3391H175.176ZM174.695 70.237H191.062L182.879 78.4522L174.695 70.237ZM175.176 68.7171L182.879 60.9845L190.582 68.7171H175.176ZM174.695 50.6156H191.062L182.879 58.8302L174.695 50.6156ZM181.806 59.907L174.336 67.4065V52.4081L181.806 59.907ZM174.336 111.274L181.806 118.774L174.336 126.273V111.274ZM182.879 137.318L174.695 129.104H191.062L182.879 137.318ZM191.411 126.26L183.952 118.774L191.411 111.287V126.26ZM191.411 106.638L183.952 99.1518L191.411 91.6652V106.638ZM191.411 87.0163L183.952 79.5298L191.411 72.0432V87.0163ZM191.411 67.3943L183.952 59.907L191.411 52.4204V67.3943ZM191.411 49.095H174.336V43.1154H191.411V49.095ZM197.549 42.0616L185.497 41.9976L197.796 30.1067L197.549 42.0616ZM210.421 42.0616H198.603L198.829 31.0777L210.421 42.0616ZM210.421 40.6107L198.876 29.6708H210.421V40.6107Z" fill="#F0C960"/>
<path d="M189.295 3.10239C188.915 1.30483 187.305 0 185.469 0H184.986C183.148 0 181.54 1.30482 181.165 3.08584L176.303 22.8259H194.152L189.295 3.10239ZM192.467 20.3903L185.895 12.9979L189.613 8.79933L192.467 20.3903ZM182.191 3.31961C182.469 2.00687 183.644 1.05379 184.986 1.05379H185.469C186.811 1.05379 187.987 2.00688 188.268 3.3376L188.994 6.28389L181.455 6.31123L182.191 3.31961ZM181.202 7.3348L189.246 7.30603L189.316 7.59016L185.211 12.2268L181.129 7.63547L181.202 7.3348ZM180.831 8.8432L184.527 12.9987L177.989 20.3809L180.831 8.8432ZM178.124 21.7721L185.211 13.7698L192.327 21.7721H178.124Z" fill="#F0C960"/>
<path d="M192.134 42.5474H173.785V49.6793H192.134V42.5474Z" fill="#E9A754"/>
<path d="M180.872 16.7954H171.697C167.786 16.7954 164.165 18.8541 162.167 22.2161L153.717 40.7089C152.824 42.6647 154.252 44.8881 156.402 44.8881H179.997C180.03 44.8881 180.06 44.8881 180.087 44.8838C181.953 44.8385 183.449 43.3099 183.449 41.4354V19.3734C183.449 17.9499 182.295 16.7954 180.872 16.7954Z" fill="#6F89CA"/>
<path d="M192.083 20.6608V31.9892C192.083 32.2626 191.936 32.5165 191.698 32.6546L187.67 34.9809C187.158 35.2758 186.517 34.9068 186.517 34.3148V20.6608C186.517 20.2364 186.862 19.894 187.286 19.894H191.313C191.738 19.894 192.083 20.2372 192.083 20.6608Z" fill="#E2FCFF"/>
<path d="M182.677 20.6632V41.2635C182.677 41.6879 182.333 42.0296 181.909 42.0296H169.217C168.657 42.0296 168.287 41.4527 168.517 40.9419L176.274 23.9705C177.488 21.9248 179.46 20.4862 181.711 19.9201C182.199 19.7971 182.677 20.1596 182.677 20.6632Z" fill="#E2FCFF"/>
<path d="M183.502 21.3096L172.304 43.0615L175.103 42.7386L184.579 23.2474L183.502 21.3096Z" fill="white"/>
<path d="M189.371 18.5093L175.857 44.3001L177.634 43.6003L189.425 20.0709L189.371 18.5093Z" fill="white"/>
<path d="M192.961 24.4141L184.741 39.8311L186.517 39.1311L193.015 25.9757L192.961 24.4141Z" fill="white"/>
<path d="M192.016 16.7954H182.842C178.93 16.7954 175.31 18.8541 173.312 22.2161L164.862 40.7089C163.968 42.6647 165.397 44.8881 167.546 44.8881H191.142C191.174 44.8881 191.204 44.8881 191.232 44.8838C193.098 44.8385 194.595 43.3099 194.595 41.4354V19.3734C194.595 17.9499 193.44 16.7954 192.016 16.7954ZM182.678 41.2635C182.678 41.6879 182.333 42.0296 181.909 42.0296H169.217C168.658 42.0296 168.287 41.4527 168.517 40.9419L176.274 23.9705C177.489 21.9248 179.46 20.4862 181.711 19.9201C182.199 19.7964 182.678 20.1589 182.678 20.6624V41.2635ZM192.083 31.9894C192.083 32.2628 191.937 32.5167 191.698 32.6548L187.67 34.981C187.158 35.2759 186.517 34.9069 186.517 34.3149V20.661C186.517 20.2366 186.862 19.8942 187.286 19.8942H191.314C191.738 19.8942 192.083 20.2373 192.083 20.661L192.083 31.9894Z" fill="#5771AD"/>
<path d="M129.076 41.9092H128.656V57.9196H129.076V41.9092Z" fill="#F6C03B"/>
<path d="M131.706 42.2119H131.287V58.2223H131.706V42.2119Z" fill="#F6C03B"/>
<path d="M130.811 60.5659H129.349V63.2439H130.811V60.5659Z" fill="#3D495F"/>
<path d="M130.08 57.0586C128.968 57.0586 128.067 57.9599 128.067 59.0712C128.067 60.1826 128.968 61.0831 130.08 61.0831C131.191 61.0831 132.092 60.1826 132.092 59.0712C132.092 57.9599 131.191 57.0586 130.08 57.0586ZM130.08 60.1782C129.467 60.1782 128.972 59.6826 128.972 59.0712C128.972 58.4591 129.467 57.9635 130.08 57.9635C130.692 57.9635 131.187 58.4591 131.187 59.0712C131.187 59.6826 130.692 60.1782 130.08 60.1782Z" fill="#53607D"/>
<path d="M131.007 69.7709C130.749 69.676 130.576 69.4371 130.576 69.1624V66.98H129.524V70.104C129.524 70.4521 129.807 70.7348 130.155 70.7348C130.568 70.7556 130.942 70.9362 131.212 71.2175C131.48 71.4987 131.646 71.8799 131.646 72.2971C131.646 72.8086 131.396 73.2214 130.986 73.4631C130.81 73.566 130.602 73.6365 130.374 73.6681C130.279 73.6832 130.18 73.689 130.08 73.689C129.98 73.689 129.881 73.6825 129.787 73.6681C129.559 73.6365 129.352 73.5653 129.176 73.4631C128.771 73.2258 128.524 72.8208 128.516 72.3223C128.509 72.018 128.285 71.7497 127.981 71.7353C127.656 71.7188 127.388 71.9763 127.388 72.2971C127.388 73.0121 127.673 73.6365 128.149 74.0853C128.258 74.1882 128.375 74.2803 128.502 74.3623C128.939 74.6493 129.48 74.8147 130.08 74.8147C130.679 74.8147 131.22 74.65 131.658 74.3623C131.784 74.281 131.901 74.1882 132.011 74.0853C132.487 73.6365 132.772 73.0121 132.772 72.2971C132.772 71.1376 132.037 70.1478 131.007 69.7709Z" fill="#3D495F"/>
<path d="M131.026 67.8415H129.134C128.17 67.8415 127.389 67.0597 127.389 66.0958V64.2033C127.389 63.2394 128.17 62.4575 129.134 62.4575H131.026C131.99 62.4575 132.772 63.2394 132.772 64.2033V66.0958C132.772 67.0597 131.99 67.8415 131.026 67.8415Z" fill="#53607D"/>
<path d="M130.423 46.2859C132.92 46.2859 134.944 44.2622 134.944 41.7658C134.944 39.2694 132.92 37.2456 130.423 37.2456C127.927 37.2456 125.903 39.2694 125.903 41.7658C125.903 44.2622 127.927 46.2859 130.423 46.2859Z" fill="#E9A754"/>
<path d="M130.424 44.459C131.911 44.459 133.117 43.2532 133.117 41.7659C133.117 40.2785 131.911 39.0728 130.424 39.0728C128.936 39.0728 127.73 40.2785 127.73 41.7659C127.73 43.2532 128.936 44.459 130.424 44.459Z" fill="#F0C960"/>
<path d="M166.637 32.6745L171.415 22.2164C171.931 21.3504 172.549 20.5735 173.258 19.8931H165.517C164.81 20.5678 164.184 21.3504 163.668 22.2164L158.89 32.6745H166.637Z" fill="#E2FCFF"/>
<path d="M161.789 32.6745L168.315 22.2164C168.831 21.3504 169.449 20.5735 170.157 19.8931H168.511C167.803 20.5678 167.177 21.3504 166.661 22.2164L160.136 32.6745H161.789Z" fill="white"/>
<path d="M165.171 35.6751H157.972C157.794 35.6751 157.677 35.4873 157.755 35.3269L158.303 34.2091C158.357 34.0983 158.47 34.0278 158.593 34.0278H165.791C165.97 34.0278 166.087 34.2163 166.009 34.376L165.461 35.4938C165.407 35.6046 165.294 35.6751 165.171 35.6751Z" fill="#5771AD"/>
<path d="M160.136 100.229H97.7881V104.535H160.136V100.229Z" fill="#6F89CA"/>
<path d="M163.577 100.229H115.063V104.535H163.577V100.229Z" fill="#5771AD"/>
<path d="M70.5785 148.043H58.7314V154.873H70.5785V148.043Z" fill="#EDF1F4"/>
<path d="M58.6162 154.873V148.044C58.6162 147.98 58.6673 147.928 58.7313 147.928H70.5784C70.6424 147.928 70.6941 147.98 70.6941 148.044V154.873C70.6941 154.937 70.6424 154.988 70.5784 154.988H58.7313C58.6673 154.989 58.6162 154.937 58.6162 154.873ZM70.4633 148.159H58.8471V154.758H70.4633V148.159Z" fill="#BED0E2"/>
<path d="M82.4256 148.043H70.5786V154.873H82.4256V148.043Z" fill="#EDF1F4"/>
<path d="M70.4634 154.873V148.044C70.4634 147.98 70.5152 147.928 70.5785 147.928H82.4255C82.4895 147.928 82.5413 147.98 82.5413 148.044V154.873C82.5413 154.937 82.4895 154.988 82.4255 154.988H70.5785C70.5152 154.989 70.4634 154.937 70.4634 154.873ZM82.3097 148.159H70.6943V154.758H82.3097V148.159Z" fill="#BED0E2"/>
<path d="M94.2726 148.043H82.4248V154.873H94.2726V148.043Z" fill="#EDF1F4"/>
<path d="M82.3096 154.873V148.044C82.3096 147.98 82.3614 147.928 82.4247 147.928H94.2725C94.3358 147.928 94.3875 147.98 94.3875 148.044V154.873C94.3875 154.937 94.3358 154.988 94.2725 154.988H82.4247C82.3614 154.989 82.3096 154.937 82.3096 154.873ZM94.1573 148.159H82.5412V154.758H94.1573V148.159Z" fill="#BED0E2"/>
<path d="M106.12 148.043H94.2729V154.873H106.12V148.043Z" fill="#EDF1F4"/>
<path d="M94.1577 154.873V148.044C94.1577 147.98 94.2088 147.928 94.2728 147.928H106.12C106.184 147.928 106.236 147.98 106.236 148.044V154.873C106.236 154.937 106.184 154.988 106.12 154.988H94.2728C94.2088 154.989 94.1577 154.937 94.1577 154.873ZM106.005 148.159H94.3886V154.758H106.005V148.159Z" fill="#BED0E2"/>
<path d="M65.3129 141.213H53.4658V148.043H65.3129V141.213Z" fill="#EDF1F4"/>
<path d="M53.3496 148.044V141.213C53.3496 141.15 53.4014 141.098 53.4654 141.098H65.3125C65.3758 141.098 65.4276 141.15 65.4276 141.213V148.044C65.4276 148.107 65.3758 148.159 65.3125 148.159H53.4654C53.4014 148.159 53.3496 148.107 53.3496 148.044ZM65.1967 141.328H53.5805V147.928H65.1967V141.328Z" fill="#BED0E2"/>
<path d="M77.1598 141.213H65.312V148.043H77.1598V141.213Z" fill="#EDF1F4"/>
<path d="M65.1968 148.044V141.213C65.1968 141.15 65.2486 141.098 65.3119 141.098H77.1589C77.2229 141.098 77.2747 141.15 77.2747 141.213V148.044C77.2747 148.107 77.2229 148.159 77.1589 148.159H65.3119C65.2486 148.159 65.1968 148.107 65.1968 148.044ZM77.0438 141.328H65.4277V147.928H77.0438V141.328Z" fill="#BED0E2"/>
<path d="M89.0067 141.213H77.1597V148.043H89.0067V141.213Z" fill="#EDF1F4"/>
<path d="M77.0439 148.044V141.213C77.0439 141.15 77.0957 141.098 77.159 141.098H89.0061C89.0701 141.098 89.1219 141.15 89.1219 141.213V148.044C89.1219 148.107 89.0701 148.159 89.0061 148.159H77.159C77.0957 148.159 77.0439 148.107 77.0439 148.044ZM88.891 141.328H77.2756V147.928H88.891V141.328Z" fill="#BED0E2"/>
<path d="M100.854 141.213H89.0068V148.043H100.854V141.213Z" fill="#EDF1F4"/>
<path d="M88.8911 148.044V141.213C88.8911 141.15 88.9429 141.098 89.0062 141.098H100.854C100.917 141.098 100.969 141.15 100.969 141.213V148.044C100.969 148.107 100.917 148.159 100.854 148.159H89.0062C88.9429 148.159 88.8911 148.107 88.8911 148.044ZM100.738 141.328H89.122V147.928H100.738V141.328Z" fill="#BED0E2"/>
<path d="M70.5785 134.383H58.7314V141.214H70.5785V134.383Z" fill="#EDF1F4"/>
<path d="M58.6162 141.214V134.383C58.6162 134.32 58.6673 134.268 58.7313 134.268H70.5784C70.6424 134.268 70.6941 134.32 70.6941 134.383V141.214C70.6941 141.277 70.6424 141.329 70.5784 141.329H58.7313C58.6673 141.329 58.6162 141.277 58.6162 141.214ZM70.4633 134.499H58.8471V141.098H70.4633V134.499Z" fill="#BED0E2"/>
<path d="M82.4256 134.383H70.5786V141.214H82.4256V134.383Z" fill="#EDF1F4"/>
<path d="M70.4634 141.214V134.383C70.4634 134.32 70.5152 134.268 70.5785 134.268H82.4255C82.4895 134.268 82.5413 134.32 82.5413 134.383V141.214C82.5413 141.277 82.4895 141.329 82.4255 141.329H70.5785C70.5152 141.329 70.4634 141.277 70.4634 141.214ZM82.3097 134.499H70.6943V141.098H82.3097V134.499Z" fill="#BED0E2"/>
<path d="M94.2726 134.383H82.4248V141.214H94.2726V134.383Z" fill="#EDF1F4"/>
<path d="M82.3096 141.214V134.383C82.3096 134.32 82.3614 134.268 82.4247 134.268H94.2725C94.3358 134.268 94.3875 134.32 94.3875 134.383V141.214C94.3875 141.277 94.3358 141.329 94.2725 141.329H82.4247C82.3614 141.329 82.3096 141.277 82.3096 141.214ZM94.1573 134.499H82.5412V141.098H94.1573V134.499Z" fill="#BED0E2"/>
<path d="M106.12 134.383H94.2729V141.214H106.12V134.383Z" fill="#EDF1F4"/>
<path d="M94.1577 141.214V134.383C94.1577 134.32 94.2088 134.268 94.2728 134.268H106.12C106.184 134.268 106.236 134.32 106.236 134.383V141.214C106.236 141.277 106.184 141.329 106.12 141.329H94.2728C94.2088 141.329 94.1577 141.277 94.1577 141.214ZM106.005 134.499H94.3886V141.098H106.005V134.499Z" fill="#BED0E2"/>
<path d="M117.979 148.043H106.132V154.873H117.979V148.043Z" fill="#EDF1F4"/>
<path d="M106.017 154.873V148.044C106.017 147.98 106.068 147.928 106.132 147.928H117.979C118.043 147.928 118.095 147.98 118.095 148.044V154.873C118.095 154.937 118.043 154.988 117.979 154.988H106.132C106.069 154.989 106.017 154.937 106.017 154.873ZM117.864 148.159H106.248V154.758H117.864V148.159Z" fill="#BED0E2"/>
<path d="M129.827 148.043H117.979V154.873H129.827V148.043Z" fill="#EDF1F4"/>
<path d="M117.864 154.873V148.044C117.864 147.98 117.916 147.928 117.98 147.928H129.827C129.89 147.928 129.942 147.98 129.942 148.044V154.873C129.942 154.937 129.89 154.988 129.827 154.988H117.98C117.916 154.989 117.864 154.937 117.864 154.873ZM129.712 148.159H118.095V154.758H129.712V148.159Z" fill="#BED0E2"/>
<path d="M141.674 148.043H129.827V154.873H141.674V148.043Z" fill="#EDF1F4"/>
<path d="M129.711 154.873V148.044C129.711 147.98 129.763 147.928 129.826 147.928H141.674C141.738 147.928 141.789 147.98 141.789 148.044V154.873C141.789 154.937 141.738 154.988 141.674 154.988H129.826C129.763 154.989 129.711 154.937 129.711 154.873ZM141.558 148.159H129.942V154.758H141.558V148.159Z" fill="#BED0E2"/>
<path d="M153.521 148.043H141.674V154.873H153.521V148.043Z" fill="#EDF1F4"/>
<path d="M141.558 154.873V148.044C141.558 147.98 141.61 147.928 141.674 147.928H153.521C153.584 147.928 153.636 147.98 153.636 148.044V154.873C153.636 154.937 153.584 154.988 153.521 154.988H141.674C141.611 154.989 141.558 154.937 141.558 154.873ZM153.405 148.159H141.79V154.758H153.405V148.159Z" fill="#BED0E2"/>
<path d="M112.714 141.213H100.866V148.043H112.714V141.213Z" fill="#EDF1F4"/>
<path d="M100.751 148.044V141.213C100.751 141.15 100.803 141.098 100.866 141.098H112.714C112.777 141.098 112.829 141.15 112.829 141.213V148.044C112.829 148.107 112.777 148.159 112.714 148.159H100.866C100.803 148.159 100.751 148.107 100.751 148.044ZM112.598 141.328H100.982V147.928H112.598V141.328Z" fill="#BED0E2"/>
<path d="M124.561 141.213H112.714V148.043H124.561V141.213Z" fill="#EDF1F4"/>
<path d="M112.598 148.044V141.213C112.598 141.15 112.65 141.098 112.714 141.098H124.561C124.624 141.098 124.676 141.15 124.676 141.213V148.044C124.676 148.107 124.624 148.159 124.561 148.159H112.714C112.65 148.159 112.598 148.107 112.598 148.044ZM124.444 141.328H112.829V147.928H124.444V141.328Z" fill="#BED0E2"/>
<path d="M136.408 141.213H124.561V148.043H136.408V141.213Z" fill="#EDF1F4"/>
<path d="M124.444 148.044V141.213C124.444 141.15 124.496 141.098 124.56 141.098H136.407C136.471 141.098 136.522 141.15 136.522 141.213V148.044C136.522 148.107 136.471 148.159 136.407 148.159H124.56C124.497 148.159 124.444 148.107 124.444 148.044ZM136.292 141.328H124.676V147.928H136.292V141.328Z" fill="#BED0E2"/>
<path d="M148.255 141.213H136.407V148.043H148.255V141.213Z" fill="#EDF1F4"/>
<path d="M136.292 148.044V141.213C136.292 141.15 136.344 141.098 136.407 141.098H148.255C148.318 141.098 148.37 141.15 148.37 141.213V148.044C148.37 148.107 148.318 148.159 148.255 148.159H136.407C136.344 148.159 136.292 148.107 136.292 148.044ZM148.139 141.328H136.523V147.928H148.139V141.328Z" fill="#BED0E2"/>
<path d="M117.979 134.383H106.132V141.214H117.979V134.383Z" fill="#EDF1F4"/>
<path d="M106.017 141.214V134.383C106.017 134.32 106.068 134.268 106.132 134.268H117.979C118.043 134.268 118.095 134.32 118.095 134.383V141.214C118.095 141.277 118.043 141.329 117.979 141.329H106.132C106.069 141.329 106.017 141.277 106.017 141.214ZM117.864 134.499H106.248V141.098H117.864V134.499Z" fill="#BED0E2"/>
<path d="M129.827 134.383H117.979V141.214H129.827V134.383Z" fill="#EDF1F4"/>
<path d="M117.864 141.214V134.383C117.864 134.32 117.916 134.268 117.98 134.268H129.827C129.89 134.268 129.942 134.32 129.942 134.383V141.214C129.942 141.277 129.89 141.329 129.827 141.329H117.98C117.916 141.329 117.864 141.277 117.864 141.214ZM129.712 134.499H118.095V141.098H129.712V134.499Z" fill="#BED0E2"/>
<path d="M141.674 134.383H129.827V141.214H141.674V134.383Z" fill="#EDF1F4"/>
<path d="M129.712 141.214V134.383C129.712 134.32 129.764 134.268 129.827 134.268H141.675C141.738 134.268 141.79 134.32 141.79 134.383V141.214C141.79 141.277 141.738 141.329 141.675 141.329H129.827C129.764 141.329 129.712 141.277 129.712 141.214ZM141.558 134.499H129.942V141.098H141.558V134.499Z" fill="#BED0E2"/>
<path d="M153.521 134.383H141.674V141.214H153.521V134.383Z" fill="#EDF1F4"/>
<path d="M141.558 141.214V134.383C141.558 134.32 141.61 134.268 141.674 134.268H153.521C153.584 134.268 153.636 134.32 153.636 134.383V141.214C153.636 141.277 153.584 141.329 153.521 141.329H141.674C141.611 141.329 141.558 141.277 141.558 141.214ZM153.405 134.499H141.79V141.098H153.405V134.499Z" fill="#BED0E2"/>
<path d="M165.375 148.043H153.528V154.873H165.375V148.043Z" fill="#EDF1F4"/>
<path d="M153.413 154.873V148.044C153.413 147.98 153.464 147.928 153.528 147.928H165.375C165.439 147.928 165.491 147.98 165.491 148.044V154.873C165.491 154.937 165.439 154.988 165.375 154.988H153.528C153.464 154.989 153.413 154.937 153.413 154.873ZM165.26 148.159H153.643V154.758H165.26V148.159Z" fill="#BED0E2"/>
<path d="M177.222 148.043H165.375V154.873H177.222V148.043Z" fill="#EDF1F4"/>
<path d="M165.259 154.873V148.044C165.259 147.98 165.311 147.928 165.374 147.928H177.221C177.285 147.928 177.337 147.98 177.337 148.044V154.873C177.337 154.937 177.285 154.988 177.221 154.988H165.374C165.311 154.989 165.259 154.937 165.259 154.873ZM177.106 148.159H165.49V154.758H177.106V148.159Z" fill="#BED0E2"/>
<path d="M189.069 148.043H177.221V154.873H189.069V148.043Z" fill="#EDF1F4"/>
<path d="M177.106 154.873V148.044C177.106 147.98 177.158 147.928 177.221 147.928H189.069C189.132 147.928 189.184 147.98 189.184 148.044V154.873C189.184 154.937 189.132 154.988 189.069 154.988H177.221C177.158 154.989 177.106 154.937 177.106 154.873ZM188.954 148.159H177.338V154.758H188.954V148.159Z" fill="#BED0E2"/>
<path d="M200.916 148.043H189.069V154.873H200.916V148.043Z" fill="#EDF1F4"/>
<path d="M188.954 154.873V148.044C188.954 147.98 189.005 147.928 189.069 147.928H200.916C200.98 147.928 201.031 147.98 201.031 148.044V154.873C201.031 154.937 200.98 154.988 200.916 154.988H189.069C189.005 154.989 188.954 154.937 188.954 154.873ZM200.801 148.159H189.185V154.758H200.801V148.159Z" fill="#BED0E2"/>
<path d="M160.109 141.213H148.262V148.043H160.109V141.213Z" fill="#EDF1F4"/>
<path d="M148.146 148.044V141.213C148.146 141.15 148.197 141.098 148.261 141.098H160.108C160.172 141.098 160.223 141.15 160.223 141.213V148.044C160.223 148.107 160.172 148.159 160.108 148.159H148.261C148.197 148.159 148.146 148.107 148.146 148.044ZM159.993 141.328H148.376V147.928H159.993V141.328Z" fill="#BED0E2"/>
<path d="M171.956 141.213H160.108V148.043H171.956V141.213Z" fill="#EDF1F4"/>
<path d="M159.993 148.044V141.213C159.993 141.15 160.044 141.098 160.108 141.098H171.955C172.019 141.098 172.071 141.15 172.071 141.213V148.044C172.071 148.107 172.019 148.159 171.955 148.159H160.108C160.045 148.159 159.993 148.107 159.993 148.044ZM171.84 141.328H160.224V147.928H171.84V141.328Z" fill="#BED0E2"/>
<path d="M183.803 141.213H171.956V148.043H183.803V141.213Z" fill="#EDF1F4"/>
<path d="M171.84 148.044V141.213C171.84 141.15 171.892 141.098 171.955 141.098H183.802C183.866 141.098 183.918 141.15 183.918 141.213V148.044C183.918 148.107 183.866 148.159 183.802 148.159H171.955C171.892 148.159 171.84 148.107 171.84 148.044ZM183.687 141.328H172.071V147.928H183.687V141.328Z" fill="#BED0E2"/>
<path d="M195.65 141.213H183.803V148.043H195.65V141.213Z" fill="#EDF1F4"/>
<path d="M183.687 148.044V141.213C183.687 141.15 183.739 141.098 183.802 141.098H195.65C195.713 141.098 195.765 141.15 195.765 141.213V148.044C195.765 148.107 195.713 148.159 195.65 148.159H183.802C183.739 148.159 183.687 148.107 183.687 148.044ZM195.534 141.328H183.918V147.928H195.534V141.328Z" fill="#BED0E2"/>
<path d="M165.375 134.383H153.528V141.214H165.375V134.383Z" fill="#EDF1F4"/>
<path d="M153.413 141.214V134.383C153.413 134.32 153.464 134.268 153.528 134.268H165.375C165.439 134.268 165.491 134.32 165.491 134.383V141.214C165.491 141.277 165.439 141.329 165.375 141.329H153.528C153.464 141.329 153.413 141.277 153.413 141.214ZM165.26 134.499H153.643V141.098H165.26V134.499Z" fill="#BED0E2"/>
<path d="M177.222 134.383H165.375V141.214H177.222V134.383Z" fill="#EDF1F4"/>
<path d="M165.259 141.214V134.383C165.259 134.32 165.311 134.268 165.374 134.268H177.221C177.285 134.268 177.337 134.32 177.337 134.383V141.214C177.337 141.277 177.285 141.329 177.221 141.329H165.374C165.311 141.329 165.259 141.277 165.259 141.214ZM177.106 134.499H165.49V141.098H177.106V134.499Z" fill="#BED0E2"/>
<path d="M189.068 134.383H177.221V141.214H189.068V134.383Z" fill="#EDF1F4"/>
<path d="M177.105 141.214V134.383C177.105 134.32 177.157 134.268 177.221 134.268H189.068C189.132 134.268 189.183 134.32 189.183 134.383V141.214C189.183 141.277 189.132 141.329 189.068 141.329H177.221C177.158 141.329 177.105 141.277 177.105 141.214ZM188.953 134.499H177.337V141.098H188.953V134.499Z" fill="#BED0E2"/>
<path d="M200.916 134.383H189.069V141.214H200.916V134.383Z" fill="#EDF1F4"/>
<path d="M188.954 141.214V134.383C188.954 134.32 189.005 134.268 189.069 134.268H200.916C200.98 134.268 201.031 134.32 201.031 134.383V141.214C201.031 141.277 200.98 141.329 200.916 141.329H189.069C189.005 141.329 188.954 141.277 188.954 141.214ZM200.801 134.499H189.185V141.098H200.801V134.499Z" fill="#BED0E2"/>
<path d="M65.3129 127.55H53.4658V134.381H65.3129V127.55Z" fill="#EDF1F4"/>
<path d="M53.3496 134.381V127.55C53.3496 127.487 53.4014 127.435 53.4654 127.435H65.3125C65.3758 127.435 65.4276 127.487 65.4276 127.55V134.381C65.4276 134.444 65.3758 134.496 65.3125 134.496H53.4654C53.4014 134.496 53.3496 134.444 53.3496 134.381ZM65.1967 127.665H53.5805V134.266H65.1967V127.665Z" fill="#BED0E2"/>
<path d="M77.1598 127.55H65.312V134.381H77.1598V127.55Z" fill="#EDF1F4"/>
<path d="M65.1968 134.381V127.55C65.1968 127.487 65.2486 127.435 65.3119 127.435H77.1589C77.2229 127.435 77.2747 127.487 77.2747 127.55V134.381C77.2747 134.444 77.2229 134.496 77.1589 134.496H65.3119C65.2486 134.496 65.1968 134.444 65.1968 134.381ZM77.0438 127.665H65.4277V134.266H77.0438V127.665Z" fill="#BED0E2"/>
<path d="M89.0067 127.55H77.1597V134.381H89.0067V127.55Z" fill="#EDF1F4"/>
<path d="M77.0439 134.381V127.55C77.0439 127.487 77.0957 127.435 77.159 127.435H89.0061C89.0701 127.435 89.1219 127.487 89.1219 127.55V134.381C89.1219 134.444 89.0701 134.496 89.0061 134.496H77.159C77.0957 134.496 77.0439 134.444 77.0439 134.381ZM88.891 127.665H77.2756V134.266H88.891V127.665Z" fill="#BED0E2"/>
<path d="M100.854 127.55H89.0068V134.381H100.854V127.55Z" fill="#EDF1F4"/>
<path d="M88.8911 134.381V127.55C88.8911 127.487 88.9429 127.435 89.0062 127.435H100.854C100.917 127.435 100.969 127.487 100.969 127.55V134.381C100.969 134.444 100.917 134.496 100.854 134.496H89.0062C88.9429 134.496 88.8911 134.444 88.8911 134.381ZM100.738 127.665H89.122V134.266H100.738V127.665Z" fill="#BED0E2"/>
<path d="M70.5785 120.721H58.7314V127.551H70.5785V120.721Z" fill="#EDF1F4"/>
<path d="M58.6162 127.551V120.721C58.6162 120.657 58.6673 120.605 58.7313 120.605H70.5784C70.6424 120.605 70.6941 120.657 70.6941 120.721V127.551C70.6941 127.615 70.6424 127.666 70.5784 127.666H58.7313C58.6673 127.666 58.6162 127.615 58.6162 127.551ZM70.4633 120.836H58.8471V127.436H70.4633V120.836Z" fill="#BED0E2"/>
<path d="M82.4256 120.721H70.5786V127.551H82.4256V120.721Z" fill="#EDF1F4"/>
<path d="M70.4634 127.551V120.721C70.4634 120.657 70.5152 120.605 70.5785 120.605H82.4255C82.4895 120.605 82.5413 120.657 82.5413 120.721V127.551C82.5413 127.615 82.4895 127.666 82.4255 127.666H70.5785C70.5152 127.666 70.4634 127.615 70.4634 127.551ZM82.3097 120.836H70.6943V127.436H82.3097V120.836Z" fill="#BED0E2"/>
<path d="M94.2726 120.721H82.4248V127.551H94.2726V120.721Z" fill="#EDF1F4"/>
<path d="M82.3096 127.551V120.721C82.3096 120.657 82.3614 120.605 82.4247 120.605H94.2725C94.3358 120.605 94.3875 120.657 94.3875 120.721V127.551C94.3875 127.615 94.3358 127.666 94.2725 127.666H82.4247C82.3614 127.666 82.3096 127.615 82.3096 127.551ZM94.1573 120.836H82.5412V127.436H94.1573V120.836Z" fill="#BED0E2"/>
<path d="M106.12 120.721H94.2729V127.551H106.12V120.721Z" fill="#EDF1F4"/>
<path d="M94.1577 127.551V120.721C94.1577 120.657 94.2088 120.605 94.2728 120.605H106.12C106.184 120.605 106.236 120.657 106.236 120.721V127.551C106.236 127.615 106.184 127.666 106.12 127.666H94.2728C94.2088 127.666 94.1577 127.615 94.1577 127.551ZM106.005 120.836H94.3886V127.436H106.005V120.836Z" fill="#BED0E2"/>
<path d="M65.3129 113.891H53.4658V120.722H65.3129V113.891Z" fill="#EDF1F4"/>
<path d="M53.3496 120.722V113.891C53.3496 113.828 53.4014 113.776 53.4654 113.776H65.3125C65.3758 113.776 65.4276 113.828 65.4276 113.891V120.722C65.4276 120.785 65.3758 120.837 65.3125 120.837H53.4654C53.4014 120.837 53.3496 120.785 53.3496 120.722ZM65.1967 114.007H53.5805V120.606H65.1967V114.007Z" fill="#BED0E2"/>
<path d="M77.1598 113.891H65.312V120.722H77.1598V113.891Z" fill="#EDF1F4"/>
<path d="M65.1968 120.722V113.891C65.1968 113.828 65.2486 113.776 65.3119 113.776H77.1589C77.2229 113.776 77.2747 113.828 77.2747 113.891V120.722C77.2747 120.785 77.2229 120.837 77.1589 120.837H65.3119C65.2486 120.837 65.1968 120.785 65.1968 120.722ZM77.0438 114.007H65.4277V120.606H77.0438V114.007Z" fill="#BED0E2"/>
<path d="M89.0067 113.891H77.1597V120.722H89.0067V113.891Z" fill="#EDF1F4"/>
<path d="M77.0439 120.722V113.891C77.0439 113.828 77.0957 113.776 77.159 113.776H89.0061C89.0701 113.776 89.1219 113.828 89.1219 113.891V120.722C89.1219 120.785 89.0701 120.837 89.0061 120.837H77.159C77.0957 120.837 77.0439 120.785 77.0439 120.722ZM88.891 114.007H77.2756V120.606H88.891V114.007Z" fill="#BED0E2"/>
<path d="M100.854 113.891H89.0068V120.722H100.854V113.891Z" fill="#EDF1F4"/>
<path d="M88.8911 120.722V113.891C88.8911 113.828 88.9429 113.776 89.0062 113.776H100.854C100.917 113.776 100.969 113.828 100.969 113.891V120.722C100.969 120.785 100.917 120.837 100.854 120.837H89.0062C88.9429 120.837 88.8911 120.785 88.8911 120.722ZM100.738 114.007H89.122V120.606H100.738V114.007Z" fill="#BED0E2"/>
<path d="M70.5785 107.062H58.7314V113.891H70.5785V107.062Z" fill="#EDF1F4"/>
<path d="M58.6162 113.891V107.061C58.6162 106.998 58.6673 106.946 58.7313 106.946H70.5784C70.6424 106.946 70.6941 106.998 70.6941 107.061V113.891C70.6941 113.955 70.6424 114.006 70.5784 114.006H58.7313C58.6673 114.006 58.6162 113.955 58.6162 113.891ZM70.4633 107.176H58.8471V113.775H70.4633V107.176Z" fill="#BED0E2"/>
<path d="M82.4256 107.062H70.5786V113.891H82.4256V107.062Z" fill="#EDF1F4"/>
<path d="M70.4634 113.891V107.061C70.4634 106.998 70.5152 106.946 70.5785 106.946H82.4255C82.4895 106.946 82.5413 106.998 82.5413 107.061V113.891C82.5413 113.955 82.4895 114.006 82.4255 114.006H70.5785C70.5152 114.006 70.4634 113.955 70.4634 113.891ZM82.3097 107.176H70.6943V113.775H82.3097V107.176Z" fill="#BED0E2"/>
<path d="M94.2726 107.062H82.4248V113.891H94.2726V107.062Z" fill="#EDF1F4"/>
<path d="M82.3096 113.891V107.061C82.3096 106.998 82.3614 106.946 82.4247 106.946H94.2725C94.3358 106.946 94.3875 106.998 94.3875 107.061V113.891C94.3875 113.955 94.3358 114.006 94.2725 114.006H82.4247C82.3614 114.006 82.3096 113.955 82.3096 113.891ZM94.1573 107.176H82.5412V113.775H94.1573V107.176Z" fill="#BED0E2"/>
<path d="M65.3129 100.231H53.4658V107.062H65.3129V100.231Z" fill="#EDF1F4"/>
<path d="M53.3496 107.061V100.231C53.3496 100.168 53.4014 100.116 53.4654 100.116H65.3125C65.3758 100.116 65.4276 100.168 65.4276 100.231V107.061C65.4276 107.125 65.3758 107.176 65.3125 107.176H53.4654C53.4014 107.176 53.3496 107.125 53.3496 107.061ZM65.1967 100.346H53.5805V106.946H65.1967V100.346Z" fill="#BED0E2"/>
<path d="M77.1598 100.231H65.312V107.062H77.1598V100.231Z" fill="#EDF1F4"/>
<path d="M65.1968 107.061V100.231C65.1968 100.168 65.2486 100.116 65.3119 100.116H77.1589C77.2229 100.116 77.2747 100.168 77.2747 100.231V107.061C77.2747 107.125 77.2229 107.176 77.1589 107.176H65.3119C65.2486 107.176 65.1968 107.125 65.1968 107.061ZM77.0438 100.346H65.4277V106.946H77.0438V100.346Z" fill="#BED0E2"/>
<path d="M89.0067 100.231H77.1597V107.062H89.0067V100.231Z" fill="#EDF1F4"/>
<path d="M77.0439 107.061V100.231C77.0439 100.168 77.0957 100.116 77.159 100.116H89.0061C89.0701 100.116 89.1219 100.168 89.1219 100.231V107.061C89.1219 107.125 89.0701 107.176 89.0061 107.176H77.159C77.0957 107.176 77.0439 107.125 77.0439 107.061ZM88.891 100.346H77.2756V106.946H88.891V100.346Z" fill="#BED0E2"/>
<path d="M70.5785 93.4009H58.7314V100.231H70.5785V93.4009Z" fill="#EDF1F4"/>
<path d="M58.6162 100.232V93.4019C58.6162 93.3379 58.6673 93.2861 58.7313 93.2861H70.5784C70.6424 93.2861 70.6941 93.3379 70.6941 93.4019V100.232C70.6941 100.296 70.6424 100.348 70.5784 100.348H58.7313C58.6673 100.348 58.6162 100.295 58.6162 100.232ZM70.4633 93.517H58.8471V100.117H70.4633V93.517Z" fill="#BED0E2"/>
<path d="M82.4256 93.4009H70.5786V100.231H82.4256V93.4009Z" fill="#EDF1F4"/>
<path d="M70.4634 100.232V93.4019C70.4634 93.3379 70.5152 93.2861 70.5785 93.2861H82.4255C82.4895 93.2861 82.5413 93.3379 82.5413 93.4019V100.232C82.5413 100.296 82.4895 100.348 82.4255 100.348H70.5785C70.5152 100.348 70.4634 100.295 70.4634 100.232ZM82.3097 93.517H70.6943V100.117H82.3097V93.517Z" fill="#BED0E2"/>
<path d="M112.714 127.55H100.866V134.381H112.714V127.55Z" fill="#EDF1F4"/>
<path d="M100.751 134.381V127.55C100.751 127.487 100.803 127.435 100.866 127.435H112.714C112.777 127.435 112.829 127.487 112.829 127.55V134.381C112.829 134.444 112.777 134.496 112.714 134.496H100.866C100.803 134.496 100.751 134.444 100.751 134.381ZM112.598 127.665H100.982V134.266H112.598V127.665Z" fill="#BED0E2"/>
<path d="M124.561 127.55H112.714V134.381H124.561V127.55Z" fill="#EDF1F4"/>
<path d="M112.598 134.381V127.55C112.598 127.487 112.65 127.435 112.714 127.435H124.561C124.624 127.435 124.676 127.487 124.676 127.55V134.381C124.676 134.444 124.624 134.496 124.561 134.496H112.714C112.65 134.496 112.598 134.444 112.598 134.381ZM124.444 127.665H112.829V134.266H124.444V127.665Z" fill="#BED0E2"/>
<path d="M136.408 127.55H124.561V134.381H136.408V127.55Z" fill="#EDF1F4"/>
<path d="M124.444 134.381V127.55C124.444 127.487 124.496 127.435 124.56 127.435H136.407C136.471 127.435 136.522 127.487 136.522 127.55V134.381C136.522 134.444 136.471 134.496 136.407 134.496H124.56C124.497 134.496 124.444 134.444 124.444 134.381ZM136.292 127.665H124.676V134.266H136.292V127.665Z" fill="#BED0E2"/>
<path d="M148.255 127.55H136.407V134.381H148.255V127.55Z" fill="#EDF1F4"/>
<path d="M136.292 134.381V127.55C136.292 127.487 136.344 127.435 136.407 127.435H148.255C148.318 127.435 148.37 127.487 148.37 127.55V134.381C148.37 134.444 148.318 134.496 148.255 134.496H136.407C136.344 134.496 136.292 134.444 136.292 134.381ZM148.139 127.665H136.523V134.266H148.139V127.665Z" fill="#BED0E2"/>
<path d="M117.979 120.721H106.132V127.551H117.979V120.721Z" fill="#EDF1F4"/>
<path d="M106.017 127.551V120.721C106.017 120.657 106.068 120.605 106.132 120.605H117.979C118.043 120.605 118.095 120.657 118.095 120.721V127.551C118.095 127.615 118.043 127.666 117.979 127.666H106.132C106.069 127.666 106.017 127.615 106.017 127.551ZM117.864 120.836H106.248V127.436H117.864V120.836Z" fill="#BED0E2"/>
<path d="M129.827 120.721H117.979V127.551H129.827V120.721Z" fill="#EDF1F4"/>
<path d="M117.864 127.551V120.721C117.864 120.657 117.916 120.605 117.98 120.605H129.827C129.89 120.605 129.942 120.657 129.942 120.721V127.551C129.942 127.615 129.89 127.666 129.827 127.666H117.98C117.916 127.666 117.864 127.615 117.864 127.551ZM129.712 120.836H118.095V127.436H129.712V120.836Z" fill="#BED0E2"/>
<path d="M141.674 120.721H129.827V127.551H141.674V120.721Z" fill="#EDF1F4"/>
<path d="M129.712 127.551V120.721C129.712 120.657 129.764 120.605 129.827 120.605H141.675C141.738 120.605 141.79 120.657 141.79 120.721V127.551C141.79 127.615 141.738 127.666 141.675 127.666H129.827C129.764 127.666 129.712 127.615 129.712 127.551ZM141.558 120.836H129.942V127.436H141.558V120.836Z" fill="#BED0E2"/>
<path d="M153.521 120.721H141.674V127.551H153.521V120.721Z" fill="#EDF1F4"/>
<path d="M141.558 127.551V120.721C141.558 120.657 141.61 120.605 141.674 120.605H153.521C153.584 120.605 153.636 120.657 153.636 120.721V127.551C153.636 127.615 153.584 127.666 153.521 127.666H141.674C141.611 127.666 141.558 127.615 141.558 127.551ZM153.405 120.836H141.79V127.436H153.405V120.836Z" fill="#BED0E2"/>
<path d="M160.109 127.55H148.262V134.381H160.109V127.55Z" fill="#EDF1F4"/>
<path d="M148.146 134.381V127.55C148.146 127.487 148.197 127.435 148.261 127.435H160.108C160.172 127.435 160.223 127.487 160.223 127.55V134.381C160.223 134.444 160.172 134.496 160.108 134.496H148.261C148.197 134.496 148.146 134.444 148.146 134.381ZM159.993 127.665H148.376V134.266H159.993V127.665Z" fill="#BED0E2"/>
<path d="M171.956 127.55H160.108V134.381H171.956V127.55Z" fill="#EDF1F4"/>
<path d="M159.993 134.381V127.55C159.993 127.487 160.044 127.435 160.108 127.435H171.955C172.019 127.435 172.071 127.487 172.071 127.55V134.381C172.071 134.444 172.019 134.496 171.955 134.496H160.108C160.045 134.496 159.993 134.444 159.993 134.381ZM171.84 127.665H160.224V134.266H171.84V127.665Z" fill="#BED0E2"/>
<path d="M183.803 127.55H171.956V134.381H183.803V127.55Z" fill="#EDF1F4"/>
<path d="M171.84 134.381V127.55C171.84 127.487 171.892 127.435 171.955 127.435H183.802C183.866 127.435 183.918 127.487 183.918 127.55V134.381C183.918 134.444 183.866 134.496 183.802 134.496H171.955C171.892 134.496 171.84 134.444 171.84 134.381ZM183.687 127.665H172.071V134.266H183.687V127.665Z" fill="#BED0E2"/>
<path d="M112.3 153.531C112.3 153.531 95.3308 138.16 87.3832 136.855C79.4355 135.549 63.7222 154.707 63.7222 154.707C63.7222 154.707 100.913 156.501 112.3 153.531Z" fill="#F0C960"/>
<path d="M130.341 154.64C130.341 154.64 117.904 143.376 112.079 142.419C106.255 141.463 94.7383 155.504 94.7383 155.504C94.7383 155.504 121.995 156.818 130.341 154.64Z" fill="#F0C960"/>
<path d="M103.732 146.385C103.732 146.385 99.0513 150.63 97.3364 152.547L102.307 145.291L103.732 146.385Z" fill="#E9A754"/>
<path d="M196.259 136.038H130.626V155.157H196.259C199.977 155.157 202.99 150.877 202.99 145.597C202.99 140.318 199.977 136.038 196.259 136.038Z" fill="#3D495F"/>
<path d="M196.259 136.038H130.626C130.626 136.038 188.961 137.634 201.018 138.838C199.801 137.107 198.118 136.038 196.259 136.038Z" fill="#53607D"/>
<path d="M130.626 136.038C127.246 139.417 130.626 155.157 130.626 155.157H196.26C199.977 155.157 202.99 150.877 202.99 145.597C199.302 150.474 145.064 159.644 130.626 136.038Z" fill="#313D51"/>
<path d="M130.626 155.157C134.343 155.157 137.357 150.877 137.357 145.597C137.357 140.318 134.343 136.038 130.626 136.038C126.909 136.038 123.896 140.318 123.896 145.597C123.896 150.877 126.909 155.157 130.626 155.157Z" fill="#53607D"/>
<path d="M135.994 145.595C135.994 149.06 134.366 151.981 132.137 152.905C131.656 153.11 131.154 153.216 130.626 153.216C127.665 153.216 125.259 149.804 125.259 145.595C125.259 141.386 127.665 137.975 130.626 137.975C131.153 137.975 131.656 138.08 132.137 138.285C134.366 139.21 135.994 142.131 135.994 145.595Z" fill="#3D495F"/>
<path d="M135.994 145.595C135.994 149.06 134.366 151.981 132.137 152.905C129.906 151.981 128.28 149.06 128.28 145.595C128.28 142.131 129.907 139.21 132.137 138.285C134.366 139.21 135.994 142.131 135.994 145.595Z" fill="#313D51"/>
<path d="M202.991 118.317H137.357V137.436H202.991C206.708 137.436 209.721 133.157 209.721 127.877C209.721 122.597 206.708 118.317 202.991 118.317Z" fill="#3D495F"/>
<path d="M202.991 118.317H137.357C137.357 118.317 195.693 119.914 207.75 121.117C206.532 119.387 204.85 118.317 202.991 118.317Z" fill="#53607D"/>
<path d="M137.357 118.317C133.977 121.696 137.357 137.436 137.357 137.436H202.991C206.708 137.436 209.721 133.157 209.721 127.877C206.033 132.754 151.794 141.924 137.357 118.317Z" fill="#313D51"/>
<path d="M137.358 137.437C141.075 137.437 144.088 133.157 144.088 127.877C144.088 122.597 141.075 118.316 137.358 118.316C133.64 118.316 130.627 122.597 130.627 127.877C130.627 133.157 133.64 137.437 137.358 137.437Z" fill="#53607D"/>
<path d="M142.724 127.874C142.724 131.339 141.096 134.26 138.867 135.185C138.387 135.39 137.884 135.495 137.357 135.495C134.395 135.495 131.99 132.083 131.99 127.874C131.99 123.666 134.395 120.254 137.357 120.254C137.883 120.254 138.387 120.359 138.867 120.564C141.097 121.489 142.724 124.41 142.724 127.874Z" fill="#3D495F"/>
<path d="M142.724 127.875C142.724 131.34 141.096 134.261 138.867 135.186C136.637 134.261 135.01 131.34 135.01 127.875C135.01 124.411 136.637 121.489 138.867 120.564C141.097 121.489 142.724 124.411 142.724 127.875Z" fill="#313D51"/>
<path d="M211.478 136.038H145.845V155.157H211.478C215.196 155.157 218.209 150.877 218.209 145.597C218.209 140.318 215.195 136.038 211.478 136.038Z" fill="#3D495F"/>
<path d="M211.478 136.038H145.845C145.845 136.038 204.18 137.634 216.237 138.838C215.019 137.107 213.337 136.038 211.478 136.038Z" fill="#53607D"/>
<path d="M145.844 136.038C142.464 139.417 145.844 155.157 145.844 155.157H211.478C215.195 155.157 218.208 150.877 218.208 145.597C214.52 150.474 160.282 159.644 145.844 136.038Z" fill="#313D51"/>
<path d="M145.844 155.157C149.561 155.157 152.574 150.877 152.574 145.597C152.574 140.318 149.561 136.038 145.844 136.038C142.127 136.038 139.113 140.318 139.113 145.597C139.113 150.877 142.127 155.157 145.844 155.157Z" fill="#53607D"/>
<path d="M151.211 145.595C151.211 149.06 149.584 151.981 147.355 152.905C146.874 153.11 146.371 153.216 145.844 153.216C142.883 153.216 140.477 149.804 140.477 145.595C140.477 141.386 142.883 137.975 145.844 137.975C146.371 137.975 146.874 138.08 147.355 138.285C149.584 139.21 151.211 142.131 151.211 145.595Z" fill="#3D495F"/>
<path d="M151.211 145.595C151.211 149.06 149.584 151.981 147.355 152.905C145.124 151.981 143.498 149.06 143.498 145.595C143.498 142.131 145.125 139.21 147.355 138.285C149.585 139.21 151.211 142.131 151.211 145.595Z" fill="#313D51"/>
</svg>
