<svg width="295" height="158" viewBox="0 0 295 158" fill="none" xmlns="http://www.w3.org/2000/svg">
<path d="M147.416 157.78C228.832 157.78 294.832 155.474 294.832 152.63C294.832 149.786 228.832 147.48 147.416 147.48C66.0005 147.48 0 149.786 0 152.63C0 155.474 66.0005 157.78 147.416 157.78Z" fill="#EDF1F4"/>
<path d="M182.719 10.6967L182.699 18.289L154.38 18.186L154.398 10.5938L182.719 10.6967Z" fill="#F0C960"/>
<path d="M184.601 10.6967L184.582 18.289L156.261 18.186L156.281 10.5938L184.601 10.6967Z" fill="#EDF1F4"/>
<path d="M186.059 10.5938H154.398V11.8516H186.059V10.5938Z" fill="#F0C960"/>
<path d="M186.059 16.9048H154.398V18.1627H186.059V16.9048Z" fill="#F0C960"/>
<path d="M172.659 18.1792L172.64 25.7727L144.32 25.6697L144.339 18.0762L172.659 18.1792Z" fill="#DE568E"/>
<path d="M174.541 18.1792L174.522 25.7727L146.203 25.6697L146.221 18.0762L174.541 18.1792Z" fill="#EDF1F4"/>
<path d="M176 18.0762H144.339V19.3341H176V18.0762Z" fill="#DE568E"/>
<path d="M176 24.3882H144.339V25.646H176V24.3882Z" fill="#DE568E"/>
<path d="M151.2 25.3384L151.177 32.9307L185.216 33.0328L185.239 25.4405L151.2 25.3384Z" fill="#5771AD"/>
<path d="M153.461 25.3389L153.438 32.9312L187.478 33.0333L187.5 25.441L153.461 25.3389Z" fill="#EDF1F4"/>
<path d="M189.246 25.3296H151.192V26.5887H189.246V25.3296Z" fill="#5771AD"/>
<path d="M189.247 31.6411H151.193V32.899H189.247V31.6411Z" fill="#5771AD"/>
<path d="M138.334 0H126.173V36.0236H138.334V0Z" fill="#E8CB80"/>
<path d="M241.535 0H232.624V36.0236H241.535V0Z" fill="#E8CB80"/>
<path d="M236.485 0H228.474V36.0236H236.485V0Z" fill="#F5DD98"/>
<path d="M134.184 0H126.173V36.0236H134.184V0Z" fill="#F5DD98"/>
<path d="M236.485 0H126.173V3.40666H236.485V0Z" fill="#F5DD98"/>
<path d="M210.732 8.22363H204.302V32.808H210.732V8.22363Z" fill="#DE568E"/>
<path d="M217.829 32.99L223.983 31.1279L216.864 7.59699L210.71 9.45903L217.829 32.99Z" fill="#F0C960"/>
<path d="M202.745 15.1724H196.891V32.8069H202.745V15.1724Z" fill="#5771AD"/>
<path d="M236.485 32.6157H126.173V36.0237H236.485V32.6157Z" fill="#F5DD98"/>
<path d="M158.622 105.011H157.024C156.394 105.011 155.884 104.501 155.884 103.871L156.984 100.239H160.862L159.763 103.871C159.761 104.501 159.251 105.011 158.622 105.011Z" fill="#E38038"/>
<path d="M157.93 105.011H156.332C155.703 105.011 155.193 104.501 155.193 103.871L156.292 100.239H160.169L159.07 103.871C159.07 104.501 158.56 105.011 157.93 105.011Z" fill="#E8A148"/>
<path d="M171.495 105.011H169.897C169.268 105.011 168.758 104.501 168.758 103.871L167.658 100.239H171.535L172.635 103.871C172.635 104.501 172.125 105.011 171.495 105.011Z" fill="#E38038"/>
<path d="M164.578 102.045C174.108 102.045 181.833 94.32 181.833 84.7904C181.833 75.2609 174.108 67.5356 164.578 67.5356C155.048 67.5356 147.323 75.2609 147.323 84.7904C147.323 94.32 155.048 102.045 164.578 102.045Z" fill="#E38038"/>
<path d="M155.216 65.7297L148.258 69.2905L151.189 75.0159L158.146 71.4551L155.216 65.7297Z" fill="#E38038"/>
<path d="M158.095 66.8601L147.28 72.3949L147.254 72.346C145.725 69.3603 146.907 65.6987 149.894 64.1705C152.879 62.641 156.541 63.8229 158.069 66.8098L158.095 66.8601Z" fill="#E8A148"/>
<path d="M178.599 70.2756L172.345 65.5869L168.487 70.7328L174.741 75.4214L178.599 70.2756Z" fill="#E38038"/>
<path d="M178.827 73.383L169.105 66.0958L169.139 66.0521C171.151 63.3664 174.958 62.8205 177.643 64.8341C180.327 66.8465 180.873 70.6548 178.861 73.3379L178.827 73.383Z" fill="#E8A148"/>
<path d="M163.093 102.092C172.622 102.092 180.347 94.3664 180.347 84.8368C180.347 75.3073 172.622 67.582 163.093 67.582C153.563 67.582 145.838 75.3073 145.838 84.8368C145.838 94.3664 153.563 102.092 163.093 102.092Z" fill="#E8A148"/>
<path d="M170.804 105.011H169.206C168.576 105.011 168.066 104.501 168.066 103.871L166.967 100.239H170.844L171.945 103.871C171.943 104.501 171.433 105.011 170.804 105.011Z" fill="#E8A148"/>
<path d="M163.284 99.8249C171.586 99.8249 178.317 93.0946 178.317 84.7924C178.317 76.4901 171.586 69.7598 163.284 69.7598C154.982 69.7598 148.251 76.4901 148.251 84.7924C148.251 93.0946 154.982 99.8249 163.284 99.8249Z" fill="white"/>
<path d="M163.593 70.8696H162.974V73.4513H163.593V70.8696Z" fill="#D3DDF8"/>
<path d="M156.566 72.57L156.029 72.8794L156.918 74.4197L157.454 74.1102L156.566 72.57Z" fill="#D3DDF8"/>
<path d="M151.397 77.5707L151.088 78.106L152.629 78.9959L152.938 78.4606L151.397 77.5707Z" fill="#D3DDF8"/>
<path d="M151.943 84.48H149.363V85.0993H151.943V84.48Z" fill="#D3DDF8"/>
<path d="M151.076 91.4667L151.385 92.002L152.926 91.1121L152.617 90.5768L151.076 91.4667Z" fill="#D3DDF8"/>
<path d="M156.046 96.7194L156.582 97.0288L157.47 95.4885L156.934 95.1791L156.046 96.7194Z" fill="#D3DDF8"/>
<path d="M163.593 96.0767H162.974V98.7124H163.593V96.0767Z" fill="#D3DDF8"/>
<path d="M170.003 97.0116L170.539 96.7021L169.651 95.1619L169.114 95.4713L170.003 97.0116Z" fill="#D3DDF8"/>
<path d="M175.214 92.0277L175.524 91.4917L173.984 90.6006L173.674 91.1366L175.214 92.0277Z" fill="#D3DDF8"/>
<path d="M177.205 84.48H174.569V85.0993H177.205V84.48Z" fill="#D3DDF8"/>
<path d="M175.507 78.0687L175.197 77.5327L173.656 78.4245L173.966 78.9605L175.507 78.0687Z" fill="#D3DDF8"/>
<path d="M170.521 72.8622L169.984 72.5527L169.095 74.0941L169.632 74.4035L170.521 72.8622Z" fill="#D3DDF8"/>
<path d="M163.296 85.6651L164.081 84.8804L155.241 76.0406L154.456 76.8254L163.296 85.6651Z" fill="#53607D"/>
<path d="M162.865 86.4101L162.441 85.8413L155.646 90.9076L156.07 91.4764L162.865 86.4101Z" fill="#53607D"/>
<path d="M163.284 87.0416C164.414 87.0416 165.329 86.1261 165.329 84.9968C165.329 83.8676 164.414 82.9521 163.284 82.9521C162.155 82.9521 161.24 83.8676 161.24 84.9968C161.24 86.1261 162.155 87.0416 163.284 87.0416Z" fill="#F0C960"/>
<path d="M163.284 86.0814C163.883 86.0814 164.369 85.596 164.369 84.9972C164.369 84.3985 163.883 83.9131 163.284 83.9131C162.686 83.9131 162.2 84.3985 162.2 84.9972C162.2 85.596 162.686 86.0814 163.284 86.0814Z" fill="white"/>
<path d="M233.828 85.5787C233.828 85.5787 229.969 99.1654 229.969 105.635C229.969 105.635 198.916 105.15 186.79 105.635C186.79 105.635 187.588 92.3457 188.017 84.2217C188.017 84.2217 222.252 86.0641 233.828 85.5787Z" fill="#EDF1F4"/>
<path d="M233.828 85.5791C233.828 85.5791 235.71 85.9434 239.216 86.4044C239.216 86.4044 236.046 101.716 236.413 105.274L229.969 105.635C229.969 105.635 230.107 93.3825 233.828 85.5791Z" fill="#F5F8FF"/>
<path d="M187.348 95.5693C187.348 95.5693 190.762 96.0535 197.491 96.4115C197.491 96.4115 192.859 96.9458 187.287 96.7668L187.348 95.5693Z" fill="#DFE5EA"/>
<path d="M188.017 88.1382C188.017 88.1382 196.344 91.0775 206.954 91.5629C206.954 91.5629 196.397 91.8049 187.611 91.5629L188.017 88.1382Z" fill="#DFE5EA"/>
<path d="M230.335 99.9983C230.335 99.9983 219.495 99.6906 216.049 99.0842L230.586 97.8843L230.335 99.9983Z" fill="#DFE5EA"/>
<path d="M238.115 90.5068C238.115 90.5068 236.795 91.6515 233.303 92.6224L237.846 92.4589L238.115 90.5068Z" fill="#EDF1F4"/>
<path d="M234.976 101.873L230.106 103.29L230.26 101.617C230.26 101.617 233.277 102.359 234.976 101.873Z" fill="#EDF1F4"/>
<path d="M146.407 109.03H240.931L243.589 104.453H143.748L146.407 109.03Z" fill="#5D3E4A"/>
<path d="M241.635 153.617H244.011L239.455 109.03H234.418L241.635 153.617Z" fill="#5D3E4A"/>
<path d="M235.5 115.952L240.741 121.194L239.455 109.03H234.418L235.5 115.952Z" fill="#4A2F3B"/>
<path d="M229.375 153.617H231.751L227.195 109.03H222.158L229.375 153.617Z" fill="#4A2F3B"/>
<path d="M146.66 153.617H144.283L148.84 109.03H153.876L146.66 153.617Z" fill="#5D3E4A"/>
<path d="M153.014 114.568L148.001 116.982L148.841 109.03H153.878L153.014 114.568Z" fill="#4A2F3B"/>
<path d="M158.045 153.617H155.668L160.225 109.03H165.261L158.045 153.617Z" fill="#4A2F3B"/>
<path d="M223.108 115.112L228.249 118.989L227.195 109.03H222.158L223.108 115.112Z" fill="#3D2531"/>
<path d="M164.605 113.234L159.384 116.982L160.225 109.03H165.262L164.605 113.234Z" fill="#3D2531"/>
<path d="M22.0248 136.499C28.0965 150.151 50.1884 156.753 87.0514 153.021C113.034 150.394 117.226 140.102 114.713 125.03C112.659 112.742 90.8688 101.33 90.8688 101.33C84.5962 83.8898 70.8009 62.7739 52.0101 63.3326H51.996C49.8858 63.3906 47.7048 63.7356 45.4646 64.3806C34.9433 67.4229 28.1377 74.6444 23.9611 83.4868C22.5835 86.4146 21.4776 89.5289 20.6304 92.7167C16.1539 109.57 18.5795 128.747 22.0248 136.499Z" fill="#F0C960"/>
<path d="M45.4707 115.188C45.4707 115.188 64.7545 102.105 87.0511 104.163C87.0511 104.163 66.8918 91.5628 45.4707 115.188Z" fill="#E9A754"/>
<path d="M55.8855 130.208C57.034 136.925 69.4864 140.4 83.7002 137.971C97.914 135.542 108.506 128.129 107.359 121.413C106.212 114.698 98.6851 108.685 79.5442 113.65C65.5867 117.27 54.7384 123.491 55.8855 130.208Z" fill="#FFD985"/>
<path d="M66.2713 74.1097C64.0607 67.6646 55.4899 64.7652 47.1278 67.6337C38.7656 70.5022 33.7779 78.0519 35.9898 84.497C38.2004 90.9422 44.2489 96.4732 55.1333 90.9731C63.0693 86.9613 68.4819 80.5548 66.2713 74.1097Z" fill="#FFD985"/>
<path d="M20.6327 92.72L20.6315 92.7161C20.6366 92.6968 20.6418 92.6801 20.6482 92.6608C20.8465 91.9179 21.0602 91.1802 21.2855 90.4463C21.3254 90.3137 21.3705 90.1837 21.413 90.0511C21.6048 89.4447 21.8069 88.8421 22.0181 88.2434C22.076 88.0774 22.1365 87.9113 22.197 87.7452C22.412 87.1568 22.6373 86.5723 22.8717 85.9942C22.927 85.8591 22.9798 85.7213 23.0352 85.5861C23.33 84.878 23.6351 84.175 23.9609 83.4862C28.1375 74.6438 34.9418 67.4223 45.4643 64.38C47.7045 63.7337 49.8855 63.3887 51.9957 63.332H52.0099C52.0099 63.332 22.555 67.5717 23.8914 101.942C24.9934 130.292 43.5962 146.915 69.0149 147.997C117.821 150.075 114.711 125.029 114.711 125.029C117.223 140.102 113.031 150.394 87.0499 153.02C50.1868 156.753 28.095 150.151 22.0232 136.498C18.5857 128.75 16.1523 109.569 20.6327 92.72Z" fill="#E9A754"/>
<path d="M58.3624 12.3237C58.3624 12.3237 51.3559 26.4847 66.7683 35.3567L68.1923 23.5479L62.8364 15.0802L58.3624 12.3237Z" fill="#5D3E4A"/>
<path d="M122.843 146.153C121.458 146.797 120.381 151.142 120.381 151.142H133.265C133.265 151.142 130.247 149.94 127.281 148.616C123.89 147.103 123.93 145.647 122.843 146.153Z" fill="#E8A148"/>
<path d="M133.265 151.142H120.381V152.296H133.265V151.142Z" fill="#E38038"/>
<path d="M100.04 146.153C98.653 146.797 97.5767 151.142 97.5767 151.142H110.46C110.46 151.142 107.443 149.94 104.478 148.616C101.085 147.103 101.125 145.647 100.04 146.153Z" fill="#E8A148"/>
<path d="M110.46 151.142H97.5767V152.296H110.46V151.142Z" fill="#E38038"/>
<path d="M119.003 99.0234C121.735 103.168 125.649 147.748 125.649 147.748L121.138 148.768L107.881 109.101C107.881 109.101 86.98 108.428 84.4025 104.363C81.9846 100.549 81.9846 93.8259 81.9846 93.8259C83.1665 93.8774 75.3335 87.1851 75.3335 87.1851C93.2655 87.1863 116.931 95.8794 119.003 99.0234Z" fill="#53607D"/>
<path d="M107.881 109.101L121.138 148.768L122.668 148.404C122.668 148.404 112.071 104.225 110.571 100.437C107.844 93.5481 86.5991 88.8179 86.5991 88.8179L96.4007 107.959C96.4007 107.959 106.598 109.6 107.881 109.101Z" fill="#3D495F"/>
<path d="M107.61 101.756C109.095 105.769 102.471 147.518 102.471 147.518L98.4878 147.639L92.8229 108.725C92.8229 108.725 65.267 111.197 62.6895 107.134C60.2716 103.32 58.8618 92.1822 58.8618 92.1822C60.0437 92.2337 71.2525 87.0645 71.2525 87.0645C89.1845 87.0645 106.3 98.223 107.61 101.756Z" fill="#53607D"/>
<path d="M95.3088 106.279C96.7946 110.292 100.491 147.578 100.491 147.578L98.4863 147.639L92.8214 108.725C92.8214 108.725 65.2656 111.197 62.688 107.134C60.2701 103.32 58.8604 92.1822 58.8604 92.1822C60.0423 92.2337 71.251 87.0645 71.251 87.0645C54.9142 116.418 94.0021 102.746 95.3088 106.279Z" fill="#3D495F"/>
<path d="M82.1795 44.2289C89.1177 44.6795 98.73 71.2428 103.653 76.7055C107.907 81.4254 93.772 87.5499 90.1863 85.1861C86.6007 82.8197 78.084 43.9637 82.1795 44.2289Z" fill="#7B519B"/>
<path d="M82.1796 44.2285C90.0152 51.1011 86.0189 85.7625 98.7302 82.867C98.7302 82.867 93.2352 87.9731 90.1865 85.1857C82.4873 78.1445 67.1046 44.8014 82.1796 44.2285Z" fill="#684488"/>
<path d="M81.515 33.1362C81.3682 33.5096 81.233 33.8611 81.1313 34.1868C80.8493 35.079 80.6343 35.9622 80.4991 36.821C80.3408 37.6797 80.2506 38.4935 80.2043 39.2505C80.0459 41.6916 80.2944 43.4438 80.2944 43.4438C73.4231 46.8337 65.9751 42.1666 65.9751 42.1666C66.3034 41.2062 66.5635 40.032 66.7669 38.8565C67.1853 36.4489 67.3553 34.0298 67.3875 33.3294C67.399 33.2843 67.399 33.2496 67.399 33.2174C67.4106 33.1594 67.4106 33.1362 67.4106 33.1362H81.515Z" fill="#F5B379"/>
<path d="M81.5152 33.1365C81.3684 33.5099 81.2332 33.8614 81.1315 34.1871C80.7362 35.3059 80.5547 36.1647 80.4993 36.8213C80.341 37.68 80.2508 38.4937 80.2045 39.2508C76.9382 40.6863 73.2547 41.2631 70.5754 40.6863C68.8464 40.3245 67.5357 39.4774 66.7671 38.8555C67.1855 36.4479 67.3555 34.0288 67.3877 33.3284C67.3992 33.2833 67.3992 33.2485 67.3992 33.2163C67.4108 33.1584 67.4108 33.1353 67.4108 33.1353L81.5152 33.1365Z" fill="#F29866"/>
<path d="M65.5624 40.3643C65.5624 40.3643 56.4471 46.3922 53.0571 49.029C53.0571 49.029 59.461 88.0177 58.6139 99.6964C58.6139 99.6964 86.0191 94.9868 91.2926 88.9601C91.2926 88.9601 86.0191 75.0219 86.0191 64.8508C86.0191 54.6797 85.078 45.4498 80.9336 42.8131C80.9336 42.8131 74.6031 46.9574 65.5624 40.3643Z" fill="#7B519B"/>
<path d="M55.8813 67.8625C55.8813 67.8625 59.7412 94.7038 58.6133 99.6954C58.6133 99.6954 66.2674 98.6551 71.0439 97.0715C71.0439 97.0715 61.3505 82.644 61.5964 73.445C62.1127 54.1032 53.1802 48.9829 53.1802 48.9829C53.1802 48.9829 57.5769 63.9074 55.8813 67.8625Z" fill="#684488"/>
<path d="M53.1817 48.9829C44.3226 54.4792 40.2632 79.2013 43.7947 94.4451C44.9045 99.237 50.4999 99.0503 55.3022 95.8136C58.6947 93.5271 56.7339 90.7989 57.0609 89.8114C57.8798 87.3369 60.4045 68.053 60.4045 68.053C60.4045 68.053 59.2277 55.3122 53.1817 48.9829Z" fill="#7B519B"/>
<path d="M87.3985 89.5294C85.6823 89.7444 83.5734 90.4126 81.9756 91.1876C81.3151 91.5082 80.8851 91.8146 80.7757 92.5137C80.5581 92.797 80.5092 93.2926 80.8645 93.5604C82.7365 94.9676 84.2635 94.5364 86.1033 93.375C88.0074 92.1738 88.9846 93.142 90.6777 93.8771C91.3047 94.1501 91.6536 94.2879 92.2561 93.9776C92.4428 93.881 92.52 93.6184 92.5355 93.4008C92.7003 91.0743 88.9808 89.3324 87.3985 89.5294Z" fill="#F5B379"/>
<path d="M89.1467 88.2902C87.4253 88.3455 85.2946 88.7279 83.6711 89.2287C82.999 89.436 81.5416 88.6262 81.4064 89.1669C81.1772 89.3729 81.1296 91.232 81.4746 91.4651C83.2912 92.6895 85.8314 91.9994 87.7112 91.214C89.6565 90.4016 90.5964 91.223 92.2598 91.9093C92.8765 92.1629 93.219 92.2955 93.8318 92.0934C94.0224 92.029 94.1086 91.8294 94.1331 91.6595C94.3842 89.8493 90.7342 88.2412 89.1467 88.2902Z" fill="#F5B379"/>
<path d="M89.9249 87.5636C88.2035 87.6177 86.0727 88.0013 84.4492 88.5022C83.7772 88.7094 83.3381 88.9206 83.203 89.46C82.9738 89.6673 82.9081 90.0523 83.2532 90.2853C85.0698 91.5097 86.6096 91.2741 88.4893 90.4874C90.4347 89.675 91.3746 90.4965 93.038 91.1827C93.6547 91.4363 93.9972 91.5689 94.61 91.3655C94.8006 91.3024 94.8868 91.1029 94.9113 90.9329C95.161 89.1214 91.5123 87.5147 89.9249 87.5636Z" fill="#F5B379"/>
<path d="M93.9716 89.1502V89.1476C93.6047 88.3699 92.6893 87.6322 91.6966 87.1018C90.5276 86.3731 88.9517 85.7963 87.0669 86.0988C82.8414 86.7773 79.6768 87.8344 79.6768 87.8344L82.4178 89.1952C82.701 91.0209 86.0099 90.2793 87.7106 89.5686C89.656 88.7549 90.5959 89.5776 92.2593 90.2638C92.876 90.5175 93.2185 90.6501 93.8313 90.4466C94.0218 90.3836 94.1094 90.184 94.1326 90.014C94.1738 89.7257 94.1055 89.436 93.9716 89.1502Z" fill="#F5B379"/>
<path d="M65.5622 40.3643C65.5622 40.3643 70.9657 44.9606 78.4614 43.7748L77.6567 48.0969C77.6567 48.0969 65.4592 45.8515 65.5622 40.3643Z" fill="white"/>
<path d="M78.4614 43.7749L81.0907 47.3634C81.0907 47.3634 81.8491 44.7676 81.8826 43.5856C81.8826 43.5856 81.1409 42.6546 80.2087 42.54C80.2087 42.54 80.0542 43.6036 78.4614 43.7749Z" fill="white"/>
<path d="M51.5893 100.808C56.8632 100.808 61.1385 96.9526 61.1385 92.1971C61.1385 87.4416 56.8632 83.5864 51.5893 83.5864C46.3154 83.5864 42.04 87.4416 42.04 92.1971C42.04 96.9526 46.3154 100.808 51.5893 100.808Z" fill="#986BBF"/>
<path d="M61.1385 92.1973C61.1385 96.9519 56.8641 100.808 51.5893 100.808C46.3145 100.808 42.04 96.9532 42.04 92.1973C47.9418 101.289 56.3066 96.9867 61.1385 92.1973Z" fill="#7B519B"/>
<path d="M64.3604 28.8403C64.3604 28.8403 65.4869 36.3437 68.1533 37.8243C70.8197 39.3049 80.1732 39.4298 82.1585 37.0518C84.1451 34.6738 83.7704 15.0578 83.025 13.5283C82.2795 11.9988 69.3455 6.32353 64.9539 12.5755C60.5636 18.8275 64.3604 28.8403 64.3604 28.8403Z" fill="#F5B379"/>
<path d="M70.1016 16.512C70.3244 15.9313 75.5701 14.9605 76.0156 15.3081C76.3993 15.6081 76.5654 17.4121 76.2885 17.9001C76.143 18.1537 70.5613 18.2503 70.4866 18.0675C70.2999 17.6155 69.9935 16.7927 70.1016 16.512Z" fill="#4A2F3B"/>
<path d="M85.0558 16.7691C84.8678 16.1768 79.9454 14.8132 79.5101 15.1261C79.1355 15.3939 78.8934 17.1798 79.1509 17.6743C79.2848 17.9331 84.5524 18.4597 84.6309 18.2833C84.8253 17.8481 85.1472 17.0549 85.0558 16.7691Z" fill="#4A2F3B"/>
<path d="M73.3007 22.3314C73.4861 23.4233 74.1531 24.1405 74.8291 23.9435C75.5386 23.7336 76.0021 22.5863 75.8231 21.3683C75.6429 20.1257 74.878 19.3892 74.1608 19.7279C73.4823 20.0472 73.1115 21.2151 73.3007 22.3314Z" fill="#503D39"/>
<path d="M80.8508 22.0851C80.901 23.1937 81.371 24.0744 81.9298 24.0602C82.508 24.0435 82.9548 23.0649 82.9045 21.8662C82.8543 20.6687 82.3264 19.7803 81.7483 19.8871C81.192 19.9901 80.8019 20.9726 80.8508 22.0851Z" fill="#503D39"/>
<path d="M75.791 32.0849C75.791 32.0849 79.3139 33.0893 81.4938 31.7373C81.4938 31.7373 81.4938 34.7554 79.5959 35.2769C77.698 35.7997 76.5777 33.6597 75.791 32.0849Z" fill="white"/>
<path d="M79.4036 23.9551C79.4036 23.9551 81.1933 27.8707 80.7864 28.9085C80.3796 29.945 77.458 29.3604 77.458 29.3604L79.4036 23.9551Z" fill="#F5B379"/>
<path d="M79.4036 23.9551C80.3294 25.1487 80.9938 26.4646 81.2886 28.0175C81.3105 28.2209 81.3285 28.4282 81.3092 28.6664C81.295 28.9033 81.1959 29.2342 80.9667 29.4415C80.5161 29.8226 80.0693 29.8587 79.674 29.8716C78.8744 29.8819 78.1443 29.6707 77.458 29.3604C78.2035 29.3025 78.9387 29.2484 79.5928 29.1222C79.9083 29.0501 80.2263 28.9355 80.3087 28.8055C80.3847 28.772 80.386 28.481 80.3332 28.1527C80.2392 27.4999 80.0396 26.8058 79.8723 26.1092C79.6868 25.4126 79.531 24.6954 79.4036 23.9551Z" fill="#F29866"/>
<path d="M84.2653 1.18848C79.7591 6.25856 63.618 -0.104146 59.2058 10.5678C58.3703 9.43349 57.9814 8.11125 58.0729 6.6667C58.1179 5.94185 56.9888 5.99852 56.9437 6.71951C56.8407 8.36491 57.3119 9.89699 58.2467 11.1961C57.1472 11.4664 56.085 11.8037 55.0885 12.3883C54.4589 12.7565 55.0653 13.7105 55.6923 13.3423C56.533 12.8505 57.4355 12.5595 58.3638 12.3252C57.0854 13.9835 55.5121 22.455 59.5406 27.9049C60.6311 29.3791 62.1709 29.343 62.8378 28.7251C65.5582 26.2003 66.3423 21.1586 66.5033 15.0817C70.3863 12.7706 78.3326 12.463 83.0267 13.5303C85.8437 14.1689 87.3424 4.94019 84.2653 1.18848Z" fill="#5D3E4A"/>
<path d="M84.265 1.18848C85.053 3.6025 84.9448 7.83315 81.8768 9.23521C77.1028 11.4162 62.4204 6.83924 63.7658 12.3239C65.5618 19.6458 62.1693 29.3418 62.8362 28.7225C65.5567 26.1978 66.3408 21.156 66.5017 15.0791C70.3847 12.7681 78.331 12.4604 83.0252 13.5277C85.8435 14.1688 87.3421 4.94019 84.265 1.18848Z" fill="#4A2F3B"/>
<path d="M64.8052 24.7905C63.9129 23.8764 60.1325 22.7871 59.6586 24.2987C58.9015 26.7168 61.8218 31.3805 65.3086 29.4877C66.5795 28.7989 65.579 25.585 64.8052 24.7905Z" fill="#F5B379"/>
<path d="M64.1399 26.3297C64.1399 26.3297 61.3702 24.5142 61.1088 25.337C60.5989 26.9426 62.8793 28.2676 63.5334 28.5006C63.5334 28.5006 62.26 27.1036 62.5883 26.5036C62.9153 25.9036 64.1399 26.3297 64.1399 26.3297Z" fill="#F29866"/>
<path d="M126.318 96.6787H89.7549V98.2791H126.318V96.6787Z" fill="#B4E9ED"/>
<path d="M89.7552 98.2788L73.2305 95.7282V94.1279L89.7552 96.6784V98.2788Z" fill="#E2FCFF"/>
<path d="M73.2305 94.1283L114.721 92.9116L126.318 96.6788H89.7552L73.2305 94.1283Z" fill="#B4E9ED"/>
<path d="M125.288 96.6787H88.8691L93.6637 74.2573C93.804 73.602 94.3512 73.1372 94.9821 73.1372H127.781C129.082 73.1372 130.047 74.4234 129.758 75.774L125.288 96.6787Z" fill="#C4F6FF"/>
<path d="M126.173 96.6787H89.7539L94.5485 74.2573C94.6888 73.602 95.236 73.1372 95.8669 73.1372H129.355C130.303 73.1372 131.006 74.0745 130.796 75.0568L126.173 96.6787Z" fill="#E2FCFF"/>
<path d="M126.173 96.6787H97.9961L117.168 73.1372H129.355C130.303 73.1372 131.006 74.0745 130.796 75.0568L126.173 96.6787Z" fill="#C4F6FF"/>
<path d="M44.5099 93.2196C44.3953 94.3487 45.2811 99.5141 49.6894 99.6943C60.6034 100.144 81.9845 93.826 81.9845 93.826L81.8815 87.3217C81.8815 87.3217 52.9815 86.2711 49.4538 87.1852C45.9223 88.1006 44.7931 90.4297 44.5099 93.2196Z" fill="#F5B379"/>
<path d="M45.1455 96.2645C45.1455 96.2645 49.7367 97.6112 56.3054 96.9881C62.8741 96.365 81.9841 93.8286 81.9841 93.8286C81.9841 93.8286 56.5822 101.492 48.3552 99.46C47.2647 99.1897 45.7197 98.282 45.1455 96.2645Z" fill="#F29866"/>
</svg>
