<svg width="291" height="158" viewBox="0 0 291 158" fill="none" xmlns="http://www.w3.org/2000/svg">
<path d="M145.297 157.78C225.543 157.78 290.595 155.321 290.595 152.288C290.595 149.254 225.543 146.795 145.297 146.795C65.0519 146.795 0 149.254 0 152.288C0 155.321 65.0519 157.78 145.297 157.78Z" fill="#EDF1F4"/>
<path d="M201.847 11.2228L201.83 19.1888L178.056 19.0807L178.072 11.1147L201.847 11.2228Z" fill="#F0C960"/>
<path d="M203.426 11.2228L203.409 19.1888L179.635 19.0807L179.651 11.1147L203.426 11.2228Z" fill="#EDF1F4"/>
<path d="M204.651 11.1147H178.072V12.4345H204.651V11.1147Z" fill="#F0C960"/>
<path d="M204.651 17.7363H178.072V19.0561H204.651V17.7363Z" fill="#F0C960"/>
<path d="M193.401 19.0739L193.387 27.0412L169.611 26.9331L169.627 18.9658L193.401 19.0739Z" fill="#DE568E"/>
<path d="M194.982 19.0739L194.965 27.0412L171.191 26.9331L171.206 18.9658L194.982 19.0739Z" fill="#EDF1F4"/>
<path d="M196.206 18.9658H169.627V20.2856H196.206V18.9658Z" fill="#DE568E"/>
<path d="M196.206 25.5889H169.627V26.9086H196.206V25.5889Z" fill="#DE568E"/>
<path d="M203.956 26.6842L203.938 34.6515L175.361 34.5435L175.38 26.5762L203.956 26.6842Z" fill="#5771AD"/>
<path d="M205.855 26.6842L205.835 34.6515L177.26 34.5435L177.279 26.5762L205.855 26.6842Z" fill="#EDF1F4"/>
<path d="M207.327 26.5762H175.38V27.8973H207.327V26.5762Z" fill="#5771AD"/>
<path d="M207.327 33.1978H175.38V34.5175H207.327V33.1978Z" fill="#5771AD"/>
<path d="M164.586 0H154.377V37.7967H164.586V0Z" fill="#E8CB80"/>
<path d="M251.223 0H243.742V37.7967H251.223V0Z" fill="#E8CB80"/>
<path d="M246.986 0H240.26V37.7967H246.986V0Z" fill="#F5DD98"/>
<path d="M161.103 0H154.377V37.7967H161.103V0Z" fill="#F5DD98"/>
<path d="M246.984 0H154.377V3.5757H246.984V0Z" fill="#F5DD98"/>
<path d="M225.364 8.62793H219.966V34.4223H225.364V8.62793Z" fill="#DE568E"/>
<path d="M231.338 34.633L236.505 32.6797L230.531 7.99023L225.365 9.94356L231.338 34.633Z" fill="#F0C960"/>
<path d="M218.659 15.9189H213.746V34.4215H218.659V15.9189Z" fill="#5771AD"/>
<path d="M246.984 34.2222H154.377V37.7965H246.984V34.2222Z" fill="#F5DD98"/>
<path d="M8.15177 135.313C13.901 149.637 34.815 156.565 69.7126 152.65C94.3098 149.893 98.2784 139.094 95.8993 123.28C93.9552 110.387 73.3264 98.4133 73.3264 98.4133C67.3871 80.1147 54.3285 57.9595 36.5396 58.5471H36.525C34.5273 58.6065 32.4626 58.9686 30.3431 59.6453C20.3815 62.8374 13.94 70.4143 9.98612 79.6919C8.68196 82.7637 7.63498 86.0328 6.83299 89.3761C2.59389 107.059 4.89017 127.181 8.15177 135.313Z" fill="#F0C960"/>
<path d="M30.3486 112.955C30.3486 112.955 48.6043 99.2265 69.712 101.387C69.712 101.387 50.6276 88.1671 30.3486 112.955Z" fill="#E9A754"/>
<path d="M40.2068 128.714C41.294 135.76 53.0825 139.408 66.5384 136.859C79.9943 134.309 90.0217 126.531 88.9357 119.485C87.8485 112.439 80.7232 106.131 62.604 111.341C49.3907 115.141 39.1208 121.668 40.2068 128.714Z" fill="#FFD985"/>
<path d="M50.039 69.8546C47.9463 63.0923 39.8325 60.0488 31.9162 63.0585C23.9999 66.0696 19.2793 73.9896 21.3721 80.7519C23.4648 87.5143 29.1921 93.3175 39.4949 87.5467C47.009 83.3401 52.1317 76.617 50.039 69.8546Z" fill="#FFD985"/>
<path d="M6.83535 89.3799L6.83412 89.3759C6.839 89.357 6.84388 89.3381 6.84997 89.3178C7.03645 88.5384 7.23877 87.7643 7.45329 86.9943C7.49107 86.8552 7.53251 86.7188 7.57395 86.581C7.75434 85.942 7.94691 85.3125 8.1468 84.6844C8.20287 84.5088 8.26017 84.3345 8.31746 84.1603C8.521 83.5429 8.73428 82.9297 8.95611 82.3231C9.00852 82.1813 9.05851 82.0368 9.11092 81.8963C9.39003 81.1519 9.6789 80.4157 9.98848 79.6917C13.9424 70.4141 20.3839 62.8372 30.3454 59.6451C32.465 58.967 34.5309 58.605 36.5273 58.5469H36.5419C36.5419 58.5469 8.65749 62.9939 9.92264 99.0561C10.966 128.802 28.5769 146.242 52.6403 147.377C98.8438 149.556 95.9004 123.278 95.9004 123.278C98.2783 139.092 94.3098 149.891 69.7137 152.648C34.8161 156.563 13.9021 149.636 8.1529 135.311C4.89618 127.185 2.59259 107.058 6.83535 89.3799Z" fill="#E9A754"/>
<path d="M35.6785 10.5687C30.953 15.9505 29.9121 24.3609 28.9212 39.6592C28.2667 49.7608 20.8745 63.4125 20.8745 63.4125C20.8745 63.4125 47.3329 71.1488 64.5721 58.536C57.2944 48.718 54.9653 31.8311 54.8946 17.481C54.8946 17.481 43.0305 2.19349 35.6785 10.5687Z" fill="#5D3E4A"/>
<path d="M77.5975 63.4071C77.851 63.0451 78.0838 62.6763 78.3617 62.3521C78.3678 62.3373 78.3689 62.3251 78.3799 62.3116C78.7358 61.801 79.1441 61.1944 79.7085 60.8014C80.2923 60.3934 81.132 60.2543 81.7792 60.0584C81.9218 60.0152 82.0279 60.1124 81.9986 60.2246C81.806 60.9702 80.92 61.0067 80.3179 61.4336C80.5434 61.439 80.7822 61.4592 80.998 61.497C81.4392 61.2687 81.7683 60.9891 82.0998 60.5825C82.4874 60.107 82.7751 59.718 83.4089 59.4681C83.5064 59.4302 83.6002 59.4559 83.6453 59.5127C83.7659 59.6666 83.5916 59.8679 83.4771 60.0503C83.3978 60.1786 83.3065 60.3151 83.2212 60.4501C83.4808 60.1543 83.7538 59.9071 84.1999 59.7301C84.2986 59.6923 84.3912 59.718 84.4363 59.7761C84.5569 59.9287 84.3827 60.1313 84.2693 60.3123C84.2511 60.3407 84.2303 60.3731 84.2121 60.4015C84.2377 60.3894 84.2559 60.3745 84.2839 60.365C84.3826 60.3259 84.4753 60.3515 84.5204 60.4096C84.6411 60.5636 84.4668 60.7649 84.3522 60.9472C84.2011 61.1904 84.0414 61.4484 83.8696 61.7024C83.9829 61.6564 84.0999 61.6132 84.2352 61.5835C84.3351 61.5619 84.4132 61.6065 84.44 61.674C84.5095 61.8564 84.2961 62.032 84.1438 62.2008C83.733 62.6534 83.2809 63.1613 82.7714 63.549C81.9255 64.196 78.5664 65.2443 77.8168 64.7526V64.7499C77.2598 64.5446 77.0356 63.8813 77.5975 63.4071Z" fill="#F5B379"/>
<path d="M92.8022 96.4773C95.1838 100.826 110.348 149.676 110.348 149.676L107.712 149.891L83.1051 107.05C83.1051 107.05 64.8823 106.345 62.6348 102.079C60.5274 98.078 60.5275 91.0239 60.5275 91.0239C61.5586 91.078 55.0439 86.1001 55.0439 86.1001C70.6767 86.1028 90.9946 93.1785 92.8022 96.4773Z" fill="#53607D"/>
<path d="M83.1035 107.051L107.723 149.828L109.518 150.191C109.518 150.191 86.7563 101.933 85.4497 97.961C83.0718 90.7326 62.1152 88.6982 62.1152 88.6982L73.0945 105.853C73.0945 105.853 81.9858 107.574 83.1035 107.051Z" fill="#3D495F"/>
<path d="M82.8676 99.3439C84.1633 103.555 71.1571 149.602 71.1571 149.602L68.305 149.891L69.976 106.655C69.976 106.655 45.9504 109.251 43.7029 104.985C41.5955 100.985 40.3657 89.299 40.3657 89.299C41.3969 89.3531 50.7368 86.9175 50.7368 86.9175C66.3695 86.9175 81.7268 95.6372 82.8676 99.3439Z" fill="#53607D"/>
<path d="M72.7245 103.526C74.0201 107.738 68.8669 149.835 68.8669 149.835L68.305 149.891L69.976 106.655C69.976 106.655 45.9504 109.251 43.7029 104.985C41.5955 100.985 40.3657 89.299 40.3657 89.299C41.3969 89.3531 50.7368 86.9175 50.7368 86.9175C47.335 92.768 46.377 99.9491 50.0323 100.824C61.0006 103.45 71.8677 100.746 72.7245 103.526Z" fill="#3D495F"/>
<path d="M68.8421 148.245C67.7318 148.743 66.8262 152.929 66.8262 152.929H77.157C77.157 152.929 75.1277 152.128 72.4023 150.151C70.0207 148.426 69.7136 147.854 68.8421 148.245Z" fill="#7B519B"/>
<path d="M77.157 152.929H66.8262V153.821H77.157V152.929Z" fill="#5D3E4A"/>
<path d="M108.353 148.245C107.241 148.743 106.337 152.929 106.337 152.929H116.668C116.668 152.929 114.638 152.128 111.912 150.151C109.53 148.426 109.223 147.854 108.353 148.245Z" fill="#7B519B"/>
<path d="M116.668 152.929H106.337V153.821H116.668V152.929Z" fill="#5D3E4A"/>
<path d="M47.1648 44.997C45.1806 45.8183 47.6536 56.7021 59.3605 74.636C62.3601 79.2315 66.2347 72.4192 64.6856 69.5662C63.1365 66.7132 56.5864 54.3179 56.5864 54.3179C56.5864 54.3179 50.8664 43.4638 47.1648 44.997Z" fill="#DE568E"/>
<path d="M47.1648 44.997C45.1806 45.8183 47.6536 56.7021 59.3605 74.6359C56.2659 63.5995 56.1026 60.0643 54.8947 55.2445C54.0866 52.0268 50.8664 43.4638 47.1648 44.997Z" fill="#CD337B"/>
<path d="M60.883 75.6946C61.3047 76.4457 62.5541 76.3444 65.4037 74.7099C67.6329 73.4293 78.5025 65.0743 78.5025 65.0743L78.0478 62.1646C78.0478 62.1646 65.0039 68.2096 63.0501 70.2696C61.0975 72.3297 59.9421 74.0236 60.883 75.6946Z" fill="#DE568E"/>
<path d="M61.6616 87.4565C49.7536 91.9278 39.2887 89.6665 39.2887 89.6665C39.2887 89.6665 40.2394 73.7224 37.7456 58.1107C37.1947 54.6633 37.0266 51.5172 36.5512 50.0326C35.9174 48.0469 37.5884 46.4529 39.0498 45.4802C39.3679 45.279 39.6726 45.102 39.9396 44.9534C40.5368 44.6292 40.9634 44.4536 40.9634 44.4536C40.9634 44.4536 42.3163 44.2645 46.4847 43.9538C47.5938 43.8714 48.6298 44.5212 49.5561 45.6153C53.3357 50.0731 55.6028 62.0551 55.5284 64.6353C55.4431 67.8489 52.5423 67.9975 52.5423 67.9975C53.0189 72.6309 61.6616 87.4565 61.6616 87.4565Z" fill="#DE568E"/>
<path d="M52.5435 67.9922C52.5435 67.9922 48.3836 68.0205 45.7168 67.1816C45.7168 67.1816 49.0393 70.3615 52.8616 70.167L52.5435 67.9922Z" fill="#CD337B"/>
<path d="M37.0252 51.1615C37.0252 51.1615 38.8571 63.6001 39.2874 73.9705C39.5104 79.3213 39.2874 89.6647 39.2874 89.6647C39.2874 89.6647 46.5467 91.056 51.7841 89.8768C51.7841 89.8768 42.3978 90.1564 43.1328 82.7267C43.869 75.2971 40.4136 54.2009 38.1782 50.2618C35.9453 46.3214 37.0252 51.1615 37.0252 51.1615Z" fill="#CD337B"/>
<path d="M40.9147 81.9378C41.8934 79.2375 47.8498 82.0135 49.2076 83.105C49.5537 83.3819 49.3929 83.9317 49.0943 84.0411C49.1893 84.1167 49.2881 84.1856 49.3807 84.264C49.8378 84.649 49.388 85.5189 48.9248 85.1285C48.8956 85.1029 48.8615 85.0839 48.831 85.0583C48.6884 85.2879 48.3739 85.4244 48.1143 85.2001C47.9864 85.0907 47.845 85.0002 47.7146 84.8948C47.6658 85.1744 47.3733 85.0718 47.099 84.9448C46.046 84.4558 45.3817 83.9965 44.3859 83.6129C43.4486 83.7898 42.2968 84.0181 41.4485 83.5926C40.8732 83.3049 40.4832 82.5484 40.9147 81.9378Z" fill="#F5B379"/>
<path d="M41.2074 47.4104C41.0246 49.5839 39.9764 53.219 37.7459 58.1091C35.7105 62.6209 32.6756 68.212 28.4218 74.7245C25.4235 79.316 21.5476 72.5077 23.0955 69.6588C24.6447 66.8085 31.1898 54.4078 31.1898 54.4078C31.1898 54.4078 35.2485 46.7214 38.7454 45.195C39.1488 45.0194 39.5498 44.9248 39.9398 44.9518C40.1702 44.9518 40.4029 45.0058 40.6236 45.0869C41.0977 45.2895 41.3171 46.073 41.2074 47.4104Z" fill="#DE568E"/>
<path d="M23.4329 71.6762C23.8035 70.894 25.0564 70.89 28.0084 72.2881C30.3169 73.3837 41.7142 80.8214 41.7142 80.8214L41.4546 83.7622C41.4546 83.7622 28.0425 78.8033 25.9571 76.9094C23.8717 75.0168 22.6078 73.4201 23.4329 71.6762Z" fill="#DE568E"/>
<path d="M49.5562 45.6144C48.6298 44.5188 47.5951 43.8704 46.4847 43.9528C42.3163 44.2635 40.9634 44.4526 40.9634 44.4526C40.9634 44.4526 40.5368 44.6283 39.9396 44.9525C39.5496 44.9241 39.1486 45.02 38.7451 45.1956C38.8438 45.2902 38.9523 45.3861 39.0498 45.4793C39.7702 46.1142 40.4893 46.7626 41.2084 47.4123C41.6947 47.8568 42.1968 48.3026 42.6832 48.7483C43.7313 49.6939 44.8771 51.1272 46.1581 51.7202C47.9985 52.5712 49.082 50.5855 49.3867 48.8699C49.544 47.9783 49.6902 46.7207 49.5562 45.6144Z" fill="#CD337B"/>
<path d="M39.2895 54.4644C39.2895 54.4644 37.9062 60.1217 29.4743 73.0939C30.6468 73.7936 37.5527 78.1312 37.5527 78.1312C37.5527 78.1312 26.0701 74.5636 27.2207 72.9075C29.3536 69.8343 39.2895 54.4644 39.2895 54.4644Z" fill="#CD337B"/>
<path d="M94.9823 91.791H60.3687V93.4701H94.9823V91.791Z" fill="#B4E9ED"/>
<path d="M60.3683 93.4716L44.7246 90.7929V89.1138L60.3683 91.7912V93.4716Z" fill="#E2FCFF"/>
<path d="M44.7246 89.1136L84.0027 87.8384L94.982 91.791H60.3683L44.7246 89.1136Z" fill="#B4E9ED"/>
<path d="M94.0057 91.7914H59.5298L64.0687 68.2651C64.2015 67.5775 64.7196 67.0898 65.3168 67.0898H96.3666C97.5988 67.0898 98.5117 68.4393 98.2387 69.8564L94.0057 91.7914Z" fill="#C4F6FF"/>
<path d="M94.8445 91.7914H60.3687L64.9076 68.2651C65.0405 67.5775 65.5585 67.0898 66.1557 67.0898H97.8587C98.7558 67.0898 99.4213 68.0733 99.2214 69.1053L94.8445 91.7914Z" fill="#E2FCFF"/>
<path d="M94.844 91.7914H68.1699L86.3207 67.0898H97.8582C98.7553 67.0898 99.4207 68.0733 99.2209 69.1053L94.844 91.7914Z" fill="#C4F6FF"/>
<path d="M47.553 35.9878C47.3495 39.2771 47.2739 42.6758 47.5238 44.7521C46.3013 48.8816 40.4618 44.825 40.4618 44.825C40.5472 43.9632 40.5801 42.919 40.5837 41.8761C40.5935 39.7418 40.4753 37.6129 40.4338 36.9969C40.4351 36.9577 40.4326 36.9266 40.429 36.8983C40.4302 36.8483 40.4277 36.828 40.4277 36.828L47.553 35.9878Z" fill="#F5B379"/>
<path d="M47.5761 37.2843C47.5335 37.6207 47.4945 37.9354 47.4701 38.2286C47.364 39.2322 47.3446 39.9968 47.3726 40.5736C47.3641 41.3342 47.3982 42.5161 47.3945 43.3158C45.8649 44.768 41.7026 41.5179 40.502 39.52C40.4448 37.3465 40.2192 34.9717 40.2192 34.9717L47.5761 37.2843Z" fill="#F29866"/>
<path d="M37.9936 19.7571C37.9936 19.7571 37.6341 31.2245 39.7622 35.3594C41.8902 39.4943 46.2147 42.9903 47.6895 42.7053C51.5922 41.9488 54.9854 31.2663 54.8916 23.684C54.7745 14.2538 46.8936 9.9824 37.9936 19.7571Z" fill="#F5B379"/>
<path d="M43.1955 26.9627C43.3722 25.8172 44.0023 25.0648 44.6422 25.2715C45.3138 25.493 45.7526 26.6952 45.5831 27.9731C45.4113 29.2781 44.6885 30.0507 44.0096 29.6955C43.3685 29.3591 43.0163 28.1339 43.1955 26.9627Z" fill="#503D39"/>
<path d="M50.3421 27.2231C50.3896 26.0587 50.8345 25.1347 51.3635 25.1496C51.9108 25.1685 52.3337 26.1951 52.2862 27.4514C52.2398 28.7091 51.7401 29.6412 51.1929 29.5277C50.6651 29.4223 50.297 28.3876 50.3421 27.2231Z" fill="#503D39"/>
<path d="M52.9084 26.5911C52.9084 26.5911 51.3239 25.0998 50.0308 25.3619C50.0308 25.3619 50.3891 24.5716 51.3008 24.7945C52.2137 25.0214 52.9084 26.5911 52.9084 26.5911Z" fill="#503D39"/>
<path d="M42.7651 26.4723C42.7651 26.4723 44.346 25.2525 45.9536 25.6929C45.9536 25.6929 45.4978 24.7703 44.3533 24.9215C43.2941 25.058 42.7651 26.4723 42.7651 26.4723Z" fill="#503D39"/>
<path d="M48.405 29.5376C49.1265 30.3616 49.5933 31.3113 49.9249 32.3757C49.9602 32.5149 49.9955 32.65 50.0224 32.808C50.0662 32.9377 50.065 33.3889 49.8737 33.5928C49.5019 33.9819 49.2021 33.9657 48.9291 33.9886C48.3855 34.0048 47.8931 33.8468 47.4263 33.5996C47.9211 33.4564 48.4074 33.3389 48.823 33.2065C49.0168 33.1417 49.2313 33.0147 49.1936 32.9998C49.1558 32.9917 49.1716 33.1511 49.1509 33.0228C49.1277 32.9188 49.09 32.7972 49.0546 32.6797C48.7792 31.7003 48.4671 30.6764 48.405 29.5376Z" fill="#F29866"/>
<path d="M45.7524 35.1709C45.7524 35.1709 48.0463 36.8811 49.6271 36.1543C49.6271 36.1543 48.7788 39.4274 47.8744 39.2707C46.7336 39.0735 45.8195 36.9324 45.7524 35.1709Z" fill="white"/>
<path d="M45.9142 22.3191C46.3445 22.5029 46.1068 23.3363 45.6546 23.4052C44.9964 23.5079 43.7423 23.1783 40.6671 24.3603C40.4904 24.4278 43.9616 21.4843 45.9142 22.3191Z" fill="#5C3339"/>
<path d="M49.4896 22.2543C49.0557 22.4258 49.2739 23.2647 49.7236 23.3471C50.3794 23.4673 51.6409 23.1702 54.6879 24.4359C54.8647 24.5075 51.4593 21.4708 49.4896 22.2543Z" fill="#5C3339"/>
<path d="M47.4332 44.7521C46.446 47.3497 41.9022 45.5166 40.5188 44.6237C39.8399 44.1847 39.3219 44.9628 39.9996 45.4005C42.2154 46.8337 47.4857 48.5493 48.1024 44.8372C48.1707 44.44 47.6526 44.1739 47.4332 44.7521Z" fill="#F0C960"/>
<path d="M39.4963 18.8903C40.4056 23.1833 39.6036 27.1561 39.6036 27.1561C38.6944 26.2889 36.7796 26.4915 36.7796 26.4915C36.7796 26.4915 30.7025 19.5076 33.3229 13.9935C33.3229 13.9813 33.3339 13.9813 33.3339 13.9692C34.4784 11.5863 35.9337 10.0801 37.4743 9.14393C42.0742 6.36794 47.4236 8.77651 47.4236 8.77651C57.0634 5.66956 61.5974 15.882 59.4011 19.2685C56.3869 23.9127 39.4963 18.8903 39.4963 18.8903Z" fill="#5D3E4A"/>
<path d="M39.9664 27.5274C39.2021 26.6034 36.4634 24.4894 35.876 26.4859C35.1374 28.9931 38.0991 34.9976 40.0943 31.8258C40.9244 30.5047 40.627 28.3271 39.9664 27.5274Z" fill="#F5B379"/>
<path d="M39.241 28.3715C39.241 28.3715 37.1093 26.3317 37.0325 27.7055C36.9179 29.7656 38.2245 31.0029 38.7279 31.1137C38.7279 31.1137 38.1404 30.1397 38.3122 29.0874C38.4841 28.0338 39.241 28.3715 39.241 28.3715Z" fill="#F29866"/>
<path d="M268.828 90.3924L268.783 109.795L203.494 109.531L203.538 90.1304L268.828 90.3924Z" fill="#EA3E72"/>
<path d="M273.165 90.3924L273.121 109.795L207.832 109.531L207.876 90.1304L273.165 90.3924Z" fill="#EDF1F4"/>
<path d="M276.528 90.1304H203.538V93.3454H276.528V90.1304Z" fill="#F0C960"/>
<path d="M276.528 106.257H203.538V109.47H276.528V106.257Z" fill="#F0C960"/>
<path d="M202.387 108.662L202.334 128.063L280.81 128.324L280.863 108.923L202.387 108.662Z" fill="#4093F6"/>
<path d="M207.631 108.666L207.577 128.066L286.051 128.336L286.105 108.935L207.631 108.666Z" fill="#EDF1F4"/>
<path d="M290.111 108.664H202.381V111.877H290.111V108.664Z" fill="#DE568E"/>
<path d="M290.111 124.79H202.381V128.003H290.111V124.79Z" fill="#DE568E"/>
<path d="M273.085 127.61L273.037 151.678L202.301 151.441L202.348 127.373L273.085 127.61Z" fill="#EDF1F4"/>
<path d="M277.783 127.61L277.736 151.678L207 151.441L207.048 127.373L277.783 127.61Z" fill="#9ED1DE"/>
<path d="M212.045 127.373H202.348V130.271H212.045V127.373Z" fill="#92CEFF"/>
<path d="M212.045 148.489H202.348V151.386H212.045V148.489Z" fill="#9ED1DE"/>
<path d="M260.408 92.0171L258.694 92.8506L257.327 94.4338L151.501 81.702C150.607 81.5953 149.717 81.956 149.098 82.6828L99.3281 140.942L98.5956 140.85L96.8051 140.984V143.996C96.8014 144.021 96.8063 144.041 96.8051 144.064V144.176L96.8148 144.172C96.8465 144.361 96.9697 144.527 97.1695 144.547L154.172 150.692C160.822 152.534 164.403 149.701 164.403 149.701L213.295 154.667C214.229 154.761 215.145 154.348 215.752 153.556L260.31 95.5171C260.376 95.4307 260.397 95.3307 260.399 95.2308L260.409 95.2254L260.408 92.0171Z" fill="#6F89CA"/>
<path d="M164.403 146.508C164.403 146.508 160.822 149.343 154.172 147.499L97.1699 141.354C96.8274 141.318 96.6714 140.858 96.9091 140.581L149.097 79.4893C149.716 78.7653 150.605 78.4019 151.501 78.51L260.038 91.5672C260.368 91.6064 260.524 92.0414 260.309 92.3224L215.751 150.362C215.144 151.153 214.228 151.568 213.294 151.472L164.403 146.508Z" fill="#5771AD"/>
<path d="M256.981 90.5481C256.981 90.5481 242.211 114.357 236.649 119.672C231.086 124.988 214.207 149.287 214.207 149.287L163.927 143.789C163.927 143.789 155.611 139.549 153.213 146.095L102.384 139.019C102.384 139.019 101.041 133.066 100.082 131.153C99.1227 129.24 145.923 74.8188 145.923 74.8188L256.98 84.3855L256.981 90.5481Z" fill="white"/>
<path d="M214.208 149.286L210.691 138.803L256.981 84.3828V92.0164C256.981 92.0164 243.427 112.443 236.649 119.671C229.871 126.899 214.208 149.286 214.208 149.286Z" fill="#D3E0EA"/>
<path d="M210.692 138.803C210.692 138.803 167.567 131.078 157.337 140.505C157.337 140.505 162.82 139.692 166.168 144.031L214.208 149.286L210.692 138.803Z" fill="#F4F7F9"/>
<path d="M157.337 140.505L100.083 131.15C100.083 131.15 101.997 136.073 102.385 139.016L150.847 145.763C150.847 145.763 154.748 141.143 157.337 140.505Z" fill="#F4F7F9"/>
<path d="M163.928 143.788L166.168 144.032C166.168 144.032 162.516 139.123 157.337 140.506C152.159 141.887 150.847 145.765 150.847 145.765L153.214 146.095C153.214 146.095 155.406 142.891 157.481 142.472C160.119 141.94 163.928 143.788 163.928 143.788Z" fill="#D3E0EA"/>
<path d="M157.338 140.505L101.93 127.971C101.93 127.971 100.595 124.915 101.93 120.38C126.361 124.136 157.168 138.031 158.508 140.261L157.338 140.505Z" fill="#F4F7F9"/>
<path d="M157.337 140.505C157.337 140.505 192.801 128.574 209.029 133.275L253.912 81.6837C253.912 81.6837 219.387 73.611 198.416 77.2961L157.337 140.505Z" fill="#D3E0EA"/>
<path d="M157.337 140.505C157.337 140.505 134.185 129.026 100.069 122.08C100.069 122.08 128.854 75.8794 143.431 70.7759C143.431 70.7759 175.911 69.9263 198.415 77.2951C198.415 77.2951 158.712 118.112 157.337 140.505Z" fill="#D3E0EA"/>
<path d="M157.337 140.505C157.337 140.505 117.451 113.91 100.069 115.046C100.069 115.046 128.72 71.3284 141.571 68.9888C141.571 68.9888 175.335 69.1468 198.416 77.2951C198.416 77.2951 156.858 120.734 157.337 140.505Z" fill="#F4F7F9"/>
<path d="M101.929 127.971C101.929 127.971 155.451 139.725 157.337 140.506L101.337 128.813L101.929 127.971Z" fill="#D3E0EA"/>
<path d="M157.337 140.505C157.337 140.505 180.337 120.071 208.391 121.74C208.391 121.74 237.289 82.8792 252.122 74.816C252.122 74.816 216.063 65.4479 198.417 77.2962C198.417 77.2962 156.41 119.018 157.337 140.505Z" fill="#F4F7F9"/>
<path d="M157.337 140.505C157.337 140.505 162.676 111.65 198.416 77.2966L195.514 76.3335C195.514 76.3335 159.351 108.815 157.337 140.505Z" fill="#D3E0EA"/>
</svg>
